STARTFONT 2.1
FONT -FontForge-Roboto-Bold-R-Normal--18-180-72-72-P-103-ISO10646-1
SIZE 18 72 72
FONTBOUNDINGBOX 34 24 -13 -5
COMMENT "Generated by fontforge, http://fontforge.sourceforge.net"
COMMENT "Copyright 2011 Google Inc. All Rights Reserved."
STARTPROPERTIES 41
FOUNDRY "FontForge"
FAMILY_NAME "Roboto"
WEIGHT_NAME "Bold"
SLANT "R"
SETWIDTH_NAME "Normal"
ADD_STYLE_NAME ""
PIXEL_SIZE 18
POINT_SIZE 180
RESOLUTION_X 72
RESOLUTION_Y 72
SPACING "P"
AVERAGE_WIDTH 103
CHARSET_REGISTRY "ISO10646"
CHARSET_ENCODING "1"
FONTNAME_REGISTRY ""
CHARSET_COLLECTIONS "ISO8859-2 ISO8859-5 ISO8859-7 ISO8859-9 ISO8859-4 ISO10646-1"
FONT_NAME "Roboto-Bold"
FACE_NAME "Roboto Bold"
COPYRIGHT "Copyright 2011 Google Inc. All Rights Reserved."
FONT_VERSION "2.137; 2017"
FONT_ASCENT 14
FONT_DESCENT 4
UNDERLINE_POSITION -2
UNDERLINE_THICKNESS 1
X_HEIGHT 9
CAP_HEIGHT 12
DEFAULT_CHAR 1
RAW_ASCENT 750
RAW_DESCENT 250
NORM_SPACE 4
RELATIVE_WEIGHT 70
RELATIVE_SETWIDTH 50
SUPERSCRIPT_X 0
SUPERSCRIPT_Y 8
SUPERSCRIPT_SIZE 11
SUBSCRIPT_X 0
SUBSCRIPT_Y 2
SUBSCRIPT_SIZE 11
FIGURE_WIDTH 10
AVG_LOWERCASE_WIDTH 100
AVG_UPPERCASE_WIDTH 120
ENDPROPERTIES
CHARS 1296
STARTCHAR glyph1.dup1
ENCODING 0
SWIDTH 0 0
DWIDTH 0 0
BBX 1 1 0 0
BITMAP
00
ENDCHAR
STARTCHAR uni0002
ENCODING 2
SWIDTH 0 0
DWIDTH 0 0
BBX 1 1 0 0
BITMAP
00
ENDCHAR
STARTCHAR uni000D
ENCODING 13
SWIDTH 249 0
DWIDTH 4 0
BBX 1 1 0 0
BITMAP
00
ENDCHAR
STARTCHAR space
ENCODING 32
SWIDTH 249 0
DWIDTH 4 0
BBX 1 1 0 0
BITMAP
00
ENDCHAR
STARTCHAR exclam
ENCODING 33
SWIDTH 271 0
DWIDTH 5 0
BBX 3 13 1 0
BITMAP
E0
E0
E0
E0
E0
E0
E0
E0
E0
00
E0
E0
E0
ENDCHAR
STARTCHAR quotedbl
ENCODING 34
SWIDTH 320 0
DWIDTH 6 0
BBX 4 5 1 9
BITMAP
90
90
90
90
90
ENDCHAR
STARTCHAR numbersign
ENCODING 35
SWIDTH 595 0
DWIDTH 11 0
BBX 9 13 1 0
BITMAP
1B00
1B00
1300
FF80
FF80
3200
3600
FF80
FF80
2600
6400
6400
6C00
ENDCHAR
STARTCHAR dollar
ENCODING 36
SWIDTH 573 0
DWIDTH 10 0
BBX 8 17 1 -2
BITMAP
08
08
3C
7F
E7
E3
E0
70
3E
0F
07
C3
E7
FF
3E
18
18
ENDCHAR
STARTCHAR percent
ENCODING 37
SWIDTH 738 0
DWIDTH 13 0
BBX 11 13 1 0
BITMAP
7000
F880
9980
9B00
FA00
7600
0400
0DC0
1BE0
1320
3320
23E0
01C0
ENDCHAR
STARTCHAR ampersand
ENCODING 38
SWIDTH 656 0
DWIDTH 12 0
BBX 11 13 1 0
BITMAP
3C00
7E00
6700
6700
7600
3C00
3800
FCC0
CFC0
C780
E380
FF80
3FE0
ENDCHAR
STARTCHAR quotesingle
ENCODING 39
SWIDTH 161 0
DWIDTH 3 0
BBX 2 5 1 9
BITMAP
C0
80
80
80
80
ENDCHAR
STARTCHAR parenleft
ENCODING 40
SWIDTH 351 0
DWIDTH 6 0
BBX 5 18 1 -4
BITMAP
10
38
30
60
60
C0
C0
C0
C0
C0
C0
C0
C0
60
60
30
38
10
ENDCHAR
STARTCHAR parenright
ENCODING 41
SWIDTH 352 0
DWIDTH 6 0
BBX 5 18 0 -4
BITMAP
40
E0
60
30
30
18
18
18
18
18
18
18
18
30
30
60
E0
40
ENDCHAR
STARTCHAR asterisk
ENCODING 42
SWIDTH 453 0
DWIDTH 8 0
BBX 8 8 0 5
BITMAP
18
18
59
FF
18
3C
66
24
ENDCHAR
STARTCHAR plus
ENCODING 43
SWIDTH 545 0
DWIDTH 10 0
BBX 9 9 0 1
BITMAP
0C00
0C00
0C00
FF80
FF80
0C00
0C00
0C00
0C00
ENDCHAR
STARTCHAR comma
ENCODING 44
SWIDTH 244 0
DWIDTH 4 0
BBX 3 5 0 -2
BITMAP
60
60
60
60
C0
ENDCHAR
STARTCHAR hyphen
ENCODING 45
SWIDTH 387 0
DWIDTH 7 0
BBX 5 2 1 5
BITMAP
F8
F8
ENDCHAR
STARTCHAR period
ENCODING 46
SWIDTH 290 0
DWIDTH 5 0
BBX 3 3 1 0
BITMAP
E0
E0
E0
ENDCHAR
STARTCHAR slash
ENCODING 47
SWIDTH 373 0
DWIDTH 7 0
BBX 6 14 0 -1
BITMAP
0C
0C
0C
18
18
18
30
30
30
60
60
60
C0
C0
ENDCHAR
STARTCHAR zero
ENCODING 48
SWIDTH 573 0
DWIDTH 10 0
BBX 8 13 1 0
BITMAP
3C
7E
E7
C3
C3
C3
C3
C3
C3
C3
E7
7E
3C
ENDCHAR
STARTCHAR one
ENCODING 49
SWIDTH 573 0
DWIDTH 10 0
BBX 6 13 1 0
BITMAP
0C
3C
FC
DC
1C
1C
1C
1C
1C
1C
1C
1C
1C
ENDCHAR
STARTCHAR two
ENCODING 50
SWIDTH 573 0
DWIDTH 10 0
BBX 9 13 0 0
BITMAP
1E00
7F00
7380
6180
8380
0380
0700
0E00
1C00
3800
7000
7F80
7F80
ENDCHAR
STARTCHAR three
ENCODING 51
SWIDTH 573 0
DWIDTH 10 0
BBX 9 13 0 0
BITMAP
1E00
7F80
6380
0180
0380
1F00
1F00
0380
0180
E180
6380
7F00
3E00
ENDCHAR
STARTCHAR four
ENCODING 52
SWIDTH 573 0
DWIDTH 10 0
BBX 10 13 0 0
BITMAP
0700
0700
0F00
0F00
1B00
3B00
3300
6300
FFC0
7FC0
0300
0300
0300
ENDCHAR
STARTCHAR five
ENCODING 53
SWIDTH 573 0
DWIDTH 10 0
BBX 8 13 1 0
BITMAP
7F
7F
60
E0
FE
FF
47
03
03
C3
E7
7E
3C
ENDCHAR
STARTCHAR six
ENCODING 54
SWIDTH 573 0
DWIDTH 10 0
BBX 9 13 1 0
BITMAP
1E00
3E00
7000
E000
DE00
FF00
E700
C300
C380
C300
E700
7F00
3C00
ENDCHAR
STARTCHAR seven
ENCODING 55
SWIDTH 573 0
DWIDTH 10 0
BBX 9 13 1 0
BITMAP
FF80
FF80
0300
0700
0600
0E00
0C00
1C00
1C00
1800
3800
3000
7000
ENDCHAR
STARTCHAR eight
ENCODING 56
SWIDTH 573 0
DWIDTH 10 0
BBX 8 13 1 0
BITMAP
3C
FF
E7
E3
E7
7E
7E
E7
C3
C3
E7
FF
3C
ENDCHAR
STARTCHAR nine
ENCODING 57
SWIDTH 573 0
DWIDTH 10 0
BBX 8 13 1 0
BITMAP
3C
7E
E7
C3
C3
E7
FF
7B
07
07
0E
7C
78
ENDCHAR
STARTCHAR colon
ENCODING 58
SWIDTH 282 0
DWIDTH 5 0
BBX 3 10 1 0
BITMAP
E0
E0
E0
00
00
00
00
E0
E0
E0
ENDCHAR
STARTCHAR semicolon
ENCODING 59
SWIDTH 262 0
DWIDTH 5 0
BBX 4 12 0 -2
BITMAP
60
70
60
00
00
00
00
60
60
60
60
C0
ENDCHAR
STARTCHAR less
ENCODING 60
SWIDTH 508 0
DWIDTH 9 0
BBX 8 8 0 2
BITMAP
01
0F
3E
F8
F0
3E
0F
01
ENDCHAR
STARTCHAR equal
ENCODING 61
SWIDTH 572 0
DWIDTH 10 0
BBX 8 6 1 3
BITMAP
FF
FF
00
00
FF
FF
ENDCHAR
STARTCHAR greater
ENCODING 62
SWIDTH 516 0
DWIDTH 9 0
BBX 8 8 1 2
BITMAP
80
F0
7C
0F
0F
7C
F0
80
ENDCHAR
STARTCHAR question
ENCODING 63
SWIDTH 497 0
DWIDTH 9 0
BBX 8 13 0 0
BITMAP
3E
7F
63
E3
03
07
0E
1C
18
00
18
1C
18
ENDCHAR
STARTCHAR at
ENCODING 64
SWIDTH 895 0
DWIDTH 16 0
BBX 14 17 1 -4
BITMAP
07C0
1FF0
3838
7018
63CC
C7C4
CCC4
CCC4
8CC4
98CC
8CCC
CFF8
C670
6000
7040
3FC0
0F80
ENDCHAR
STARTCHAR A
ENCODING 65
SWIDTH 672 0
DWIDTH 12 0
BBX 12 13 0 0
BITMAP
0600
0F00
0F00
0F80
1F80
1980
39C0
39C0
3FC0
7FE0
7060
6070
E070
ENDCHAR
STARTCHAR B
ENCODING 66
SWIDTH 638 0
DWIDTH 11 0
BBX 9 13 1 0
BITMAP
FE00
FF80
E380
E380
E380
FF00
FF00
E380
E180
E180
E380
FF80
FE00
ENDCHAR
STARTCHAR C
ENCODING 67
SWIDTH 654 0
DWIDTH 12 0
BBX 10 13 1 0
BITMAP
1F00
7F80
71C0
E1C0
E0C0
C000
C000
C000
E000
E1C0
61C0
7F80
1F00
ENDCHAR
STARTCHAR D
ENCODING 68
SWIDTH 649 0
DWIDTH 12 0
BBX 10 13 1 0
BITMAP
FE00
FF00
E380
E180
E1C0
E1C0
E1C0
E1C0
E1C0
E180
E380
FF00
FE00
ENDCHAR
STARTCHAR E
ENCODING 69
SWIDTH 562 0
DWIDTH 10 0
BBX 9 13 1 0
BITMAP
FF80
FF80
E000
E000
E000
FF00
FF00
E000
E000
E000
E000
FF80
FF80
ENDCHAR
STARTCHAR F
ENCODING 70
SWIDTH 547 0
DWIDTH 10 0
BBX 8 13 1 0
BITMAP
FF
FF
E0
E0
E0
FF
FF
E0
E0
E0
E0
E0
E0
ENDCHAR
STARTCHAR G
ENCODING 71
SWIDTH 681 0
DWIDTH 12 0
BBX 10 13 1 0
BITMAP
1F00
7F80
71C0
E1C0
E000
C000
C7C0
C7C0
E1C0
E1C0
71C0
7FC0
1F00
ENDCHAR
STARTCHAR H
ENCODING 72
SWIDTH 706 0
DWIDTH 13 0
BBX 11 13 1 0
BITMAP
E0E0
E0E0
E0E0
E0E0
E0E0
FFE0
FFE0
E0E0
E0E0
E0E0
E0E0
E0E0
E0E0
ENDCHAR
STARTCHAR I
ENCODING 73
SWIDTH 291 0
DWIDTH 5 0
BBX 3 13 1 0
BITMAP
E0
E0
E0
E0
E0
E0
E0
E0
E0
E0
E0
E0
E0
ENDCHAR
STARTCHAR J
ENCODING 74
SWIDTH 558 0
DWIDTH 10 0
BBX 9 13 0 0
BITMAP
0380
0380
0380
0380
0380
0380
0380
0380
0380
E380
6380
7F00
3E00
ENDCHAR
STARTCHAR K
ENCODING 75
SWIDTH 634 0
DWIDTH 11 0
BBX 10 13 1 0
BITMAP
E1C0
E380
E700
EE00
EE00
FC00
FC00
FE00
EE00
E700
E380
E380
E1C0
ENDCHAR
STARTCHAR L
ENCODING 76
SWIDTH 541 0
DWIDTH 10 0
BBX 8 13 1 0
BITMAP
E0
E0
E0
E0
E0
E0
E0
E0
E0
E0
E0
FF
FF
ENDCHAR
STARTCHAR M
ENCODING 77
SWIDTH 875 0
DWIDTH 16 0
BBX 14 13 1 0
BITMAP
F03C
F03C
F07C
F87C
F87C
FCDC
ECDC
ECDC
EF9C
E79C
E79C
E71C
E31C
ENDCHAR
STARTCHAR N
ENCODING 78
SWIDTH 706 0
DWIDTH 13 0
BBX 11 13 1 0
BITMAP
E0E0
F0E0
F0E0
F8E0
FCE0
ECE0
EEE0
E6E0
E7E0
E3E0
E1E0
E1E0
E0E0
ENDCHAR
STARTCHAR O
ENCODING 79
SWIDTH 690 0
DWIDTH 12 0
BBX 10 13 1 0
BITMAP
1E00
7F80
E1C0
E1C0
C0C0
C0C0
C0C0
C0C0
C0C0
E1C0
E1C0
7F80
1E00
ENDCHAR
STARTCHAR P
ENCODING 80
SWIDTH 645 0
DWIDTH 12 0
BBX 10 13 1 0
BITMAP
FF00
FF80
E1C0
E1C0
E1C0
E1C0
FF80
FF00
E000
E000
E000
E000
E000
ENDCHAR
STARTCHAR Q
ENCODING 81
SWIDTH 690 0
DWIDTH 12 0
BBX 10 15 1 -2
BITMAP
1E00
7F80
E1C0
E1C0
C0C0
C0C0
C0C0
C0C0
C0C0
E1C0
E1C0
7F80
1F80
01C0
0080
ENDCHAR
STARTCHAR R
ENCODING 82
SWIDTH 638 0
DWIDTH 11 0
BBX 10 13 1 0
BITMAP
FE00
FF80
E380
E180
E180
E380
FF00
FE00
E700
E700
E380
E380
E1C0
ENDCHAR
STARTCHAR S
ENCODING 83
SWIDTH 614 0
DWIDTH 11 0
BBX 9 13 1 0
BITMAP
3E00
7F80
E380
E180
E000
7800
3F00
0F80
0380
C180
E380
7F80
3E00
ENDCHAR
STARTCHAR T
ENCODING 84
SWIDTH 618 0
DWIDTH 11 0
BBX 11 13 0 0
BITMAP
FFE0
FFE0
0E00
0E00
0E00
0E00
0E00
0E00
0E00
0E00
0E00
0E00
0E00
ENDCHAR
STARTCHAR U
ENCODING 85
SWIDTH 658 0
DWIDTH 12 0
BBX 10 13 1 0
BITMAP
E1C0
E1C0
E1C0
E1C0
E1C0
E1C0
E1C0
E1C0
E1C0
E1C0
E1C0
7F80
3F00
ENDCHAR
STARTCHAR V
ENCODING 86
SWIDTH 653 0
DWIDTH 12 0
BBX 12 13 0 0
BITMAP
E070
70E0
70E0
70E0
30C0
39C0
39C0
1980
1F80
1F80
0F00
0F00
0F00
ENDCHAR
STARTCHAR W
ENCODING 87
SWIDTH 874 0
DWIDTH 16 0
BBX 16 13 0 0
BITMAP
E187
6186
73CE
73CE
73CE
33CC
366C
366C
3E7C
1E7C
1E78
1C38
1C38
ENDCHAR
STARTCHAR X
ENCODING 88
SWIDTH 635 0
DWIDTH 11 0
BBX 11 13 0 0
BITMAP
F0E0
71C0
39C0
3B80
1F80
1F00
0E00
1F00
1F80
3B80
39C0
71C0
F0E0
ENDCHAR
STARTCHAR Y
ENCODING 89
SWIDTH 618 0
DWIDTH 11 0
BBX 11 13 0 0
BITMAP
E0E0
70C0
71C0
3180
3B80
1B00
1F00
0E00
0E00
0E00
0E00
0E00
0E00
ENDCHAR
STARTCHAR Z
ENCODING 90
SWIDTH 605 0
DWIDTH 11 0
BBX 9 13 1 0
BITMAP
FF80
FF80
0380
0700
0E00
0E00
1C00
3800
3800
7000
E000
FF80
FF80
ENDCHAR
STARTCHAR bracketleft
ENCODING 91
SWIDTH 277 0
DWIDTH 5 0
BBX 4 18 1 -3
BITMAP
F0
F0
E0
E0
E0
E0
E0
E0
E0
E0
E0
E0
E0
E0
E0
E0
F0
F0
ENDCHAR
STARTCHAR backslash
ENCODING 92
SWIDTH 421 0
DWIDTH 8 0
BBX 8 14 0 -1
BITMAP
E0
60
70
70
30
38
38
18
1C
0C
0E
0E
06
07
ENDCHAR
STARTCHAR bracketright
ENCODING 93
SWIDTH 277 0
DWIDTH 5 0
BBX 4 18 0 -3
BITMAP
F0
F0
70
70
70
70
70
70
70
70
70
70
70
70
70
70
F0
F0
ENDCHAR
STARTCHAR asciicircum
ENCODING 94
SWIDTH 437 0
DWIDTH 8 0
BBX 8 6 0 7
BITMAP
18
3C
3C
3C
66
E7
ENDCHAR
STARTCHAR underscore
ENCODING 95
SWIDTH 446 0
DWIDTH 8 0
BBX 8 2 0 -2
BITMAP
FF
FF
ENDCHAR
STARTCHAR grave
ENCODING 96
SWIDTH 330 0
DWIDTH 6 0
BBX 5 3 0 11
BITMAP
F0
30
38
ENDCHAR
STARTCHAR a
ENCODING 97
SWIDTH 536 0
DWIDTH 10 0
BBX 8 10 1 0
BITMAP
3C
FE
C7
07
7F
FF
C7
C7
FF
7F
ENDCHAR
STARTCHAR b
ENCODING 98
SWIDTH 562 0
DWIDTH 10 0
BBX 8 14 1 0
BITMAP
C0
C0
C0
C0
DE
FF
E7
C3
C3
C3
C3
E7
FF
DE
ENDCHAR
STARTCHAR c
ENCODING 99
SWIDTH 521 0
DWIDTH 9 0
BBX 9 10 0 0
BITMAP
1E00
7F00
7380
6380
E000
E000
6380
6380
7F00
1E00
ENDCHAR
STARTCHAR d
ENCODING 100
SWIDTH 563 0
DWIDTH 10 0
BBX 9 14 0 0
BITMAP
0180
0180
0180
0180
3D80
7F80
7380
6180
6180
E180
6180
7380
7F80
3D80
ENDCHAR
STARTCHAR e
ENCODING 101
SWIDTH 540 0
DWIDTH 10 0
BBX 8 10 1 0
BITMAP
3C
7E
E7
C3
FF
FF
C0
E2
7F
3E
ENDCHAR
STARTCHAR f
ENCODING 102
SWIDTH 358 0
DWIDTH 6 0
BBX 6 14 0 0
BITMAP
1C
3C
70
70
FC
FC
70
70
70
70
70
70
70
70
ENDCHAR
STARTCHAR g
ENCODING 103
SWIDTH 570 0
DWIDTH 10 0
BBX 9 14 0 -4
BITMAP
3D80
7F80
7380
6180
E180
E180
6180
7380
7F80
3D80
0380
2380
7F00
3E00
ENDCHAR
STARTCHAR h
ENCODING 104
SWIDTH 559 0
DWIDTH 10 0
BBX 8 14 1 0
BITMAP
C0
C0
C0
C0
DE
FF
E7
C3
C3
C3
C3
C3
C3
C3
ENDCHAR
STARTCHAR i
ENCODING 105
SWIDTH 265 0
DWIDTH 5 0
BBX 3 14 1 0
BITMAP
E0
E0
E0
00
E0
E0
E0
E0
E0
E0
E0
E0
E0
E0
ENDCHAR
STARTCHAR j
ENCODING 106
SWIDTH 259 0
DWIDTH 5 0
BBX 5 18 -1 -4
BITMAP
38
38
38
00
38
38
38
38
38
38
38
38
38
38
38
38
F0
E0
ENDCHAR
STARTCHAR k
ENCODING 107
SWIDTH 534 0
DWIDTH 10 0
BBX 9 14 1 0
BITMAP
E000
E000
E000
E000
E780
EE00
FC00
FC00
F800
FC00
EE00
EE00
E700
E380
ENDCHAR
STARTCHAR l
ENCODING 108
SWIDTH 265 0
DWIDTH 5 0
BBX 3 14 1 0
BITMAP
E0
E0
E0
E0
E0
E0
E0
E0
E0
E0
E0
E0
E0
E0
ENDCHAR
STARTCHAR m
ENCODING 109
SWIDTH 865 0
DWIDTH 16 0
BBX 14 10 1 0
BITMAP
EE78
FFF8
E79C
E31C
E31C
E31C
E31C
E31C
E31C
E31C
ENDCHAR
STARTCHAR n
ENCODING 110
SWIDTH 560 0
DWIDTH 10 0
BBX 8 10 1 0
BITMAP
DE
FF
E7
C3
C3
C3
C3
C3
C3
C3
ENDCHAR
STARTCHAR o
ENCODING 111
SWIDTH 565 0
DWIDTH 10 0
BBX 10 10 0 0
BITMAP
1E00
3F00
7380
6180
E180
E1C0
6180
7380
3F00
1E00
ENDCHAR
STARTCHAR p
ENCODING 112
SWIDTH 562 0
DWIDTH 10 0
BBX 8 14 1 -4
BITMAP
DE
FF
E7
C3
C3
C3
C3
E7
FF
DE
C0
C0
C0
C0
ENDCHAR
STARTCHAR q
ENCODING 113
SWIDTH 564 0
DWIDTH 10 0
BBX 9 14 0 -4
BITMAP
3D80
7F80
7380
6180
6180
E180
6180
7380
7F80
3D80
0180
0180
0180
0180
ENDCHAR
STARTCHAR r
ENCODING 114
SWIDTH 364 0
DWIDTH 7 0
BBX 6 10 1 0
BITMAP
FC
FC
E0
E0
E0
E0
E0
E0
E0
E0
ENDCHAR
STARTCHAR s
ENCODING 115
SWIDTH 514 0
DWIDTH 9 0
BBX 8 10 0 0
BITMAP
3E
7F
63
60
7E
1F
03
E3
7F
3E
ENDCHAR
STARTCHAR t
ENCODING 116
SWIDTH 337 0
DWIDTH 6 0
BBX 6 12 0 0
BITMAP
70
70
FC
FC
70
70
70
70
70
70
3C
3C
ENDCHAR
STARTCHAR u
ENCODING 117
SWIDTH 559 0
DWIDTH 10 0
BBX 8 10 1 0
BITMAP
C3
C3
C3
C3
C3
C3
C3
E7
FF
7B
ENDCHAR
STARTCHAR v
ENCODING 118
SWIDTH 505 0
DWIDTH 9 0
BBX 9 10 0 0
BITMAP
E380
6300
6300
7700
3600
3600
3600
3E00
1C00
1C00
ENDCHAR
STARTCHAR w
ENCODING 119
SWIDTH 734 0
DWIDTH 13 0
BBX 13 10 0 0
BITMAP
E738
6730
6730
6730
6DB0
7DF0
3DE0
38E0
38E0
38E0
ENDCHAR
STARTCHAR x
ENCODING 120
SWIDTH 508 0
DWIDTH 9 0
BBX 9 10 0 0
BITMAP
E380
7700
3700
3E00
1C00
1E00
3E00
3700
7700
E380
ENDCHAR
STARTCHAR y
ENCODING 121
SWIDTH 501 0
DWIDTH 9 0
BBX 9 14 0 -4
BITMAP
E380
6380
6300
7700
7700
3600
3E00
3E00
1C00
1C00
1C00
1800
7800
7000
ENDCHAR
STARTCHAR z
ENCODING 122
SWIDTH 508 0
DWIDTH 9 0
BBX 8 10 1 0
BITMAP
FE
FE
0E
1C
38
38
70
E0
FF
FF
ENDCHAR
STARTCHAR braceleft
ENCODING 123
SWIDTH 330 0
DWIDTH 6 0
BBX 6 17 0 -3
BITMAP
08
1C
38
30
30
30
30
30
E0
E0
30
30
30
30
30
18
0C
ENDCHAR
STARTCHAR bar
ENCODING 124
SWIDTH 252 0
DWIDTH 5 0
BBX 1 15 2 -2
BITMAP
80
80
80
80
80
80
80
80
80
80
80
80
80
80
80
ENDCHAR
STARTCHAR braceright
ENCODING 125
SWIDTH 330 0
DWIDTH 6 0
BBX 6 17 0 -3
BITMAP
40
E0
70
30
30
30
30
30
1C
1C
30
30
30
30
30
60
C0
ENDCHAR
STARTCHAR asciitilde
ENCODING 126
SWIDTH 648 0
DWIDTH 12 0
BBX 10 4 1 3
BITMAP
70C0
FCC0
CF80
C700
ENDCHAR
STARTCHAR uni00A0
ENCODING 160
SWIDTH 249 0
DWIDTH 4 0
BBX 1 1 0 0
BITMAP
00
ENDCHAR
STARTCHAR exclamdown
ENCODING 161
SWIDTH 282 0
DWIDTH 5 0
BBX 3 13 1 -3
BITMAP
E0
E0
E0
00
C0
C0
C0
C0
C0
C0
C0
C0
E0
ENDCHAR
STARTCHAR cent
ENCODING 162
SWIDTH 575 0
DWIDTH 10 0
BBX 8 14 1 -2
BITMAP
18
18
3C
7E
E7
C3
C0
C0
C0
E7
7E
3C
18
18
ENDCHAR
STARTCHAR sterling
ENCODING 163
SWIDTH 594 0
DWIDTH 11 0
BBX 9 13 1 0
BITMAP
1F00
3F80
3380
7180
7000
7000
FE00
FE00
7000
7000
7000
FF80
FF80
ENDCHAR
STARTCHAR currency
ENCODING 164
SWIDTH 692 0
DWIDTH 12 0
BBX 12 11 0 0
BITMAP
4F20
FFF0
30C0
6060
6060
4020
6060
6060
30C0
7FE0
CF30
ENDCHAR
STARTCHAR yen
ENCODING 165
SWIDTH 536 0
DWIDTH 10 0
BBX 10 13 0 0
BITMAP
E1C0
7380
7380
3300
3F00
1E00
7F80
7F80
0C00
7F80
7F80
0C00
0C00
ENDCHAR
STARTCHAR brokenbar
ENCODING 166
SWIDTH 251 0
DWIDTH 5 0
BBX 2 15 1 -2
BITMAP
C0
C0
C0
C0
C0
C0
C0
00
00
C0
C0
C0
C0
C0
C0
ENDCHAR
STARTCHAR section
ENCODING 167
SWIDTH 628 0
DWIDTH 11 0
BBX 9 17 1 -4
BITMAP
3E00
7F00
E380
C380
E000
7C00
FF00
C780
C180
F180
7F80
1F00
0380
C380
E380
FF00
3E00
ENDCHAR
STARTCHAR dieresis
ENCODING 168
SWIDTH 466 0
DWIDTH 8 0
BBX 7 2 1 11
BITMAP
CC
CE
ENDCHAR
STARTCHAR copyright
ENCODING 169
SWIDTH 784 0
DWIDTH 14 0
BBX 12 13 1 0
BITMAP
0F00
30C0
4020
CF20
9990
9010
9010
9010
9990
CF20
4060
30C0
1F00
ENDCHAR
STARTCHAR ordfeminine
ENCODING 170
SWIDTH 443 0
DWIDTH 8 0
BBX 6 7 1 6
BITMAP
78
F8
0C
7C
CC
FC
7C
ENDCHAR
STARTCHAR guillemotleft
ENCODING 171
SWIDTH 499 0
DWIDTH 9 0
BBX 7 7 1 1
BITMAP
36
6C
CC
D8
CC
6C
36
ENDCHAR
STARTCHAR logicalnot
ENCODING 172
SWIDTH 551 0
DWIDTH 10 0
BBX 7 4 1 3
BITMAP
FE
FE
02
02
ENDCHAR
STARTCHAR uni00AD
ENCODING 173
SWIDTH 387 0
DWIDTH 7 0
BBX 5 2 1 5
BITMAP
F8
F8
ENDCHAR
STARTCHAR registered
ENCODING 174
SWIDTH 784 0
DWIDTH 14 0
BBX 12 13 1 0
BITMAP
0F00
30C0
4020
DF30
9990
9990
9F10
9990
9990
D9B0
4020
30C0
0F00
ENDCHAR
STARTCHAR macron
ENCODING 175
SWIDTH 500 0
DWIDTH 9 0
BBX 7 2 1 11
BITMAP
FE
FE
ENDCHAR
STARTCHAR degree
ENCODING 176
SWIDTH 388 0
DWIDTH 7 0
BBX 5 6 1 7
BITMAP
70
F8
D8
D8
F8
70
ENDCHAR
STARTCHAR plusminus
ENCODING 177
SWIDTH 537 0
DWIDTH 10 0
BBX 8 11 1 0
BITMAP
18
18
18
FF
FF
18
18
18
00
FF
FF
ENDCHAR
STARTCHAR uni00B2
ENCODING 178
SWIDTH 372 0
DWIDTH 7 0
BBX 5 7 1 6
BITMAP
70
F8
18
38
60
F8
F8
ENDCHAR
STARTCHAR uni00B3
ENCODING 179
SWIDTH 372 0
DWIDTH 7 0
BBX 5 7 1 6
BITMAP
70
F8
18
30
18
F8
F0
ENDCHAR
STARTCHAR acute
ENCODING 180
SWIDTH 331 0
DWIDTH 6 0
BBX 4 3 1 11
BITMAP
70
60
C0
ENDCHAR
STARTCHAR mu
ENCODING 181
SWIDTH 615 0
DWIDTH 11 0
BBX 9 14 1 -4
BITMAP
E380
E380
E380
E380
E380
E380
E380
E380
FF80
FF80
E000
E000
E000
E000
ENDCHAR
STARTCHAR paragraph
ENCODING 182
SWIDTH 489 0
DWIDTH 9 0
BBX 7 13 1 0
BITMAP
3E
7E
FE
FE
FE
FE
FE
7E
06
06
06
06
06
ENDCHAR
STARTCHAR periodcentered
ENCODING 183
SWIDTH 301 0
DWIDTH 5 0
BBX 3 3 1 4
BITMAP
E0
E0
E0
ENDCHAR
STARTCHAR cedilla
ENCODING 184
SWIDTH 267 0
DWIDTH 5 0
BBX 3 4 1 -4
BITMAP
C0
60
60
E0
ENDCHAR
STARTCHAR uni00B9
ENCODING 185
SWIDTH 372 0
DWIDTH 7 0
BBX 4 7 1 6
BITMAP
30
F0
F0
30
30
30
30
ENDCHAR
STARTCHAR ordmasculine
ENCODING 186
SWIDTH 457 0
DWIDTH 8 0
BBX 6 7 1 6
BITMAP
78
FC
CC
C4
CC
FC
78
ENDCHAR
STARTCHAR guillemotright
ENCODING 187
SWIDTH 499 0
DWIDTH 9 0
BBX 7 7 1 1
BITMAP
D8
4C
66
36
66
4C
D8
ENDCHAR
STARTCHAR onequarter
ENCODING 188
SWIDTH 717 0
DWIDTH 13 0
BBX 11 13 1 0
BITMAP
2000
E080
E180
2100
2300
2600
24C0
0CC0
1940
1B40
37E0
23E0
0040
ENDCHAR
STARTCHAR onehalf
ENCODING 189
SWIDTH 761 0
DWIDTH 14 0
BBX 12 13 1 0
BITMAP
6000
E180
E100
6300
6200
6600
6CE0
09F0
1830
1060
30C0
61F0
01F0
ENDCHAR
STARTCHAR threequarters
ENCODING 190
SWIDTH 808 0
DWIDTH 15 0
BBX 13 13 1 0
BITMAP
7800
F840
0C60
30C0
0D80
FD00
7B30
0270
06F0
0CB0
09F8
19F8
0030
ENDCHAR
STARTCHAR questiondown
ENCODING 191
SWIDTH 497 0
DWIDTH 9 0
BBX 8 13 1 -3
BITMAP
18
38
18
00
18
38
70
E0
C0
C7
C6
FE
7C
ENDCHAR
STARTCHAR Agrave
ENCODING 192
SWIDTH 672 0
DWIDTH 12 0
BBX 12 17 0 0
BITMAP
1C00
0C00
0600
0000
0600
0F00
0F00
0F80
1F80
1980
39C0
39C0
3FC0
7FE0
7060
6070
E070
ENDCHAR
STARTCHAR Aacute
ENCODING 193
SWIDTH 672 0
DWIDTH 12 0
BBX 12 17 0 0
BITMAP
0380
0300
0600
0000
0600
0F00
0F00
0F80
1F80
1980
39C0
39C0
3FC0
7FE0
7060
6070
E070
ENDCHAR
STARTCHAR Acircumflex
ENCODING 194
SWIDTH 672 0
DWIDTH 12 0
BBX 12 17 0 0
BITMAP
0600
0F00
1980
0000
0600
0F00
0F00
0F80
1F80
1980
39C0
39C0
3FC0
7FE0
7060
6070
E070
ENDCHAR
STARTCHAR Atilde
ENCODING 195
SWIDTH 672 0
DWIDTH 12 0
BBX 12 17 0 0
BITMAP
0C80
1F80
1380
0000
0600
0F00
0F00
0F80
1F80
1980
39C0
39C0
3FC0
7FE0
7060
6070
E070
ENDCHAR
STARTCHAR Adieresis
ENCODING 196
SWIDTH 672 0
DWIDTH 12 0
BBX 12 16 0 0
BITMAP
1980
1980
0000
0600
0F00
0F00
0F80
1F80
1980
39C0
39C0
3FC0
7FE0
7060
6070
E070
ENDCHAR
STARTCHAR Aring
ENCODING 197
SWIDTH 672 0
DWIDTH 12 0
BBX 12 18 0 0
BITMAP
0600
0900
0900
0600
0000
0600
0F00
0F00
0F80
1F80
1980
39C0
39C0
3FC0
7FE0
7060
6070
E070
ENDCHAR
STARTCHAR AE
ENCODING 198
SWIDTH 939 0
DWIDTH 17 0
BBX 16 13 0 0
BITMAP
01FF
03FF
03E0
07E0
06E0
0EFE
1CFE
1CE0
3FE0
3FE0
70E0
70FF
E0FF
ENDCHAR
STARTCHAR Ccedilla
ENCODING 199
SWIDTH 654 0
DWIDTH 12 0
BBX 10 17 1 -4
BITMAP
1F00
7F80
71C0
E1C0
E0C0
C000
C000
C000
E000
E1C0
61C0
7F80
1F00
0C00
0600
0600
0C00
ENDCHAR
STARTCHAR Egrave
ENCODING 200
SWIDTH 562 0
DWIDTH 10 0
BBX 9 17 1 0
BITMAP
7000
1800
1C00
0000
FF80
FF80
E000
E000
E000
FF00
FF00
E000
E000
E000
E000
FF80
FF80
ENDCHAR
STARTCHAR Eacute
ENCODING 201
SWIDTH 562 0
DWIDTH 10 0
BBX 9 17 1 0
BITMAP
0700
0E00
1C00
0000
FF80
FF80
E000
E000
E000
FF00
FF00
E000
E000
E000
E000
FF80
FF80
ENDCHAR
STARTCHAR Ecircumflex
ENCODING 202
SWIDTH 562 0
DWIDTH 10 0
BBX 9 17 1 0
BITMAP
1C00
3E00
7700
0000
FF80
FF80
E000
E000
E000
FF00
FF00
E000
E000
E000
E000
FF80
FF80
ENDCHAR
STARTCHAR Edieresis
ENCODING 203
SWIDTH 562 0
DWIDTH 10 0
BBX 9 16 1 0
BITMAP
6300
7700
0000
FF80
FF80
E000
E000
E000
FF00
FF00
E000
E000
E000
E000
FF80
FF80
ENDCHAR
STARTCHAR Igrave
ENCODING 204
SWIDTH 291 0
DWIDTH 5 0
BBX 5 17 -1 0
BITMAP
E0
30
38
00
38
38
38
38
38
38
38
38
38
38
38
38
38
ENDCHAR
STARTCHAR Iacute
ENCODING 205
SWIDTH 291 0
DWIDTH 5 0
BBX 5 17 1 0
BITMAP
38
70
E0
00
E0
E0
E0
E0
E0
E0
E0
E0
E0
E0
E0
E0
E0
ENDCHAR
STARTCHAR Icircumflex
ENCODING 206
SWIDTH 291 0
DWIDTH 5 0
BBX 7 17 -1 0
BITMAP
38
7C
E6
00
38
38
38
38
38
38
38
38
38
38
38
38
38
ENDCHAR
STARTCHAR Idieresis
ENCODING 207
SWIDTH 291 0
DWIDTH 5 0
BBX 7 16 -1 0
BITMAP
E6
E6
00
38
38
38
38
38
38
38
38
38
38
38
38
38
ENDCHAR
STARTCHAR Eth
ENCODING 208
SWIDTH 664 0
DWIDTH 12 0
BBX 11 13 0 0
BITMAP
7F00
7F80
71C0
70E0
70E0
FCE0
FC60
70E0
70E0
70E0
71C0
7F80
7F00
ENDCHAR
STARTCHAR Ntilde
ENCODING 209
SWIDTH 706 0
DWIDTH 13 0
BBX 11 17 1 0
BITMAP
1980
3F00
3700
0000
E0E0
F0E0
F0E0
F8E0
FCE0
ECE0
EEE0
E6E0
E7E0
E3E0
E1E0
E1E0
E0E0
ENDCHAR
STARTCHAR Ograve
ENCODING 210
SWIDTH 690 0
DWIDTH 12 0
BBX 10 17 1 0
BITMAP
3800
1C00
0C00
0000
1E00
7F80
E1C0
E1C0
C0C0
C0C0
C0C0
C0C0
C0C0
E1C0
E1C0
7F80
1E00
ENDCHAR
STARTCHAR Oacute
ENCODING 211
SWIDTH 690 0
DWIDTH 12 0
BBX 10 17 1 0
BITMAP
0700
0600
0C00
0000
1E00
7F80
E1C0
E1C0
C0C0
C0C0
C0C0
C0C0
C0C0
E1C0
E1C0
7F80
1E00
ENDCHAR
STARTCHAR Ocircumflex
ENCODING 212
SWIDTH 690 0
DWIDTH 12 0
BBX 10 17 1 0
BITMAP
0C00
1F00
3380
0000
1E00
7F80
E1C0
E1C0
C0C0
C0C0
C0C0
C0C0
C0C0
E1C0
E1C0
7F80
1E00
ENDCHAR
STARTCHAR Otilde
ENCODING 213
SWIDTH 690 0
DWIDTH 12 0
BBX 10 17 1 0
BITMAP
1980
3F00
2700
0000
1E00
7F80
E1C0
E1C0
C0C0
C0C0
C0C0
C0C0
C0C0
E1C0
E1C0
7F80
1E00
ENDCHAR
STARTCHAR Odieresis
ENCODING 214
SWIDTH 690 0
DWIDTH 12 0
BBX 10 16 1 0
BITMAP
3300
3380
0000
1E00
7F80
E1C0
E1C0
C0C0
C0C0
C0C0
C0C0
C0C0
E1C0
E1C0
7F80
1E00
ENDCHAR
STARTCHAR multiply
ENCODING 215
SWIDTH 531 0
DWIDTH 10 0
BBX 8 8 1 2
BITMAP
42
E7
7E
3C
3C
7E
E7
42
ENDCHAR
STARTCHAR Oslash
ENCODING 216
SWIDTH 688 0
DWIDTH 12 0
BBX 11 14 1 -1
BITMAP
1FC0
7F80
71C0
E3C0
E2E0
E6E0
C4E0
ECE0
F8E0
F0C0
71C0
7F80
7F00
C000
ENDCHAR
STARTCHAR Ugrave
ENCODING 217
SWIDTH 658 0
DWIDTH 12 0
BBX 10 17 1 0
BITMAP
3800
1800
0C00
0000
E1C0
E1C0
E1C0
E1C0
E1C0
E1C0
E1C0
E1C0
E1C0
E1C0
E1C0
7F80
3F00
ENDCHAR
STARTCHAR Uacute
ENCODING 218
SWIDTH 658 0
DWIDTH 12 0
BBX 10 17 1 0
BITMAP
0700
0E00
0C00
0000
E1C0
E1C0
E1C0
E1C0
E1C0
E1C0
E1C0
E1C0
E1C0
E1C0
E1C0
7F80
3F00
ENDCHAR
STARTCHAR Ucircumflex
ENCODING 219
SWIDTH 658 0
DWIDTH 12 0
BBX 10 17 1 0
BITMAP
0C00
3E00
3300
0000
E1C0
E1C0
E1C0
E1C0
E1C0
E1C0
E1C0
E1C0
E1C0
E1C0
E1C0
7F80
3F00
ENDCHAR
STARTCHAR Udieresis
ENCODING 220
SWIDTH 658 0
DWIDTH 12 0
BBX 10 16 1 0
BITMAP
3300
3300
0000
E1C0
E1C0
E1C0
E1C0
E1C0
E1C0
E1C0
E1C0
E1C0
E1C0
E1C0
7F80
3F00
ENDCHAR
STARTCHAR Yacute
ENCODING 221
SWIDTH 618 0
DWIDTH 11 0
BBX 11 17 0 0
BITMAP
0380
0700
0E00
0000
E0E0
70C0
71C0
3180
3B80
1B00
1F00
0E00
0E00
0E00
0E00
0E00
0E00
ENDCHAR
STARTCHAR Thorn
ENCODING 222
SWIDTH 608 0
DWIDTH 11 0
BBX 9 13 1 0
BITMAP
E000
E000
FE00
FF80
E380
E180
E180
E380
FF80
FE00
E000
E000
E000
ENDCHAR
STARTCHAR germandbls
ENCODING 223
SWIDTH 630 0
DWIDTH 11 0
BBX 10 14 1 0
BITMAP
3C00
7E00
E700
E700
E700
E600
EE00
E700
E780
E380
E1C0
E1C0
FF80
FF00
ENDCHAR
STARTCHAR agrave
ENCODING 224
SWIDTH 536 0
DWIDTH 10 0
BBX 8 14 1 0
BITMAP
70
30
18
00
3C
FE
C7
07
7F
FF
C7
C7
FF
7F
ENDCHAR
STARTCHAR aacute
ENCODING 225
SWIDTH 536 0
DWIDTH 10 0
BBX 8 14 1 0
BITMAP
0E
1C
18
00
3C
FE
C7
07
7F
FF
C7
C7
FF
7F
ENDCHAR
STARTCHAR acircumflex
ENCODING 226
SWIDTH 536 0
DWIDTH 10 0
BBX 8 14 1 0
BITMAP
18
7C
E6
00
3C
FE
C7
07
7F
FF
C7
C7
FF
7F
ENDCHAR
STARTCHAR atilde
ENCODING 227
SWIDTH 536 0
DWIDTH 10 0
BBX 8 14 1 0
BITMAP
72
7E
4C
00
3C
FE
C7
07
7F
FF
C7
C7
FF
7F
ENDCHAR
STARTCHAR adieresis
ENCODING 228
SWIDTH 536 0
DWIDTH 10 0
BBX 8 13 1 0
BITMAP
66
E6
00
3C
FE
C7
07
7F
FF
C7
C7
FF
7F
ENDCHAR
STARTCHAR aring
ENCODING 229
SWIDTH 536 0
DWIDTH 10 0
BBX 8 15 1 0
BITMAP
18
24
24
18
00
3C
FE
C7
07
7F
FF
C7
C7
FF
7F
ENDCHAR
STARTCHAR ae
ENCODING 230
SWIDTH 844 0
DWIDTH 15 0
BBX 15 10 0 0
BITMAP
1EF8
7FFC
738C
038E
3FFE
7FFE
6380
E3C4
7FFC
3C78
ENDCHAR
STARTCHAR ccedilla
ENCODING 231
SWIDTH 521 0
DWIDTH 9 0
BBX 9 14 0 -4
BITMAP
1E00
7F00
7380
6380
E000
E000
6380
6380
7F00
1E00
0C00
0E00
0600
0C00
ENDCHAR
STARTCHAR egrave
ENCODING 232
SWIDTH 540 0
DWIDTH 10 0
BBX 8 14 1 0
BITMAP
70
30
18
00
3C
7E
E7
C3
FF
FF
C0
E2
7F
3E
ENDCHAR
STARTCHAR eacute
ENCODING 233
SWIDTH 540 0
DWIDTH 10 0
BBX 8 14 1 0
BITMAP
0E
1C
18
00
3C
7E
E7
C3
FF
FF
C0
E2
7F
3E
ENDCHAR
STARTCHAR ecircumflex
ENCODING 234
SWIDTH 540 0
DWIDTH 10 0
BBX 8 14 1 0
BITMAP
38
7C
E6
00
3C
7E
E7
C3
FF
FF
C0
E2
7F
3E
ENDCHAR
STARTCHAR edieresis
ENCODING 235
SWIDTH 540 0
DWIDTH 10 0
BBX 8 13 1 0
BITMAP
66
E6
00
3C
7E
E7
C3
FF
FF
C0
E2
7F
3E
ENDCHAR
STARTCHAR igrave
ENCODING 236
SWIDTH 273 0
DWIDTH 5 0
BBX 5 14 -1 0
BITMAP
E0
70
30
08
38
38
38
38
38
38
38
38
38
38
ENDCHAR
STARTCHAR iacute
ENCODING 237
SWIDTH 273 0
DWIDTH 5 0
BBX 5 14 1 0
BITMAP
38
70
E0
00
E0
E0
E0
E0
E0
E0
E0
E0
E0
E0
ENDCHAR
STARTCHAR icircumflex
ENCODING 238
SWIDTH 273 0
DWIDTH 5 0
BBX 7 14 -1 0
BITMAP
38
7C
EE
00
38
38
38
38
38
38
38
38
38
38
ENDCHAR
STARTCHAR idieresis
ENCODING 239
SWIDTH 273 0
DWIDTH 5 0
BBX 7 13 -1 0
BITMAP
C6
EE
00
38
38
38
38
38
38
38
38
38
38
ENDCHAR
STARTCHAR eth
ENCODING 240
SWIDTH 575 0
DWIDTH 10 0
BBX 9 14 1 0
BITMAP
6000
7E00
3D00
1E00
3700
0700
7B00
FF80
E380
C380
C300
E700
FE00
3C00
ENDCHAR
STARTCHAR ntilde
ENCODING 241
SWIDTH 560 0
DWIDTH 10 0
BBX 8 14 1 0
BITMAP
32
7E
4C
00
DE
FF
E7
C3
C3
C3
C3
C3
C3
C3
ENDCHAR
STARTCHAR ograve
ENCODING 242
SWIDTH 565 0
DWIDTH 10 0
BBX 10 14 0 0
BITMAP
3800
1800
0C00
0000
1E00
3F00
7380
6180
E180
E1C0
6180
7380
3F00
1E00
ENDCHAR
STARTCHAR oacute
ENCODING 243
SWIDTH 565 0
DWIDTH 10 0
BBX 10 14 0 0
BITMAP
0700
0600
0C00
0000
1E00
3F00
7380
6180
E180
E1C0
6180
7380
3F00
1E00
ENDCHAR
STARTCHAR ocircumflex
ENCODING 244
SWIDTH 565 0
DWIDTH 10 0
BBX 10 14 0 0
BITMAP
0C00
1E00
3300
0000
1E00
3F00
7380
6180
E180
E1C0
6180
7380
3F00
1E00
ENDCHAR
STARTCHAR otilde
ENCODING 245
SWIDTH 565 0
DWIDTH 10 0
BBX 10 14 0 0
BITMAP
1900
3F00
2600
0000
1E00
3F00
7380
6180
E180
E1C0
6180
7380
3F00
1E00
ENDCHAR
STARTCHAR odieresis
ENCODING 246
SWIDTH 565 0
DWIDTH 10 0
BBX 10 13 0 0
BITMAP
3300
3300
0000
1E00
3F00
7380
6180
E180
E1C0
6180
7380
3F00
1E00
ENDCHAR
STARTCHAR divide
ENCODING 247
SWIDTH 570 0
DWIDTH 10 0
BBX 9 10 0 1
BITMAP
0C00
0C00
0C00
0000
FF80
FF80
0000
0C00
0C00
0C00
ENDCHAR
STARTCHAR oslash
ENCODING 248
SWIDTH 564 0
DWIDTH 10 0
BBX 10 12 0 -1
BITMAP
0180
1F00
3F00
7380
6580
E580
69C0
6980
7B80
3F00
3E00
6000
ENDCHAR
STARTCHAR ugrave
ENCODING 249
SWIDTH 559 0
DWIDTH 10 0
BBX 8 14 1 0
BITMAP
70
30
18
00
C3
C3
C3
C3
C3
C3
C3
E7
FF
7B
ENDCHAR
STARTCHAR uacute
ENCODING 250
SWIDTH 559 0
DWIDTH 10 0
BBX 8 14 1 0
BITMAP
0E
0C
18
00
C3
C3
C3
C3
C3
C3
C3
E7
FF
7B
ENDCHAR
STARTCHAR ucircumflex
ENCODING 251
SWIDTH 559 0
DWIDTH 10 0
BBX 8 14 1 0
BITMAP
18
3C
66
00
C3
C3
C3
C3
C3
C3
C3
E7
FF
7B
ENDCHAR
STARTCHAR udieresis
ENCODING 252
SWIDTH 559 0
DWIDTH 10 0
BBX 8 13 1 0
BITMAP
66
66
00
C3
C3
C3
C3
C3
C3
C3
E7
FF
7B
ENDCHAR
STARTCHAR yacute
ENCODING 253
SWIDTH 501 0
DWIDTH 9 0
BBX 9 18 0 -4
BITMAP
0700
0E00
1C00
0000
E380
6380
6300
7700
7700
3600
3E00
3E00
1C00
1C00
1C00
1800
7800
7000
ENDCHAR
STARTCHAR thorn
ENCODING 254
SWIDTH 567 0
DWIDTH 10 0
BBX 8 18 1 -4
BITMAP
C0
C0
C0
C0
DE
FF
E7
C3
C3
C3
C3
E7
FF
DE
C0
C0
C0
C0
ENDCHAR
STARTCHAR ydieresis
ENCODING 255
SWIDTH 501 0
DWIDTH 9 0
BBX 9 17 0 -4
BITMAP
6300
7700
0000
E380
6380
6300
7700
7700
3600
3E00
3E00
1C00
1C00
1C00
1800
7800
7000
ENDCHAR
STARTCHAR Amacron
ENCODING 256
SWIDTH 672 0
DWIDTH 12 0
BBX 12 16 0 0
BITMAP
1F80
1F80
0000
0600
0F00
0F00
0F80
1F80
1980
39C0
39C0
3FC0
7FE0
7060
6070
E070
ENDCHAR
STARTCHAR amacron
ENCODING 257
SWIDTH 536 0
DWIDTH 10 0
BBX 8 13 1 0
BITMAP
7E
7E
00
3C
FE
C7
07
7F
FF
C7
C7
FF
7F
ENDCHAR
STARTCHAR Abreve
ENCODING 258
SWIDTH 672 0
DWIDTH 12 0
BBX 12 17 0 0
BITMAP
1980
1F80
0F00
0000
0600
0F00
0F00
0F80
1F80
1980
39C0
39C0
3FC0
7FE0
7060
6070
E070
ENDCHAR
STARTCHAR abreve
ENCODING 259
SWIDTH 536 0
DWIDTH 10 0
BBX 8 14 1 0
BITMAP
66
7E
3C
00
3C
FE
C7
07
7F
FF
C7
C7
FF
7F
ENDCHAR
STARTCHAR Aogonek
ENCODING 260
SWIDTH 672 0
DWIDTH 12 0
BBX 12 17 0 -4
BITMAP
0600
0F00
0F00
1F00
1F80
1980
39C0
39C0
3FC0
7FE0
70E0
6060
E070
0040
00C0
00E0
0060
ENDCHAR
STARTCHAR aogonek
ENCODING 261
SWIDTH 536 0
DWIDTH 10 0
BBX 8 14 1 -4
BITMAP
3C
FE
E7
07
7F
FF
E7
C7
FF
7F
06
04
07
07
ENDCHAR
STARTCHAR Cacute
ENCODING 262
SWIDTH 654 0
DWIDTH 12 0
BBX 10 17 1 0
BITMAP
0700
0600
0C00
0000
1F00
7F80
71C0
E1C0
E0C0
C000
C000
C000
E000
E1C0
61C0
7F80
1F00
ENDCHAR
STARTCHAR cacute
ENCODING 263
SWIDTH 521 0
DWIDTH 9 0
BBX 9 14 0 0
BITMAP
0700
0E00
1C00
0000
1E00
7F00
7380
6380
E000
E000
6380
6380
7F00
1E00
ENDCHAR
STARTCHAR Ccircumflex
ENCODING 264
SWIDTH 654 0
DWIDTH 12 0
BBX 10 17 1 0
BITMAP
0C00
1E00
3300
0000
1F00
7F80
71C0
E1C0
E0C0
C000
C000
C000
E000
E1C0
61C0
7F80
1F00
ENDCHAR
STARTCHAR ccircumflex
ENCODING 265
SWIDTH 521 0
DWIDTH 9 0
BBX 9 14 0 0
BITMAP
1C00
3E00
7300
0000
1E00
7F00
7380
6380
E000
E000
6380
6380
7F00
1E00
ENDCHAR
STARTCHAR Cdotaccent
ENCODING 266
SWIDTH 654 0
DWIDTH 12 0
BBX 10 16 1 0
BITMAP
0C00
0C00
0000
1F00
7F80
71C0
E1C0
E0C0
C000
C000
C000
E000
E1C0
61C0
7F80
1F00
ENDCHAR
STARTCHAR cdotaccent
ENCODING 267
SWIDTH 521 0
DWIDTH 9 0
BBX 9 13 0 0
BITMAP
0C00
1C00
0000
1E00
7F00
7380
6380
E000
E000
6380
6380
7F00
1E00
ENDCHAR
STARTCHAR Ccaron
ENCODING 268
SWIDTH 654 0
DWIDTH 12 0
BBX 10 17 1 0
BITMAP
3380
1E00
0C00
0000
1F00
7F80
71C0
E1C0
E0C0
C000
C000
C000
E000
E1C0
61C0
7F80
1F00
ENDCHAR
STARTCHAR ccaron
ENCODING 269
SWIDTH 521 0
DWIDTH 9 0
BBX 9 14 0 0
BITMAP
7300
1E00
1C00
0000
1E00
7F00
7380
6380
E000
E000
6380
6380
7F00
1E00
ENDCHAR
STARTCHAR Dcaron
ENCODING 270
SWIDTH 649 0
DWIDTH 12 0
BBX 10 17 1 0
BITMAP
EE00
7C00
3800
0000
FE00
FF00
E380
E180
E1C0
E1C0
E1C0
E1C0
E1C0
E180
E380
FF00
FE00
ENDCHAR
STARTCHAR dcaron
ENCODING 271
SWIDTH 636 0
DWIDTH 11 0
BBX 12 14 0 0
BITMAP
0180
01B0
01B0
01B0
3DA0
7F80
7380
6180
6180
E180
6180
7380
7F80
3D80
ENDCHAR
STARTCHAR Dcroat
ENCODING 272
SWIDTH 664 0
DWIDTH 12 0
BBX 11 13 0 0
BITMAP
7F00
7F80
71C0
70E0
70E0
FCE0
FC60
70E0
70E0
70E0
71C0
7F80
7F00
ENDCHAR
STARTCHAR dcroat
ENCODING 273
SWIDTH 630 0
DWIDTH 11 0
BBX 10 14 0 0
BITMAP
0380
0FC0
0FC0
0380
3F80
7F80
7380
6380
E380
E380
6380
7380
7F80
3D80
ENDCHAR
STARTCHAR Emacron
ENCODING 274
SWIDTH 562 0
DWIDTH 10 0
BBX 9 16 1 0
BITMAP
3F00
3F00
0000
FF80
FF80
E000
E000
E000
FF00
FF00
E000
E000
E000
E000
FF80
FF80
ENDCHAR
STARTCHAR emacron
ENCODING 275
SWIDTH 540 0
DWIDTH 10 0
BBX 8 13 1 0
BITMAP
7E
7E
00
3C
7E
E7
C3
FF
FF
C0
E2
7F
3E
ENDCHAR
STARTCHAR Ebreve
ENCODING 276
SWIDTH 562 0
DWIDTH 10 0
BBX 9 17 1 0
BITMAP
2300
3E00
1C00
0000
FF80
FF80
E000
E000
E000
FF00
FF00
E000
E000
E000
E000
FF80
FF80
ENDCHAR
STARTCHAR ebreve
ENCODING 277
SWIDTH 540 0
DWIDTH 10 0
BBX 8 14 1 0
BITMAP
66
7E
3C
00
3C
7E
E7
C3
FF
FF
C0
E2
7F
3E
ENDCHAR
STARTCHAR Edotaccent
ENCODING 278
SWIDTH 562 0
DWIDTH 10 0
BBX 9 16 1 0
BITMAP
1C00
1C00
0000
FF80
FF80
E000
E000
E000
FF00
FF00
E000
E000
E000
E000
FF80
FF80
ENDCHAR
STARTCHAR edotaccent
ENCODING 279
SWIDTH 540 0
DWIDTH 10 0
BBX 8 13 1 0
BITMAP
18
38
00
3C
7E
E7
C3
FF
FF
C0
E2
7F
3E
ENDCHAR
STARTCHAR Eogonek
ENCODING 280
SWIDTH 562 0
DWIDTH 10 0
BBX 9 17 1 -4
BITMAP
FF80
FF80
E000
E000
E000
FF00
FF00
E000
E000
E000
E000
FF80
FF80
0600
0C00
0E00
0700
ENDCHAR
STARTCHAR eogonek
ENCODING 281
SWIDTH 540 0
DWIDTH 10 0
BBX 8 13 1 -3
BITMAP
3C
7E
E7
C3
FF
FF
C0
E2
7F
3E
08
1E
0E
ENDCHAR
STARTCHAR Ecaron
ENCODING 282
SWIDTH 562 0
DWIDTH 10 0
BBX 9 17 1 0
BITMAP
7700
3E00
1C00
0000
FF80
FF80
E000
E000
E000
FF00
FF00
E000
E000
E000
E000
FF80
FF80
ENDCHAR
STARTCHAR ecaron
ENCODING 283
SWIDTH 540 0
DWIDTH 10 0
BBX 8 14 1 0
BITMAP
E6
3C
18
00
3C
7E
E7
C3
FF
FF
C0
E2
7F
3E
ENDCHAR
STARTCHAR Gcircumflex
ENCODING 284
SWIDTH 681 0
DWIDTH 12 0
BBX 10 17 1 0
BITMAP
0C00
1F00
3300
0000
1F00
7F80
71C0
E1C0
E000
C000
C7C0
C7C0
E1C0
E1C0
71C0
7FC0
1F00
ENDCHAR
STARTCHAR gcircumflex
ENCODING 285
SWIDTH 570 0
DWIDTH 10 0
BBX 9 18 0 -4
BITMAP
0C00
3E00
3300
0000
3D80
7F80
7380
6180
E180
E180
6180
7380
7F80
3D80
0380
2380
7F00
3E00
ENDCHAR
STARTCHAR Gbreve
ENCODING 286
SWIDTH 681 0
DWIDTH 12 0
BBX 10 17 1 0
BITMAP
3300
3F00
1E00
0000
1F00
7F80
71C0
E1C0
E000
C000
C7C0
C7C0
E1C0
E1C0
71C0
7FC0
1F00
ENDCHAR
STARTCHAR gbreve
ENCODING 287
SWIDTH 570 0
DWIDTH 10 0
BBX 9 18 0 -4
BITMAP
3300
3F00
1E00
0000
3D80
7F80
7380
6180
E180
E180
6180
7380
7F80
3D80
0380
2380
7F00
3E00
ENDCHAR
STARTCHAR Gdotaccent
ENCODING 288
SWIDTH 681 0
DWIDTH 12 0
BBX 10 16 1 0
BITMAP
0C00
0C00
0000
1F00
7F80
71C0
E1C0
E000
C000
C7C0
C7C0
E1C0
E1C0
71C0
7FC0
1F00
ENDCHAR
STARTCHAR gdotaccent
ENCODING 289
SWIDTH 570 0
DWIDTH 10 0
BBX 9 17 0 -4
BITMAP
0C00
0C00
0000
3D80
7F80
7380
6180
E180
E180
6180
7380
7F80
3D80
0380
2380
7F00
3E00
ENDCHAR
STARTCHAR uni0122
ENCODING 290
SWIDTH 681 0
DWIDTH 12 0
BBX 10 18 1 -5
BITMAP
1F00
7F80
71C0
E1C0
E000
C000
C7C0
C7C0
E1C0
E1C0
71C0
7FC0
1F00
0000
0C00
0C00
0C00
0800
ENDCHAR
STARTCHAR uni0123
ENCODING 291
SWIDTH 570 0
DWIDTH 10 0
BBX 9 19 0 -4
BITMAP
0400
0C00
0C00
0C00
0000
3D80
7F80
7380
6180
E180
E180
6180
7380
7F80
3D80
0380
2380
7F00
3E00
ENDCHAR
STARTCHAR Hcircumflex
ENCODING 292
SWIDTH 706 0
DWIDTH 13 0
BBX 11 17 1 0
BITMAP
0E00
1F00
3380
0000
E0E0
E0E0
E0E0
E0E0
E0E0
FFE0
FFE0
E0E0
E0E0
E0E0
E0E0
E0E0
E0E0
ENDCHAR
STARTCHAR hcircumflex
ENCODING 293
SWIDTH 559 0
DWIDTH 10 0
BBX 8 18 1 0
BITMAP
38
7C
E6
00
C0
C0
C0
C0
DE
FF
E7
C3
C3
C3
C3
C3
C3
C3
ENDCHAR
STARTCHAR Hbar
ENCODING 294
SWIDTH 719 0
DWIDTH 13 0
BBX 13 13 0 0
BITMAP
7070
7070
FFF8
FFF8
7070
7FF0
7FF0
7070
7070
7070
7070
7070
7070
ENDCHAR
STARTCHAR hbar
ENCODING 295
SWIDTH 574 0
DWIDTH 10 0
BBX 10 14 -1 0
BITMAP
3800
FE00
FE00
3800
3F80
3FC0
39C0
38C0
38C0
38C0
38C0
38C0
38C0
38C0
ENDCHAR
STARTCHAR Itilde
ENCODING 296
SWIDTH 291 0
DWIDTH 5 0
BBX 7 17 -1 0
BITMAP
76
7E
CC
00
38
38
38
38
38
38
38
38
38
38
38
38
38
ENDCHAR
STARTCHAR itilde
ENCODING 297
SWIDTH 273 0
DWIDTH 5 0
BBX 7 14 -1 0
BITMAP
66
FE
CC
00
38
38
38
38
38
38
38
38
38
38
ENDCHAR
STARTCHAR Imacron
ENCODING 298
SWIDTH 291 0
DWIDTH 5 0
BBX 6 16 0 0
BITMAP
FC
FC
00
70
70
70
70
70
70
70
70
70
70
70
70
70
ENDCHAR
STARTCHAR imacron
ENCODING 299
SWIDTH 273 0
DWIDTH 5 0
BBX 7 13 -1 0
BITMAP
FE
FE
00
38
38
38
38
38
38
38
38
38
38
ENDCHAR
STARTCHAR Ibreve
ENCODING 300
SWIDTH 291 0
DWIDTH 5 0
BBX 6 17 0 0
BITMAP
CC
F8
70
00
70
70
70
70
70
70
70
70
70
70
70
70
70
ENDCHAR
STARTCHAR ibreve
ENCODING 301
SWIDTH 273 0
DWIDTH 5 0
BBX 7 14 -1 0
BITMAP
C6
7C
38
00
38
38
38
38
38
38
38
38
38
38
ENDCHAR
STARTCHAR Iogonek
ENCODING 302
SWIDTH 291 0
DWIDTH 5 0
BBX 4 17 0 -4
BITMAP
70
70
70
70
70
70
70
70
70
70
70
70
70
60
C0
E0
70
ENDCHAR
STARTCHAR iogonek
ENCODING 303
SWIDTH 265 0
DWIDTH 5 0
BBX 4 18 0 -4
BITMAP
70
70
70
00
70
70
70
70
70
70
70
70
70
70
C0
C0
E0
60
ENDCHAR
STARTCHAR Idotaccent
ENCODING 304
SWIDTH 291 0
DWIDTH 5 0
BBX 3 16 1 0
BITMAP
E0
E0
00
E0
E0
E0
E0
E0
E0
E0
E0
E0
E0
E0
E0
E0
ENDCHAR
STARTCHAR dotlessi
ENCODING 305
SWIDTH 273 0
DWIDTH 5 0
BBX 3 10 1 0
BITMAP
E0
E0
E0
E0
E0
E0
E0
E0
E0
E0
ENDCHAR
STARTCHAR IJ
ENCODING 306
SWIDTH 850 0
DWIDTH 15 0
BBX 13 13 1 0
BITMAP
E018
E018
E018
E018
E018
E018
E018
E018
E018
E638
E738
E7F0
E3E0
ENDCHAR
STARTCHAR ij
ENCODING 307
SWIDTH 524 0
DWIDTH 9 0
BBX 8 18 1 -4
BITMAP
E6
E7
E6
00
E7
E7
E7
E7
E7
E7
E7
E7
E7
E7
07
06
1E
1C
ENDCHAR
STARTCHAR Jcircumflex
ENCODING 308
SWIDTH 558 0
DWIDTH 10 0
BBX 11 17 0 0
BITMAP
0380
07C0
0EE0
0000
0380
0380
0380
0380
0380
0380
0380
0380
0380
E380
6380
7F00
3E00
ENDCHAR
STARTCHAR jcircumflex
ENCODING 309
SWIDTH 281 0
DWIDTH 5 0
BBX 7 18 -1 -4
BITMAP
38
7C
EE
00
38
38
38
38
38
38
38
38
38
38
38
38
F0
E0
ENDCHAR
STARTCHAR uni0136
ENCODING 310
SWIDTH 634 0
DWIDTH 11 0
BBX 10 18 1 -5
BITMAP
E1C0
E380
E700
EE00
EE00
FC00
FC00
FE00
EE00
E700
E380
E380
E1C0
0000
0C00
0C00
0800
1800
ENDCHAR
STARTCHAR uni0137
ENCODING 311
SWIDTH 534 0
DWIDTH 10 0
BBX 9 19 1 -5
BITMAP
E000
E000
E000
E000
E780
EE00
FC00
FC00
F800
FC00
EE00
EE00
E700
E300
0080
1800
1800
1800
3000
ENDCHAR
STARTCHAR kgreenlandic
ENCODING 312
SWIDTH 589 0
DWIDTH 11 0
BBX 9 10 1 0
BITMAP
E380
E700
EE00
EE00
FC00
FC00
EE00
E700
E700
E380
ENDCHAR
STARTCHAR Lacute
ENCODING 313
SWIDTH 541 0
DWIDTH 10 0
BBX 8 17 1 0
BITMAP
38
70
E0
00
E0
E0
E0
E0
E0
E0
E0
E0
E0
E0
E0
FF
FF
ENDCHAR
STARTCHAR lacute
ENCODING 314
SWIDTH 265 0
DWIDTH 5 0
BBX 5 18 1 0
BITMAP
38
60
E0
00
E0
E0
E0
E0
E0
E0
E0
E0
E0
E0
E0
E0
E0
E0
ENDCHAR
STARTCHAR uni013B
ENCODING 315
SWIDTH 541 0
DWIDTH 10 0
BBX 8 18 1 -5
BITMAP
E0
E0
E0
E0
E0
E0
E0
E0
E0
E0
E0
FF
FF
00
18
18
18
10
ENDCHAR
STARTCHAR uni013C
ENCODING 316
SWIDTH 265 0
DWIDTH 5 0
BBX 3 19 1 -5
BITMAP
E0
E0
E0
E0
E0
E0
E0
E0
E0
E0
E0
E0
E0
E0
00
C0
C0
C0
80
ENDCHAR
STARTCHAR Lcaron
ENCODING 317
SWIDTH 541 0
DWIDTH 10 0
BBX 8 13 1 0
BITMAP
E6
E6
E6
EC
E0
E0
E0
E0
E0
E0
E0
FF
FF
ENDCHAR
STARTCHAR lcaron
ENCODING 318
SWIDTH 338 0
DWIDTH 6 0
BBX 6 14 1 0
BITMAP
E0
EC
EC
EC
F8
E0
E0
E0
E0
E0
E0
E0
E0
E0
ENDCHAR
STARTCHAR Ldot
ENCODING 319
SWIDTH 541 0
DWIDTH 10 0
BBX 8 13 1 0
BITMAP
E0
E0
E0
E0
E0
EE
EE
E0
E0
E0
E0
FF
FF
ENDCHAR
STARTCHAR ldot
ENCODING 320
SWIDTH 372 0
DWIDTH 7 0
BBX 6 14 1 0
BITMAP
E0
E0
E0
E0
E0
E0
EC
FC
E0
E0
E0
E0
E0
E0
ENDCHAR
STARTCHAR Lslash
ENCODING 321
SWIDTH 557 0
DWIDTH 10 0
BBX 10 13 0 0
BITMAP
7000
7000
7000
7000
7C00
7C00
F000
F000
7000
7000
7000
7FC0
7FC0
ENDCHAR
STARTCHAR lslash
ENCODING 322
SWIDTH 305 0
DWIDTH 6 0
BBX 5 14 0 0
BITMAP
70
70
70
70
70
78
78
F0
F0
70
70
70
70
70
ENDCHAR
STARTCHAR Nacute
ENCODING 323
SWIDTH 706 0
DWIDTH 13 0
BBX 11 17 1 0
BITMAP
0380
0600
0E00
0000
E0E0
F0E0
F0E0
F8E0
FCE0
ECE0
EEE0
E6E0
E7E0
E3E0
E1E0
E1E0
E0E0
ENDCHAR
STARTCHAR nacute
ENCODING 324
SWIDTH 560 0
DWIDTH 10 0
BBX 8 14 1 0
BITMAP
0E
0C
18
00
DE
FF
E7
C3
C3
C3
C3
C3
C3
C3
ENDCHAR
STARTCHAR uni0145
ENCODING 325
SWIDTH 706 0
DWIDTH 13 0
BBX 11 18 1 -5
BITMAP
E0E0
F0E0
F0E0
F8E0
FCE0
ECE0
EEE0
E6E0
E7E0
E3E0
E1E0
E1E0
E0E0
0000
0C00
0C00
0C00
0800
ENDCHAR
STARTCHAR uni0146
ENCODING 326
SWIDTH 560 0
DWIDTH 10 0
BBX 8 15 1 -5
BITMAP
DE
FF
E7
C3
C3
C3
C3
C3
C3
C3
00
18
18
18
30
ENDCHAR
STARTCHAR Ncaron
ENCODING 327
SWIDTH 706 0
DWIDTH 13 0
BBX 11 17 1 0
BITMAP
3B80
1F00
0E00
0000
E0E0
F0E0
F0E0
F8E0
FCE0
ECE0
EEE0
E6E0
E7E0
E3E0
E1E0
E1E0
E0E0
ENDCHAR
STARTCHAR ncaron
ENCODING 328
SWIDTH 560 0
DWIDTH 10 0
BBX 8 14 1 0
BITMAP
67
3C
18
00
DE
FF
E7
C3
C3
C3
C3
C3
C3
C3
ENDCHAR
STARTCHAR napostrophe
ENCODING 329
SWIDTH 560 0
DWIDTH 10 0
BBX 10 13 -1 0
BITMAP
6000
4000
C000
F780
3FC0
39C0
30C0
30C0
30C0
30C0
30C0
30C0
30C0
ENDCHAR
STARTCHAR Eng
ENCODING 330
SWIDTH 703 0
DWIDTH 13 0
BBX 11 17 1 -4
BITMAP
E0E0
F0E0
F0E0
F8E0
FCE0
ECE0
EEE0
E6E0
E7E0
E3E0
E1E0
E1E0
E0E0
00E0
00E0
03C0
0380
ENDCHAR
STARTCHAR eng
ENCODING 331
SWIDTH 564 0
DWIDTH 10 0
BBX 8 14 1 -4
BITMAP
DE
FF
E7
C3
C3
C3
C3
C3
C3
C3
03
07
0F
0E
ENDCHAR
STARTCHAR Omacron
ENCODING 332
SWIDTH 690 0
DWIDTH 12 0
BBX 10 16 1 0
BITMAP
3F00
3F00
0000
1E00
7F80
E1C0
E1C0
C0C0
C0C0
C0C0
C0C0
C0C0
E1C0
E1C0
7F80
1E00
ENDCHAR
STARTCHAR omacron
ENCODING 333
SWIDTH 565 0
DWIDTH 10 0
BBX 10 13 0 0
BITMAP
3F00
3F00
0000
1E00
3F00
7380
6180
E180
E1C0
6180
7380
3F00
1E00
ENDCHAR
STARTCHAR Obreve
ENCODING 334
SWIDTH 690 0
DWIDTH 12 0
BBX 10 17 1 0
BITMAP
3300
1F00
1E00
0000
1E00
7F80
E1C0
E1C0
C0C0
C0C0
C0C0
C0C0
C0C0
E1C0
E1C0
7F80
1E00
ENDCHAR
STARTCHAR obreve
ENCODING 335
SWIDTH 565 0
DWIDTH 10 0
BBX 10 14 0 0
BITMAP
3300
3F00
1E00
0000
1E00
3F00
7380
6180
E180
E1C0
6180
7380
3F00
1E00
ENDCHAR
STARTCHAR Ohungarumlaut
ENCODING 336
SWIDTH 690 0
DWIDTH 12 0
BBX 10 17 1 0
BITMAP
0DC0
1B80
1B00
0000
1E00
7F80
E1C0
E1C0
C0C0
C0C0
C0C0
C0C0
C0C0
E1C0
E1C0
7F80
1E00
ENDCHAR
STARTCHAR ohungarumlaut
ENCODING 337
SWIDTH 565 0
DWIDTH 10 0
BBX 10 14 0 0
BITMAP
0DC0
1B80
3F00
0000
1E00
3F00
7380
6180
E180
E1C0
6180
7380
3F00
1E00
ENDCHAR
STARTCHAR OE
ENCODING 338
SWIDTH 968 0
DWIDTH 17 0
BBX 15 13 1 0
BITMAP
3FFE
7FFE
E180
C180
C180
C1FC
C1FC
C180
C180
C180
E180
7FFE
3FFE
ENDCHAR
STARTCHAR oe
ENCODING 339
SWIDTH 901 0
DWIDTH 16 0
BBX 14 10 1 0
BITMAP
3CF8
7FFC
E78C
C38C
C3FC
C3FC
C380
E784
7FFC
3CF8
ENDCHAR
STARTCHAR Racute
ENCODING 340
SWIDTH 638 0
DWIDTH 11 0
BBX 10 17 1 0
BITMAP
0F00
0C00
1C00
0000
FE00
FF80
E380
E180
E180
E380
FF00
FE00
E700
E700
E380
E380
E1C0
ENDCHAR
STARTCHAR racute
ENCODING 341
SWIDTH 364 0
DWIDTH 7 0
BBX 6 14 1 0
BITMAP
1C
38
70
00
FC
FC
E0
E0
E0
E0
E0
E0
E0
E0
ENDCHAR
STARTCHAR uni0156
ENCODING 342
SWIDTH 638 0
DWIDTH 11 0
BBX 10 18 1 -5
BITMAP
FE00
FF80
E380
E180
E180
E380
FF00
FE00
E700
E700
E380
E380
E1C0
0000
1800
1800
1800
1000
ENDCHAR
STARTCHAR uni0157
ENCODING 343
SWIDTH 364 0
DWIDTH 7 0
BBX 6 15 1 -5
BITMAP
FC
FC
E0
E0
E0
E0
E0
E0
E0
E0
00
C0
C0
C0
80
ENDCHAR
STARTCHAR Rcaron
ENCODING 344
SWIDTH 638 0
DWIDTH 11 0
BBX 10 17 1 0
BITMAP
6700
3C00
1C00
0000
FE00
FF80
E380
E180
E180
E380
FF00
FE00
E700
E700
E380
E380
E1C0
ENDCHAR
STARTCHAR rcaron
ENCODING 345
SWIDTH 364 0
DWIDTH 7 0
BBX 7 14 0 0
BITMAP
EE
7C
38
00
7E
7E
70
70
70
70
70
70
70
70
ENDCHAR
STARTCHAR Sacute
ENCODING 346
SWIDTH 614 0
DWIDTH 11 0
BBX 9 17 1 0
BITMAP
0700
0E00
1C00
0000
3E00
7F80
E380
E180
E000
7800
3F00
0F80
0380
C180
E380
7F80
3E00
ENDCHAR
STARTCHAR sacute
ENCODING 347
SWIDTH 514 0
DWIDTH 9 0
BBX 8 14 0 0
BITMAP
07
0E
1C
00
3E
7F
63
60
7E
1F
03
E3
7F
3E
ENDCHAR
STARTCHAR Scircumflex
ENCODING 348
SWIDTH 614 0
DWIDTH 11 0
BBX 9 17 1 0
BITMAP
1C00
3E00
7300
0000
3E00
7F80
E380
E180
E000
7800
3F00
0F80
0380
C180
E380
7F80
3E00
ENDCHAR
STARTCHAR scircumflex
ENCODING 349
SWIDTH 514 0
DWIDTH 9 0
BBX 8 14 0 0
BITMAP
1C
3E
73
00
3E
7F
63
60
7E
1F
03
E3
7F
3E
ENDCHAR
STARTCHAR Scedilla
ENCODING 350
SWIDTH 614 0
DWIDTH 11 0
BBX 9 17 1 -4
BITMAP
3E00
7F80
E380
E180
E000
7800
3F00
0F80
0380
C180
E380
7F80
3E00
0C00
0E00
0600
0C00
ENDCHAR
STARTCHAR scedilla
ENCODING 351
SWIDTH 514 0
DWIDTH 9 0
BBX 8 14 0 -4
BITMAP
3E
7F
63
60
7E
1F
03
E3
7F
3E
0C
0E
06
0C
ENDCHAR
STARTCHAR Scaron
ENCODING 352
SWIDTH 614 0
DWIDTH 11 0
BBX 9 17 1 0
BITMAP
7300
1E00
1C00
0000
3E00
7F80
E380
E180
E000
7800
3F00
0F80
0380
C180
E380
7F80
3E00
ENDCHAR
STARTCHAR scaron
ENCODING 353
SWIDTH 514 0
DWIDTH 9 0
BBX 8 14 0 0
BITMAP
77
3E
1C
00
3E
7F
63
60
7E
1F
03
E3
7F
3E
ENDCHAR
STARTCHAR uni0162
ENCODING 354
SWIDTH 618 0
DWIDTH 11 0
BBX 11 17 0 -4
BITMAP
FFE0
FFE0
0E00
0E00
0E00
0E00
0E00
0E00
0E00
0E00
0E00
0E00
0E00
0600
0F00
0300
0600
ENDCHAR
STARTCHAR uni0163
ENCODING 355
SWIDTH 337 0
DWIDTH 6 0
BBX 6 16 0 -4
BITMAP
70
70
FC
FC
70
70
70
70
70
70
3C
3C
18
1C
0C
18
ENDCHAR
STARTCHAR Tcaron
ENCODING 356
SWIDTH 618 0
DWIDTH 11 0
BBX 11 17 0 0
BITMAP
3B80
1F00
0E00
0000
FFE0
FFE0
0E00
0E00
0E00
0E00
0E00
0E00
0E00
0E00
0E00
0E00
0E00
ENDCHAR
STARTCHAR tcaron
ENCODING 357
SWIDTH 357 0
DWIDTH 6 0
BBX 7 14 0 0
BITMAP
02
02
76
76
FC
FC
70
70
70
70
70
70
3C
3C
ENDCHAR
STARTCHAR Tbar
ENCODING 358
SWIDTH 618 0
DWIDTH 11 0
BBX 11 13 0 0
BITMAP
FFE0
FFE0
0E00
0E00
0E00
3F00
3F00
0E00
0E00
0E00
0E00
0E00
0E00
ENDCHAR
STARTCHAR tbar
ENCODING 359
SWIDTH 337 0
DWIDTH 6 0
BBX 6 12 0 0
BITMAP
70
70
FC
FC
70
FC
FC
70
70
70
3C
3C
ENDCHAR
STARTCHAR Utilde
ENCODING 360
SWIDTH 658 0
DWIDTH 12 0
BBX 10 17 1 0
BITMAP
3900
3F00
2600
0000
E1C0
E1C0
E1C0
E1C0
E1C0
E1C0
E1C0
E1C0
E1C0
E1C0
E1C0
7F80
3F00
ENDCHAR
STARTCHAR utilde
ENCODING 361
SWIDTH 559 0
DWIDTH 10 0
BBX 8 14 1 0
BITMAP
32
7E
4C
00
C3
C3
C3
C3
C3
C3
C3
E7
FF
7B
ENDCHAR
STARTCHAR Umacron
ENCODING 362
SWIDTH 658 0
DWIDTH 12 0
BBX 10 16 1 0
BITMAP
3F00
3F00
0000
E1C0
E1C0
E1C0
E1C0
E1C0
E1C0
E1C0
E1C0
E1C0
E1C0
E1C0
7F80
3F00
ENDCHAR
STARTCHAR umacron
ENCODING 363
SWIDTH 559 0
DWIDTH 10 0
BBX 8 13 1 0
BITMAP
7E
7E
00
C3
C3
C3
C3
C3
C3
C3
E7
FF
7B
ENDCHAR
STARTCHAR Ubreve
ENCODING 364
SWIDTH 658 0
DWIDTH 12 0
BBX 10 17 1 0
BITMAP
3300
3F00
1E00
0000
E1C0
E1C0
E1C0
E1C0
E1C0
E1C0
E1C0
E1C0
E1C0
E1C0
E1C0
7F80
3F00
ENDCHAR
STARTCHAR ubreve
ENCODING 365
SWIDTH 559 0
DWIDTH 10 0
BBX 8 14 1 0
BITMAP
66
7E
3C
00
C3
C3
C3
C3
C3
C3
C3
E7
FF
7B
ENDCHAR
STARTCHAR Uring
ENCODING 366
SWIDTH 658 0
DWIDTH 12 0
BBX 10 18 1 0
BITMAP
0C00
1200
1200
0C00
0000
E1C0
E1C0
E1C0
E1C0
E1C0
E1C0
E1C0
E1C0
E1C0
E1C0
E1C0
7F80
3F00
ENDCHAR
STARTCHAR uring
ENCODING 367
SWIDTH 559 0
DWIDTH 10 0
BBX 8 15 1 0
BITMAP
18
24
24
18
00
C3
C3
C3
C3
C3
C3
C3
E7
FF
7B
ENDCHAR
STARTCHAR Uhungarumlaut
ENCODING 368
SWIDTH 658 0
DWIDTH 12 0
BBX 10 17 1 0
BITMAP
0DC0
1B00
3700
0000
E1C0
E1C0
E1C0
E1C0
E1C0
E1C0
E1C0
E1C0
E1C0
E1C0
E1C0
7F80
3F00
ENDCHAR
STARTCHAR uhungarumlaut
ENCODING 369
SWIDTH 559 0
DWIDTH 10 0
BBX 9 14 1 0
BITMAP
1B80
3700
7E00
0000
C300
C300
C300
C300
C300
C300
C300
E700
FF00
7B00
ENDCHAR
STARTCHAR Uogonek
ENCODING 370
SWIDTH 658 0
DWIDTH 12 0
BBX 10 16 1 -3
BITMAP
E1C0
E1C0
E1C0
E1C0
E1C0
E1C0
E1C0
E1C0
E1C0
E1C0
E1C0
7F80
3F00
0600
0700
0700
ENDCHAR
STARTCHAR uogonek
ENCODING 371
SWIDTH 559 0
DWIDTH 10 0
BBX 8 14 1 -4
BITMAP
C3
C3
C3
C3
C3
C3
C3
E7
FF
7B
06
04
07
07
ENDCHAR
STARTCHAR Wcircumflex
ENCODING 372
SWIDTH 874 0
DWIDTH 16 0
BBX 16 17 0 0
BITMAP
0180
03C0
0660
0000
E187
6186
73CE
73CE
73CE
33CC
366C
366C
3E7C
1E7C
1E78
1C38
1C38
ENDCHAR
STARTCHAR wcircumflex
ENCODING 373
SWIDTH 734 0
DWIDTH 13 0
BBX 13 14 0 0
BITMAP
0700
0F80
1DC0
0000
E738
6730
6730
6730
6DB0
7DF0
3DE0
38E0
38E0
38E0
ENDCHAR
STARTCHAR Ycircumflex
ENCODING 374
SWIDTH 618 0
DWIDTH 11 0
BBX 11 17 0 0
BITMAP
0E00
1F00
3B80
0000
E0E0
70C0
71C0
3180
3B80
1B00
1F00
0E00
0E00
0E00
0E00
0E00
0E00
ENDCHAR
STARTCHAR ycircumflex
ENCODING 375
SWIDTH 501 0
DWIDTH 9 0
BBX 9 18 0 -4
BITMAP
1C00
3E00
7700
0000
E380
6380
6300
7700
7700
3600
3E00
3E00
1C00
1C00
1C00
1800
7800
7000
ENDCHAR
STARTCHAR Ydieresis
ENCODING 376
SWIDTH 618 0
DWIDTH 11 0
BBX 11 16 0 0
BITMAP
3180
3B80
0000
E0E0
70C0
71C0
3180
3B80
1B00
1F00
0E00
0E00
0E00
0E00
0E00
0E00
ENDCHAR
STARTCHAR Zacute
ENCODING 377
SWIDTH 605 0
DWIDTH 11 0
BBX 9 17 1 0
BITMAP
0700
0E00
1C00
0000
FF80
FF80
0380
0700
0E00
0E00
1C00
3800
3800
7000
E000
FF80
FF80
ENDCHAR
STARTCHAR zacute
ENCODING 378
SWIDTH 508 0
DWIDTH 9 0
BBX 8 14 1 0
BITMAP
0E
1C
38
00
FE
FE
0E
1C
38
38
70
E0
FF
FF
ENDCHAR
STARTCHAR Zdotaccent
ENCODING 379
SWIDTH 605 0
DWIDTH 11 0
BBX 9 16 1 0
BITMAP
1C00
1C00
0000
FF80
FF80
0380
0700
0E00
0E00
1C00
3800
3800
7000
E000
FF80
FF80
ENDCHAR
STARTCHAR zdotaccent
ENCODING 380
SWIDTH 508 0
DWIDTH 9 0
BBX 8 13 1 0
BITMAP
38
38
00
FE
FE
0E
1C
38
38
70
E0
FF
FF
ENDCHAR
STARTCHAR Zcaron
ENCODING 381
SWIDTH 605 0
DWIDTH 11 0
BBX 9 17 1 0
BITMAP
7700
3E00
1C00
0000
FF80
FF80
0380
0700
0E00
0E00
1C00
3800
3800
7000
E000
FF80
FF80
ENDCHAR
STARTCHAR zcaron
ENCODING 382
SWIDTH 508 0
DWIDTH 9 0
BBX 8 14 1 0
BITMAP
EE
7C
38
00
FE
FE
0E
1C
38
38
70
E0
FF
FF
ENDCHAR
STARTCHAR longs
ENCODING 383
SWIDTH 259 0
DWIDTH 5 0
BBX 5 14 1 0
BITMAP
38
78
E0
E0
E0
E0
E0
E0
E0
E0
E0
E0
E0
E0
ENDCHAR
STARTCHAR uni018F
ENCODING 399
SWIDTH 694 0
DWIDTH 13 0
BBX 11 13 1 0
BITMAP
7F00
7F80
81C0
00E0
00E0
00E0
FFE0
FFE0
E0E0
E0C0
71C0
7F80
1F00
ENDCHAR
STARTCHAR florin
ENCODING 402
SWIDTH 360 0
DWIDTH 7 0
BBX 7 18 0 -4
BITMAP
1E
3E
38
30
FC
FC
30
30
30
30
30
30
30
30
30
30
F0
E0
ENDCHAR
STARTCHAR Ohorn
ENCODING 416
SWIDTH 701 0
DWIDTH 13 0
BBX 12 13 1 0
BITMAP
1F30
3FB0
71E0
E0C0
E0E0
E0E0
E0E0
E0E0
E0E0
E0C0
71C0
3F80
1F00
ENDCHAR
STARTCHAR ohorn
ENCODING 417
SWIDTH 581 0
DWIDTH 10 0
BBX 10 11 0 0
BITMAP
0040
1E40
7FC0
7380
E180
E180
E180
E180
7380
7F00
1E00
ENDCHAR
STARTCHAR Uhorn
ENCODING 431
SWIDTH 712 0
DWIDTH 13 0
BBX 13 14 1 0
BITMAP
0008
E1C8
E1D8
E1F0
E1C0
E1C0
E1C0
E1C0
E1C0
E1C0
E1C0
E180
7F80
3E00
ENDCHAR
STARTCHAR uhorn
ENCODING 432
SWIDTH 609 0
DWIDTH 11 0
BBX 11 11 1 0
BITMAP
0060
C360
C3C0
C300
C300
C300
C300
C300
E700
FF00
7B00
ENDCHAR
STARTCHAR uni01F0
ENCODING 496
SWIDTH 281 0
DWIDTH 5 0
BBX 7 18 -1 -4
BITMAP
EE
7C
38
00
38
38
38
38
38
38
38
38
38
38
38
38
F0
E0
ENDCHAR
STARTCHAR Aringacute
ENCODING 506
SWIDTH 672 0
DWIDTH 12 0
BBX 12 18 0 0
BITMAP
0180
0300
0400
0600
0900
0600
0F00
0F00
0F80
1F80
1980
39C0
39C0
3FC0
7FE0
7060
6070
E070
ENDCHAR
STARTCHAR aringacute
ENCODING 507
SWIDTH 536 0
DWIDTH 10 0
BBX 8 16 1 0
BITMAP
0E
08
10
18
24
38
3C
FE
C7
07
7F
FF
C7
C7
FF
7F
ENDCHAR
STARTCHAR AEacute
ENCODING 508
SWIDTH 939 0
DWIDTH 17 0
BBX 16 17 0 0
BITMAP
00E0
00C0
0180
0000
01FF
03FF
03E0
07E0
06E0
0EFE
1CFE
1CE0
3FE0
3FE0
70E0
70FF
E0FF
ENDCHAR
STARTCHAR aeacute
ENCODING 509
SWIDTH 844 0
DWIDTH 15 0
BBX 15 14 0 0
BITMAP
00E0
01C0
0380
0000
1EF8
7FFC
738C
038E
3FFE
7FFE
6380
E3C4
7FFC
3C78
ENDCHAR
STARTCHAR Oslashacute
ENCODING 510
SWIDTH 688 0
DWIDTH 12 0
BBX 11 18 1 -1
BITMAP
0780
0600
0E00
0000
1FC0
7F80
71C0
E3C0
E2E0
E6E0
C4E0
ECE0
F8E0
F0C0
71C0
7F80
7F00
C000
ENDCHAR
STARTCHAR oslashacute
ENCODING 511
SWIDTH 564 0
DWIDTH 10 0
BBX 10 15 0 -1
BITMAP
0700
0E00
0C00
0180
1F00
3F00
7380
6580
E580
69C0
6980
7B80
3F00
3E00
6000
ENDCHAR
STARTCHAR uni0218
ENCODING 536
SWIDTH 614 0
DWIDTH 11 0
BBX 9 18 1 -5
BITMAP
3E00
7F80
E380
E180
E000
7800
3F00
0F80
0380
C180
E380
7F80
3E00
0000
0C00
0C00
1800
0800
ENDCHAR
STARTCHAR uni0219
ENCODING 537
SWIDTH 514 0
DWIDTH 9 0
BBX 8 15 0 -5
BITMAP
3E
7F
63
60
7E
1F
03
E3
7F
3E
00
0C
0C
18
18
ENDCHAR
STARTCHAR uni021A
ENCODING 538
SWIDTH 618 0
DWIDTH 11 0
BBX 11 18 0 -5
BITMAP
FFE0
FFE0
0E00
0E00
0E00
0E00
0E00
0E00
0E00
0E00
0E00
0E00
0E00
0000
0400
0400
0C00
0C00
ENDCHAR
STARTCHAR uni021B
ENCODING 539
SWIDTH 337 0
DWIDTH 6 0
BBX 6 17 0 -5
BITMAP
70
70
FC
FC
70
70
70
70
70
70
3C
3C
00
18
18
10
30
ENDCHAR
STARTCHAR uni0237
ENCODING 567
SWIDTH 281 0
DWIDTH 5 0
BBX 5 14 -1 -4
BITMAP
38
38
38
38
38
38
38
38
38
38
38
38
F0
E0
ENDCHAR
STARTCHAR uni0259
ENCODING 601
SWIDTH 529 0
DWIDTH 10 0
BBX 8 10 1 0
BITMAP
7C
FE
87
03
FF
FF
C3
E7
7E
3C
ENDCHAR
STARTCHAR uni02BC
ENCODING 700
SWIDTH 229 0
DWIDTH 4 0
BBX 3 5 0 9
BITMAP
60
60
60
60
C0
ENDCHAR
STARTCHAR circumflex
ENCODING 710
SWIDTH 495 0
DWIDTH 9 0
BBX 7 3 1 11
BITMAP
38
7C
EE
ENDCHAR
STARTCHAR caron
ENCODING 711
SWIDTH 470 0
DWIDTH 8 0
BBX 7 3 1 11
BITMAP
CE
78
30
ENDCHAR
STARTCHAR uni02C9
ENCODING 713
SWIDTH 500 0
DWIDTH 9 0
BBX 7 2 1 11
BITMAP
FE
FE
ENDCHAR
STARTCHAR breve
ENCODING 728
SWIDTH 443 0
DWIDTH 8 0
BBX 6 3 1 11
BITMAP
CC
FC
78
ENDCHAR
STARTCHAR dotaccent
ENCODING 729
SWIDTH 265 0
DWIDTH 5 0
BBX 3 2 1 11
BITMAP
C0
E0
ENDCHAR
STARTCHAR ring
ENCODING 730
SWIDTH 333 0
DWIDTH 6 0
BBX 4 4 1 10
BITMAP
60
90
90
60
ENDCHAR
STARTCHAR ogonek
ENCODING 731
SWIDTH 300 0
DWIDTH 5 0
BBX 4 5 0 -4
BITMAP
20
70
C0
F0
70
ENDCHAR
STARTCHAR tilde
ENCODING 732
SWIDTH 480 0
DWIDTH 9 0
BBX 7 3 1 11
BITMAP
66
FC
DC
ENDCHAR
STARTCHAR hungarumlaut
ENCODING 733
SWIDTH 410 0
DWIDTH 7 0
BBX 8 3 0 11
BITMAP
37
6E
EC
ENDCHAR
STARTCHAR uni02F3
ENCODING 755
SWIDTH 313 0
DWIDTH 6 0
BBX 4 3 1 -4
BITMAP
60
90
60
ENDCHAR
STARTCHAR gravecomb
ENCODING 768
SWIDTH 0 0
DWIDTH 0 0
BBX 5 3 -8 11
BITMAP
E0
70
38
ENDCHAR
STARTCHAR acutecomb
ENCODING 769
SWIDTH 0 0
DWIDTH 0 0
BBX 5 3 -6 11
BITMAP
78
60
C0
ENDCHAR
STARTCHAR tildecomb
ENCODING 771
SWIDTH 0 0
DWIDTH 0 0
BBX 6 3 -8 11
BITMAP
64
FC
9C
ENDCHAR
STARTCHAR hookabovecomb
ENCODING 777
SWIDTH 0 0
DWIDTH 0 0
BBX 3 4 -6 11
BITMAP
C0
60
E0
C0
ENDCHAR
STARTCHAR uni030F
ENCODING 783
SWIDTH 0 0
DWIDTH 0 0
BBX 8 2 -9 11
BITMAP
FC
3F
ENDCHAR
STARTCHAR dotbelowcomb
ENCODING 803
SWIDTH 0 0
DWIDTH 0 0
BBX 3 2 -7 -3
BITMAP
E0
E0
ENDCHAR
STARTCHAR tonos
ENCODING 900
SWIDTH 336 0
DWIDTH 6 0
BBX 3 3 2 11
BITMAP
E0
C0
C0
ENDCHAR
STARTCHAR dieresistonos
ENCODING 901
SWIDTH 548 0
DWIDTH 10 0
BBX 8 5 1 11
BITMAP
1C
18
18
C7
C7
ENDCHAR
STARTCHAR Alphatonos
ENCODING 902
SWIDTH 672 0
DWIDTH 12 0
BBX 12 14 0 0
BITMAP
7000
6600
4F00
0F00
0F80
1F80
1980
39C0
39C0
3FC0
7FE0
7060
6070
E070
ENDCHAR
STARTCHAR anoteleia
ENCODING 903
SWIDTH 301 0
DWIDTH 5 0
BBX 3 3 1 4
BITMAP
E0
E0
E0
ENDCHAR
STARTCHAR Epsilontonos
ENCODING 904
SWIDTH 562 0
DWIDTH 10 0
BBX 13 14 -3 0
BITMAP
E000
CFF8
CFF8
0E00
0E00
0E00
0FF0
0FF0
0E00
0E00
0E00
0E00
0FF8
0FF8
ENDCHAR
STARTCHAR Etatonos
ENCODING 905
SWIDTH 706 0
DWIDTH 13 0
BBX 15 14 -3 0
BITMAP
E000
CE0E
CE0E
0E0E
0E0E
0E0E
0FFE
0FFE
0E0E
0E0E
0E0E
0E0E
0E0E
0E0E
ENDCHAR
STARTCHAR Iotatonos
ENCODING 906
SWIDTH 291 0
DWIDTH 5 0
BBX 7 14 -3 0
BITMAP
60
CE
CE
0E
0E
0E
0E
0E
0E
0E
0E
0E
0E
0E
ENDCHAR
STARTCHAR Omicrontonos
ENCODING 908
SWIDTH 700 0
DWIDTH 13 0
BBX 13 14 -1 0
BITMAP
E000
C7C0
9FE0
1C70
3870
3830
3038
3038
3038
3830
3870
1C70
1FE0
07C0
ENDCHAR
STARTCHAR Upsilontonos
ENCODING 910
SWIDTH 666 0
DWIDTH 12 0
BBX 15 14 -3 0
BITMAP
6000
CE0E
C61C
071C
0318
03B8
01B0
01F0
00E0
00E0
00E0
00E0
00E0
00E0
ENDCHAR
STARTCHAR Omegatonos
ENCODING 911
SWIDTH 681 0
DWIDTH 12 0
BBX 12 14 -1 0
BITMAP
E000
C780
DFE0
1CE0
3870
3870
3870
3870
3870
3870
1860
0CE0
3EF0
3EF0
ENDCHAR
STARTCHAR iotadieresistonos
ENCODING 912
SWIDTH 336 0
DWIDTH 6 0
BBX 8 16 -1 0
BITMAP
1C
18
10
C6
C7
00
38
38
38
38
38
38
38
38
3C
1C
ENDCHAR
STARTCHAR Alpha
ENCODING 913
SWIDTH 672 0
DWIDTH 12 0
BBX 12 13 0 0
BITMAP
0600
0F00
0F00
0F80
1F80
1980
39C0
39C0
3FC0
7FE0
7060
6070
E070
ENDCHAR
STARTCHAR Beta
ENCODING 914
SWIDTH 638 0
DWIDTH 11 0
BBX 9 13 1 0
BITMAP
FE00
FF80
E380
E380
E380
FF00
FF00
E380
E180
E180
E380
FF80
FE00
ENDCHAR
STARTCHAR Gamma
ENCODING 915
SWIDTH 557 0
DWIDTH 10 0
BBX 9 13 1 0
BITMAP
FF80
FF80
E000
E000
E000
E000
E000
E000
E000
E000
E000
E000
E000
ENDCHAR
STARTCHAR uni0394
ENCODING 916
SWIDTH 730 0
DWIDTH 13 0
BBX 13 13 0 0
BITMAP
0700
0780
0F80
0D80
0DC0
1CC0
18E0
38E0
3860
3070
7070
7FF0
FFF8
ENDCHAR
STARTCHAR Epsilon
ENCODING 917
SWIDTH 562 0
DWIDTH 10 0
BBX 9 13 1 0
BITMAP
FF80
FF80
E000
E000
E000
FF00
FF00
E000
E000
E000
E000
FF80
FF80
ENDCHAR
STARTCHAR Zeta
ENCODING 918
SWIDTH 605 0
DWIDTH 11 0
BBX 9 13 1 0
BITMAP
FF80
FF80
0380
0700
0E00
0E00
1C00
3800
3800
7000
E000
FF80
FF80
ENDCHAR
STARTCHAR Eta
ENCODING 919
SWIDTH 706 0
DWIDTH 13 0
BBX 11 13 1 0
BITMAP
E0E0
E0E0
E0E0
E0E0
E0E0
FFE0
FFE0
E0E0
E0E0
E0E0
E0E0
E0E0
E0E0
ENDCHAR
STARTCHAR Theta
ENCODING 920
SWIDTH 687 0
DWIDTH 12 0
BBX 10 13 1 0
BITMAP
1E00
7F80
E1C0
E1C0
C0C0
DEC0
DEC0
C0C0
C0C0
E1C0
E1C0
7F80
1E00
ENDCHAR
STARTCHAR Iota
ENCODING 921
SWIDTH 291 0
DWIDTH 5 0
BBX 3 13 1 0
BITMAP
E0
E0
E0
E0
E0
E0
E0
E0
E0
E0
E0
E0
E0
ENDCHAR
STARTCHAR Kappa
ENCODING 922
SWIDTH 634 0
DWIDTH 11 0
BBX 10 13 1 0
BITMAP
E1C0
E380
E700
EE00
EE00
FC00
FC00
FE00
EE00
E700
E380
E380
E1C0
ENDCHAR
STARTCHAR Lambda
ENCODING 923
SWIDTH 647 0
DWIDTH 12 0
BBX 11 13 0 0
BITMAP
0E00
0F00
0F00
1F00
1F80
1B80
3980
39C0
31C0
70C0
70E0
60E0
E0E0
ENDCHAR
STARTCHAR Mu
ENCODING 924
SWIDTH 875 0
DWIDTH 16 0
BBX 14 13 1 0
BITMAP
F03C
F03C
F07C
F87C
F87C
FCDC
ECDC
ECDC
EF9C
E79C
E79C
E71C
E31C
ENDCHAR
STARTCHAR Nu
ENCODING 925
SWIDTH 706 0
DWIDTH 13 0
BBX 11 13 1 0
BITMAP
E0E0
F0E0
F0E0
F8E0
FCE0
ECE0
EEE0
E6E0
E7E0
E3E0
E1E0
E1E0
E0E0
ENDCHAR
STARTCHAR Xi
ENCODING 926
SWIDTH 566 0
DWIDTH 10 0
BBX 9 13 1 0
BITMAP
FF00
FF00
0000
0000
0000
7E00
7E00
0000
0000
0000
0000
FF80
FF80
ENDCHAR
STARTCHAR Omicron
ENCODING 927
SWIDTH 690 0
DWIDTH 12 0
BBX 10 13 1 0
BITMAP
1E00
7F80
E1C0
E1C0
C0C0
C0C0
C0C0
C0C0
C0C0
E1C0
E1C0
7F80
1E00
ENDCHAR
STARTCHAR Pi
ENCODING 928
SWIDTH 707 0
DWIDTH 13 0
BBX 11 13 1 0
BITMAP
FFE0
FFE0
E0E0
E0E0
E0E0
E0E0
E0E0
E0E0
E0E0
E0E0
E0E0
E0E0
E0E0
ENDCHAR
STARTCHAR Rho
ENCODING 929
SWIDTH 645 0
DWIDTH 12 0
BBX 10 13 1 0
BITMAP
FF00
FF80
E1C0
E1C0
E1C0
E1C0
FF80
FF00
E000
E000
E000
E000
E000
ENDCHAR
STARTCHAR Sigma
ENCODING 931
SWIDTH 566 0
DWIDTH 10 0
BBX 9 13 1 0
BITMAP
FF80
FF80
7000
7000
3800
1C00
1C00
1C00
3800
7000
7000
FF80
FF80
ENDCHAR
STARTCHAR Tau
ENCODING 932
SWIDTH 618 0
DWIDTH 11 0
BBX 11 13 0 0
BITMAP
FFE0
FFE0
0E00
0E00
0E00
0E00
0E00
0E00
0E00
0E00
0E00
0E00
0E00
ENDCHAR
STARTCHAR Upsilon
ENCODING 933
SWIDTH 618 0
DWIDTH 11 0
BBX 11 13 0 0
BITMAP
E0E0
70C0
71C0
3180
3B80
1B00
1F00
0E00
0E00
0E00
0E00
0E00
0E00
ENDCHAR
STARTCHAR Phi
ENCODING 934
SWIDTH 769 0
DWIDTH 14 0
BBX 12 13 1 0
BITMAP
0600
0600
3FC0
7FE0
E670
E630
C630
C630
E630
E670
7FE0
3FC0
0600
ENDCHAR
STARTCHAR Chi
ENCODING 935
SWIDTH 635 0
DWIDTH 11 0
BBX 11 13 0 0
BITMAP
F0E0
71C0
39C0
3B80
1F80
1F00
0E00
1F00
1F80
3B80
39C0
71C0
F0E0
ENDCHAR
STARTCHAR Psi
ENCODING 936
SWIDTH 726 0
DWIDTH 13 0
BBX 13 13 0 0
BITMAP
E738
E738
E738
E738
E738
6730
7770
3FE0
1FC0
0700
0700
0700
0700
ENDCHAR
STARTCHAR uni03A9
ENCODING 937
SWIDTH 671 0
DWIDTH 12 0
BBX 10 13 1 0
BITMAP
1E00
7F80
7380
E1C0
E1C0
E1C0
E1C0
E1C0
E1C0
6180
7300
FFC0
FFC0
ENDCHAR
STARTCHAR Iotadieresis
ENCODING 938
SWIDTH 291 0
DWIDTH 5 0
BBX 7 16 -1 0
BITMAP
E6
E6
00
38
38
38
38
38
38
38
38
38
38
38
38
38
ENDCHAR
STARTCHAR Upsilondieresis
ENCODING 939
SWIDTH 618 0
DWIDTH 11 0
BBX 11 16 0 0
BITMAP
3180
3B80
0000
E0E0
70C0
71C0
3180
3B80
1B00
1F00
0E00
0E00
0E00
0E00
0E00
0E00
ENDCHAR
STARTCHAR alphatonos
ENCODING 940
SWIDTH 563 0
DWIDTH 10 0
BBX 9 14 1 0
BITMAP
0C00
0C00
0800
0000
7B00
FF00
E700
C700
C700
C700
C700
E700
FF80
7B80
ENDCHAR
STARTCHAR epsilontonos
ENCODING 941
SWIDTH 556 0
DWIDTH 10 0
BBX 8 14 1 0
BITMAP
0C
18
18
00
3E
FF
E3
E0
7C
7C
C0
E3
FF
3E
ENDCHAR
STARTCHAR etatonos
ENCODING 942
SWIDTH 564 0
DWIDTH 10 0
BBX 8 18 1 -4
BITMAP
0C
18
18
00
DE
FF
E7
C3
C3
C3
C3
C3
C3
C3
03
03
03
03
ENDCHAR
STARTCHAR iotatonos
ENCODING 943
SWIDTH 336 0
DWIDTH 6 0
BBX 4 14 1 0
BITMAP
70
60
40
00
E0
E0
E0
E0
E0
E0
E0
E0
F0
70
ENDCHAR
STARTCHAR upsilondieresistonos
ENCODING 944
SWIDTH 545 0
DWIDTH 10 0
BBX 8 16 1 0
BITMAP
0C
18
18
C3
E7
00
E6
E7
E7
E3
E3
E3
E7
E7
7E
3C
ENDCHAR
STARTCHAR alpha
ENCODING 945
SWIDTH 563 0
DWIDTH 10 0
BBX 9 10 1 0
BITMAP
7B00
FF00
E700
C700
C700
C700
C700
E700
FF80
7B80
ENDCHAR
STARTCHAR beta
ENCODING 946
SWIDTH 601 0
DWIDTH 11 0
BBX 9 17 1 -4
BITMAP
3E00
7F00
6380
E380
E300
EF00
EF00
E380
E180
E180
E380
FF80
FF00
E000
E000
E000
E000
ENDCHAR
STARTCHAR gamma
ENCODING 947
SWIDTH 510 0
DWIDTH 9 0
BBX 9 14 0 -4
BITMAP
E380
6300
6300
7700
3700
3600
3600
3E00
1C00
1C00
1C00
1C00
1C00
1C00
ENDCHAR
STARTCHAR delta
ENCODING 948
SWIDTH 564 0
DWIDTH 10 0
BBX 10 14 0 0
BITMAP
1F00
3F00
3000
3800
3E00
3F00
7380
6180
61C0
E1C0
6180
7380
3F00
1E00
ENDCHAR
STARTCHAR epsilon
ENCODING 949
SWIDTH 556 0
DWIDTH 10 0
BBX 8 10 1 0
BITMAP
3E
FF
E3
E0
7C
7C
C0
E3
FF
3E
ENDCHAR
STARTCHAR zeta
ENCODING 950
SWIDTH 500 0
DWIDTH 9 0
BBX 8 16 1 -3
BITMAP
FF
FE
0E
1C
38
70
60
E0
E0
E0
F0
7C
3E
06
0E
0C
ENDCHAR
STARTCHAR eta
ENCODING 951
SWIDTH 564 0
DWIDTH 10 0
BBX 8 14 1 -4
BITMAP
DE
FF
E7
C3
C3
C3
C3
C3
C3
C3
03
03
03
03
ENDCHAR
STARTCHAR theta
ENCODING 952
SWIDTH 589 0
DWIDTH 11 0
BBX 9 13 1 0
BITMAP
3E00
7F00
6300
E380
E380
FF80
FF80
E380
E380
E380
6300
7F00
3E00
ENDCHAR
STARTCHAR iota
ENCODING 953
SWIDTH 336 0
DWIDTH 6 0
BBX 4 10 1 0
BITMAP
E0
E0
E0
E0
E0
E0
E0
E0
F0
70
ENDCHAR
STARTCHAR kappa
ENCODING 954
SWIDTH 589 0
DWIDTH 11 0
BBX 9 10 1 0
BITMAP
E380
E700
EE00
EE00
FC00
FC00
EE00
E700
E700
E380
ENDCHAR
STARTCHAR lambda
ENCODING 955
SWIDTH 548 0
DWIDTH 10 0
BBX 10 14 0 0
BITMAP
7000
7800
1800
1C00
1C00
1C00
1E00
3E00
3F00
3700
7300
7380
63C0
E1C0
ENDCHAR
STARTCHAR uni03BC
ENCODING 956
SWIDTH 615 0
DWIDTH 11 0
BBX 9 14 1 -4
BITMAP
E380
E380
E380
E380
E380
E380
E380
E380
FF80
FF80
E000
E000
E000
E000
ENDCHAR
STARTCHAR nu
ENCODING 957
SWIDTH 505 0
DWIDTH 9 0
BBX 9 10 0 0
BITMAP
E380
6300
6300
7700
3600
3600
3600
3E00
1C00
1C00
ENDCHAR
STARTCHAR xi
ENCODING 958
SWIDTH 529 0
DWIDTH 10 0
BBX 8 16 1 -3
BITMAP
1F
3F
70
60
70
3E
3E
60
E0
E0
F0
7E
1F
03
03
06
ENDCHAR
STARTCHAR omicron
ENCODING 959
SWIDTH 565 0
DWIDTH 10 0
BBX 10 10 0 0
BITMAP
1E00
3F00
7380
6180
E180
E1C0
6180
7380
3F00
1E00
ENDCHAR
STARTCHAR pi
ENCODING 960
SWIDTH 643 0
DWIDTH 12 0
BBX 10 10 1 0
BITMAP
FFC0
FFC0
7380
7380
7380
7380
7380
7380
73C0
71C0
ENDCHAR
STARTCHAR rho
ENCODING 961
SWIDTH 564 0
DWIDTH 10 0
BBX 8 14 1 -4
BITMAP
3C
7E
E7
E3
C3
C3
C3
E7
FF
DE
C0
C0
C0
C0
ENDCHAR
STARTCHAR sigma1
ENCODING 962
SWIDTH 514 0
DWIDTH 9 0
BBX 9 13 0 -3
BITMAP
1E00
7F00
7380
6380
E000
E000
6000
7000
3C00
1F00
0700
0700
0600
ENDCHAR
STARTCHAR sigma
ENCODING 963
SWIDTH 572 0
DWIDTH 10 0
BBX 10 10 0 0
BITMAP
1FC0
7FC0
7300
6180
E180
E180
6180
7380
3F00
1E00
ENDCHAR
STARTCHAR tau
ENCODING 964
SWIDTH 520 0
DWIDTH 9 0
BBX 9 10 0 0
BITMAP
FF80
FF80
1C00
1C00
1C00
1C00
1C00
1C00
1E00
0F00
ENDCHAR
STARTCHAR upsilon
ENCODING 965
SWIDTH 545 0
DWIDTH 10 0
BBX 8 10 1 0
BITMAP
E6
E7
E7
E3
E3
E3
E7
E7
7E
3C
ENDCHAR
STARTCHAR phi
ENCODING 966
SWIDTH 745 0
DWIDTH 13 0
BBX 13 14 0 -4
BITMAP
23C0
77E0
6770
E730
E738
E738
6730
7770
3FE0
1FC0
0700
0700
0700
0700
ENDCHAR
STARTCHAR chi
ENCODING 967
SWIDTH 508 0
DWIDTH 9 0
BBX 10 14 0 -4
BITMAP
E180
F380
3300
3F00
1E00
1E00
0C00
1E00
1E00
3E00
3F00
3300
73C0
E180
ENDCHAR
STARTCHAR psi
ENCODING 968
SWIDTH 744 0
DWIDTH 13 0
BBX 13 14 0 -4
BITMAP
E770
E730
E730
E738
E738
E738
6730
7770
3FE0
0FC0
0700
0700
0700
0700
ENDCHAR
STARTCHAR omega
ENCODING 969
SWIDTH 820 0
DWIDTH 15 0
BBX 13 10 1 0
BITMAP
7070
E038
E738
E718
C718
C718
E738
E738
7DF0
38E0
ENDCHAR
STARTCHAR iotadieresis
ENCODING 970
SWIDTH 336 0
DWIDTH 6 0
BBX 7 13 -1 0
BITMAP
E6
E6
00
38
38
38
38
38
38
38
38
3C
1C
ENDCHAR
STARTCHAR upsilondieresis
ENCODING 971
SWIDTH 545 0
DWIDTH 10 0
BBX 8 13 1 0
BITMAP
66
66
00
E6
E7
E7
E3
E3
E3
E7
E7
7E
3C
ENDCHAR
STARTCHAR omicrontonos
ENCODING 972
SWIDTH 565 0
DWIDTH 10 0
BBX 10 14 0 0
BITMAP
0600
0C00
0C00
0000
1E00
3F00
7380
6180
E180
E1C0
6180
7380
3F00
1E00
ENDCHAR
STARTCHAR upsilontonos
ENCODING 973
SWIDTH 545 0
DWIDTH 10 0
BBX 8 14 1 0
BITMAP
0C
18
18
00
E6
E7
E7
E3
E3
E3
E7
E7
7E
3C
ENDCHAR
STARTCHAR omegatonos
ENCODING 974
SWIDTH 820 0
DWIDTH 15 0
BBX 13 14 1 0
BITMAP
0300
0300
0600
0000
7070
E038
E738
E718
C718
C718
E738
E738
7DF0
38E0
ENDCHAR
STARTCHAR theta1
ENCODING 977
SWIDTH 595 0
DWIDTH 11 0
BBX 10 13 1 0
BITMAP
0E00
1F00
3B80
3B80
3B80
1B80
1FC0
E7C0
E380
E380
E300
7F00
3E00
ENDCHAR
STARTCHAR Upsilon1
ENCODING 978
SWIDTH 590 0
DWIDTH 11 0
BBX 11 13 0 0
BITMAP
E0E0
F1E0
3180
3180
3B80
1B00
1F00
0E00
0E00
0E00
0E00
0E00
0E00
ENDCHAR
STARTCHAR omega1
ENCODING 982
SWIDTH 827 0
DWIDTH 15 0
BBX 15 10 0 0
BITMAP
FFFE
FFFE
701C
600C
638C
638C
638C
739C
3EF8
1C70
ENDCHAR
STARTCHAR uni0400
ENCODING 1024
SWIDTH 562 0
DWIDTH 10 0
BBX 9 17 1 0
BITMAP
7000
1800
1C00
0000
FF80
FF80
E000
E000
E000
FF00
FF00
E000
E000
E000
E000
FF80
FF80
ENDCHAR
STARTCHAR uni0401
ENCODING 1025
SWIDTH 562 0
DWIDTH 10 0
BBX 9 16 1 0
BITMAP
6300
7700
0000
FF80
FF80
E000
E000
E000
FF00
FF00
E000
E000
E000
E000
FF80
FF80
ENDCHAR
STARTCHAR uni0402
ENCODING 1026
SWIDTH 747 0
DWIDTH 13 0
BBX 13 13 0 0
BITMAP
FFC0
FFC0
1C00
1C00
1C00
1FE0
1FF0
1C70
1C38
1C38
1C30
1CF0
1CC0
ENDCHAR
STARTCHAR uni0403
ENCODING 1027
SWIDTH 557 0
DWIDTH 10 0
BBX 9 17 1 0
BITMAP
0700
0C00
1C00
0000
FF80
FF80
E000
E000
E000
E000
E000
E000
E000
E000
E000
E000
E000
ENDCHAR
STARTCHAR uni0404
ENCODING 1028
SWIDTH 659 0
DWIDTH 12 0
BBX 10 13 1 0
BITMAP
1F00
7F80
71C0
E1C0
E000
FC00
FC00
E000
E000
E1C0
71C0
7F80
1F00
ENDCHAR
STARTCHAR uni0405
ENCODING 1029
SWIDTH 614 0
DWIDTH 11 0
BBX 9 13 1 0
BITMAP
3E00
7F80
E380
E180
E000
7800
3F00
0F80
0380
C180
E380
7F80
3E00
ENDCHAR
STARTCHAR uni0406
ENCODING 1030
SWIDTH 291 0
DWIDTH 5 0
BBX 3 13 1 0
BITMAP
E0
E0
E0
E0
E0
E0
E0
E0
E0
E0
E0
E0
E0
ENDCHAR
STARTCHAR uni0407
ENCODING 1031
SWIDTH 291 0
DWIDTH 5 0
BBX 7 16 -1 0
BITMAP
E6
E6
00
38
38
38
38
38
38
38
38
38
38
38
38
38
ENDCHAR
STARTCHAR uni0408
ENCODING 1032
SWIDTH 558 0
DWIDTH 10 0
BBX 9 13 0 0
BITMAP
0380
0380
0380
0380
0380
0380
0380
0380
0380
E380
6380
7F00
3E00
ENDCHAR
STARTCHAR uni0409
ENCODING 1033
SWIDTH 1057 0
DWIDTH 19 0
BBX 19 13 0 0
BITMAP
1FF000
1FF000
187000
187000
187F00
187F80
1871C0
1870C0
1870E0
3870C0
3871C0
F07F80
E07F00
ENDCHAR
STARTCHAR uni040A
ENCODING 1034
SWIDTH 1058 0
DWIDTH 19 0
BBX 17 13 1 0
BITMAP
E0E000
E0E000
E0E000
E0E000
E0FE00
FFFF00
FFE380
E0E180
E0E180
E0E180
E0E380
E0FF00
E0FE00
ENDCHAR
STARTCHAR uni040B
ENCODING 1035
SWIDTH 771 0
DWIDTH 14 0
BBX 13 13 0 0
BITMAP
FFC0
FFC0
1C00
1C00
1C00
1FE0
1FF0
1C38
1C38
1C38
1C38
1C38
1C38
ENDCHAR
STARTCHAR uni040C
ENCODING 1036
SWIDTH 634 0
DWIDTH 11 0
BBX 10 17 1 0
BITMAP
0F00
0C00
1800
0000
E1C0
E380
E700
EE00
EE00
FC00
FC00
FE00
EE00
E700
E380
E380
E1C0
ENDCHAR
STARTCHAR uni040D
ENCODING 1037
SWIDTH 700 0
DWIDTH 13 0
BBX 10 17 1 0
BITMAP
3800
1C00
0C00
0200
E0C0
E1C0
E3C0
E3C0
E7C0
E6C0
EEC0
FCC0
F8C0
F8C0
F0C0
F0C0
E0C0
ENDCHAR
STARTCHAR uni040E
ENCODING 1038
SWIDTH 631 0
DWIDTH 11 0
BBX 11 17 0 0
BITMAP
1980
1F80
0F00
0000
E0E0
70C0
71C0
3980
3B80
1B80
1F00
0F00
0E00
0E00
0C00
3C00
3800
ENDCHAR
STARTCHAR uni040F
ENCODING 1039
SWIDTH 700 0
DWIDTH 13 0
BBX 10 16 1 -3
BITMAP
E0C0
E0C0
E0C0
E0C0
E0C0
E0C0
E0C0
E0C0
E0C0
E0C0
E0C0
FFC0
FFC0
0E00
0E00
0E00
ENDCHAR
STARTCHAR uni0410
ENCODING 1040
SWIDTH 672 0
DWIDTH 12 0
BBX 12 13 0 0
BITMAP
0600
0F00
0F00
0F80
1F80
1980
39C0
39C0
3FC0
7FE0
7060
6070
E070
ENDCHAR
STARTCHAR uni0411
ENCODING 1041
SWIDTH 626 0
DWIDTH 11 0
BBX 10 13 1 0
BITMAP
FF00
FF00
E000
E000
E000
FE00
FF80
E380
E1C0
E1C0
E380
FF80
FE00
ENDCHAR
STARTCHAR uni0412
ENCODING 1042
SWIDTH 638 0
DWIDTH 11 0
BBX 9 13 1 0
BITMAP
FE00
FF80
E380
E380
E380
FF00
FF00
E380
E180
E180
E380
FF80
FE00
ENDCHAR
STARTCHAR uni0413
ENCODING 1043
SWIDTH 557 0
DWIDTH 10 0
BBX 9 13 1 0
BITMAP
FF80
FF80
E000
E000
E000
E000
E000
E000
E000
E000
E000
E000
E000
ENDCHAR
STARTCHAR uni0414
ENCODING 1044
SWIDTH 747 0
DWIDTH 13 0
BBX 13 16 0 -3
BITMAP
1FF0
1FF0
1C70
1C70
1870
1870
1870
1870
3870
3870
7070
FFF8
FFF8
E038
E038
E038
ENDCHAR
STARTCHAR uni0415
ENCODING 1045
SWIDTH 562 0
DWIDTH 10 0
BBX 9 13 1 0
BITMAP
FF80
FF80
E000
E000
E000
FF00
FF00
E000
E000
E000
E000
FF80
FF80
ENDCHAR
STARTCHAR uni0416
ENCODING 1046
SWIDTH 997 0
DWIDTH 18 0
BBX 18 13 0 0
BITMAP
F0C3C0
70C380
38C700
1CC600
1CCE00
0FFC00
0FFC00
1CCE00
1CC700
38C700
38C380
70C380
F0C3C0
ENDCHAR
STARTCHAR uni0417
ENCODING 1047
SWIDTH 616 0
DWIDTH 11 0
BBX 9 13 1 0
BITMAP
3E00
FF00
E380
C380
0380
1F00
1F00
0380
0180
C180
E380
FF00
3E00
ENDCHAR
STARTCHAR uni0418
ENCODING 1048
SWIDTH 700 0
DWIDTH 13 0
BBX 10 13 1 0
BITMAP
E0C0
E1C0
E3C0
E3C0
E7C0
E6C0
EEC0
FCC0
F8C0
F8C0
F0C0
F0C0
E0C0
ENDCHAR
STARTCHAR uni0419
ENCODING 1049
SWIDTH 700 0
DWIDTH 13 0
BBX 10 17 1 0
BITMAP
3300
1F00
1E00
0000
E0C0
E1C0
E3C0
E3C0
E7C0
E6C0
EEC0
FCC0
F8C0
F8C0
F0C0
F0C0
E0C0
ENDCHAR
STARTCHAR uni041A
ENCODING 1050
SWIDTH 645 0
DWIDTH 12 0
BBX 11 13 1 0
BITMAP
E1C0
E380
E380
E700
EE00
FE00
FE00
E600
E700
E380
E380
E1C0
E1E0
ENDCHAR
STARTCHAR uni041B
ENCODING 1051
SWIDTH 706 0
DWIDTH 13 0
BBX 12 13 0 0
BITMAP
1FF0
1FF0
1C70
1C70
1C70
1870
1870
1870
1870
3870
3870
F070
E070
ENDCHAR
STARTCHAR uni041C
ENCODING 1052
SWIDTH 875 0
DWIDTH 16 0
BBX 14 13 1 0
BITMAP
F03C
F03C
F07C
F87C
F87C
FCDC
ECDC
ECDC
EF9C
E79C
E79C
E71C
E31C
ENDCHAR
STARTCHAR uni041D
ENCODING 1053
SWIDTH 706 0
DWIDTH 13 0
BBX 11 13 1 0
BITMAP
E0E0
E0E0
E0E0
E0E0
E0E0
FFE0
FFE0
E0E0
E0E0
E0E0
E0E0
E0E0
E0E0
ENDCHAR
STARTCHAR uni041E
ENCODING 1054
SWIDTH 690 0
DWIDTH 12 0
BBX 10 13 1 0
BITMAP
1E00
7F80
E1C0
E1C0
C0C0
C0C0
C0C0
C0C0
C0C0
E1C0
E1C0
7F80
1E00
ENDCHAR
STARTCHAR uni041F
ENCODING 1055
SWIDTH 707 0
DWIDTH 13 0
BBX 11 13 1 0
BITMAP
FFE0
FFE0
E0E0
E0E0
E0E0
E0E0
E0E0
E0E0
E0E0
E0E0
E0E0
E0E0
E0E0
ENDCHAR
STARTCHAR uni0420
ENCODING 1056
SWIDTH 645 0
DWIDTH 12 0
BBX 10 13 1 0
BITMAP
FF00
FF80
E1C0
E1C0
E1C0
E1C0
FF80
FF00
E000
E000
E000
E000
E000
ENDCHAR
STARTCHAR uni0421
ENCODING 1057
SWIDTH 654 0
DWIDTH 12 0
BBX 10 13 1 0
BITMAP
1F00
7F80
71C0
E1C0
E0C0
C000
C000
C000
E000
E1C0
61C0
7F80
1F00
ENDCHAR
STARTCHAR uni0422
ENCODING 1058
SWIDTH 618 0
DWIDTH 11 0
BBX 11 13 0 0
BITMAP
FFE0
FFE0
0E00
0E00
0E00
0E00
0E00
0E00
0E00
0E00
0E00
0E00
0E00
ENDCHAR
STARTCHAR uni0423
ENCODING 1059
SWIDTH 631 0
DWIDTH 11 0
BBX 11 13 0 0
BITMAP
E0E0
70C0
71C0
3980
3B80
1B80
1F00
0F00
0E00
0E00
0C00
3C00
3800
ENDCHAR
STARTCHAR uni0424
ENCODING 1060
SWIDTH 816 0
DWIDTH 15 0
BBX 13 14 1 -1
BITMAP
0700
0700
1FC0
7FF0
E730
C738
C718
C718
C738
E738
7FF0
3FC0
0700
0700
ENDCHAR
STARTCHAR uni0425
ENCODING 1061
SWIDTH 635 0
DWIDTH 11 0
BBX 11 13 0 0
BITMAP
F0E0
71C0
39C0
3B80
1F80
1F00
0E00
1F00
1F80
3B80
39C0
71C0
F0E0
ENDCHAR
STARTCHAR uni0426
ENCODING 1062
SWIDTH 758 0
DWIDTH 14 0
BBX 12 16 1 -3
BITMAP
E0C0
E0C0
E0C0
E0C0
E0C0
E0C0
E0C0
E0C0
E0C0
E0C0
E0C0
FFF0
FFF0
0030
0030
0030
ENDCHAR
STARTCHAR uni0427
ENCODING 1063
SWIDTH 695 0
DWIDTH 13 0
BBX 11 13 1 0
BITMAP
E0E0
E0E0
E0E0
E0E0
E0E0
70E0
7FE0
1FE0
00E0
00E0
00E0
00E0
00E0
ENDCHAR
STARTCHAR uni0428
ENCODING 1064
SWIDTH 958 0
DWIDTH 17 0
BBX 15 13 1 0
BITMAP
E38E
E38E
E38E
E38E
E38E
E38E
E38E
E38E
E38E
E38E
E38E
FFFE
FFFE
ENDCHAR
STARTCHAR uni0429
ENCODING 1065
SWIDTH 1020 0
DWIDTH 18 0
BBX 17 16 1 -3
BITMAP
E38E00
E38E00
E38E00
E38E00
E38E00
E38E00
E38E00
E38E00
E38E00
E38E00
E38E00
FFFF80
FFFF80
000380
000380
000380
ENDCHAR
STARTCHAR uni042A
ENCODING 1066
SWIDTH 770 0
DWIDTH 14 0
BBX 13 13 0 0
BITMAP
FC00
FC00
0C00
0C00
0C00
0FE0
0FF8
0C38
0C18
0C18
0C38
0FF0
0FE0
ENDCHAR
STARTCHAR uni042B
ENCODING 1067
SWIDTH 871 0
DWIDTH 16 0
BBX 14 13 1 0
BITMAP
E01C
E01C
E01C
E01C
E01C
FF1C
FF9C
E1DC
E1DC
E1DC
E1DC
FF9C
FF1C
ENDCHAR
STARTCHAR uni042C
ENCODING 1068
SWIDTH 625 0
DWIDTH 11 0
BBX 10 13 1 0
BITMAP
E000
E000
E000
E000
E000
FE00
FF80
E380
E1C0
E1C0
E380
FF80
FE00
ENDCHAR
STARTCHAR uni042D
ENCODING 1069
SWIDTH 650 0
DWIDTH 12 0
BBX 10 13 1 0
BITMAP
3E00
7F80
E380
C1C0
01C0
1FC0
1FC0
01C0
01C0
C1C0
E380
7F80
3E00
ENDCHAR
STARTCHAR uni042E
ENCODING 1070
SWIDTH 943 0
DWIDTH 17 0
BBX 15 13 1 0
BITMAP
E1F0
E3FC
E71C
E60E
EE0E
FE06
FE06
EE06
E60E
E60E
E71C
E3FC
E0F0
ENDCHAR
STARTCHAR uni042F
ENCODING 1071
SWIDTH 596 0
DWIDTH 11 0
BBX 10 13 0 0
BITMAP
1FC0
7FC0
71C0
61C0
61C0
71C0
3FC0
3FC0
39C0
31C0
71C0
61C0
E1C0
ENDCHAR
STARTCHAR uni0430
ENCODING 1072
SWIDTH 536 0
DWIDTH 10 0
BBX 8 10 1 0
BITMAP
3C
FE
C7
07
7F
FF
C7
C7
FF
7F
ENDCHAR
STARTCHAR uni0431
ENCODING 1073
SWIDTH 569 0
DWIDTH 10 0
BBX 9 14 1 0
BITMAP
0300
1E00
7E00
7000
C000
DE00
FF00
E700
C380
C380
C380
E700
7F00
3C00
ENDCHAR
STARTCHAR uni0432
ENCODING 1074
SWIDTH 565 0
DWIDTH 10 0
BBX 9 10 1 0
BITMAP
FE00
FF00
E700
E700
FE00
FF00
E300
E380
FF00
FE00
ENDCHAR
STARTCHAR uni0433
ENCODING 1075
SWIDTH 418 0
DWIDTH 8 0
BBX 6 10 1 0
BITMAP
FC
FC
E0
E0
E0
E0
E0
E0
E0
E0
ENDCHAR
STARTCHAR uni0434
ENCODING 1076
SWIDTH 631 0
DWIDTH 11 0
BBX 11 13 0 -3
BITMAP
1FC0
3FC0
39C0
39C0
39C0
39C0
39C0
71C0
FFE0
FFE0
E0E0
E0E0
E0E0
ENDCHAR
STARTCHAR uni0435
ENCODING 1077
SWIDTH 540 0
DWIDTH 10 0
BBX 8 10 1 0
BITMAP
3C
7E
E7
C3
FF
FF
C0
E2
7F
3E
ENDCHAR
STARTCHAR uni0436
ENCODING 1078
SWIDTH 854 0
DWIDTH 15 0
BBX 15 10 0 0
BITMAP
F38E
739C
3B9C
1BB8
1FF0
1FF8
3BB8
3B9C
739C
F38E
ENDCHAR
STARTCHAR uni0437
ENCODING 1079
SWIDTH 513 0
DWIDTH 9 0
BBX 9 10 0 0
BITMAP
3E00
7F00
6300
0300
1F00
1F00
0300
E380
7F00
3E00
ENDCHAR
STARTCHAR uni0438
ENCODING 1080
SWIDTH 567 0
DWIDTH 10 0
BBX 8 10 1 0
BITMAP
E7
E7
EF
EF
FB
FB
F3
F3
E3
E3
ENDCHAR
STARTCHAR uni0439
ENCODING 1081
SWIDTH 567 0
DWIDTH 10 0
BBX 8 14 1 0
BITMAP
66
7E
3C
00
E7
E7
EF
EF
FB
FB
F3
F3
E3
E3
ENDCHAR
STARTCHAR uni043A
ENCODING 1082
SWIDTH 563 0
DWIDTH 10 0
BBX 9 10 1 0
BITMAP
E780
E700
EE00
EE00
FC00
FC00
EE00
EF00
E700
E380
ENDCHAR
STARTCHAR uni043B
ENCODING 1083
SWIDTH 568 0
DWIDTH 10 0
BBX 9 10 0 0
BITMAP
3F80
3F80
3180
3180
3180
3180
3180
7180
E180
E180
ENDCHAR
STARTCHAR uni043C
ENCODING 1084
SWIDTH 759 0
DWIDTH 14 0
BBX 11 10 1 0
BITMAP
E0E0
F0E0
F1E0
F9E0
F9E0
FB60
EF60
EF60
EE60
E660
ENDCHAR
STARTCHAR uni043D
ENCODING 1085
SWIDTH 567 0
DWIDTH 10 0
BBX 8 10 1 0
BITMAP
E3
E3
E3
E3
FF
FF
E3
E3
E3
E3
ENDCHAR
STARTCHAR uni043E
ENCODING 1086
SWIDTH 565 0
DWIDTH 10 0
BBX 10 10 0 0
BITMAP
1E00
3F00
7380
6180
E180
E1C0
6180
7380
3F00
1E00
ENDCHAR
STARTCHAR uni043F
ENCODING 1087
SWIDTH 567 0
DWIDTH 10 0
BBX 8 10 1 0
BITMAP
FF
FF
E3
E3
E3
E3
E3
E3
E3
E3
ENDCHAR
STARTCHAR uni0440
ENCODING 1088
SWIDTH 562 0
DWIDTH 10 0
BBX 8 14 1 -4
BITMAP
DE
FF
E7
C3
C3
C3
C3
E7
FF
DE
C0
C0
C0
C0
ENDCHAR
STARTCHAR uni0441
ENCODING 1089
SWIDTH 521 0
DWIDTH 9 0
BBX 9 10 0 0
BITMAP
1E00
7F00
7380
6380
E000
E000
6000
6380
7F00
1E00
ENDCHAR
STARTCHAR uni0442
ENCODING 1090
SWIDTH 509 0
DWIDTH 9 0
BBX 9 10 0 0
BITMAP
FF80
FF80
1C00
1C00
1C00
1C00
1C00
1C00
1C00
1C00
ENDCHAR
STARTCHAR uni0443
ENCODING 1091
SWIDTH 501 0
DWIDTH 9 0
BBX 9 14 0 -4
BITMAP
E380
6380
6300
7700
7700
3600
3E00
3E00
1C00
1C00
1C00
1800
7800
7000
ENDCHAR
STARTCHAR uni0444
ENCODING 1092
SWIDTH 730 0
DWIDTH 13 0
BBX 12 18 0 -4
BITMAP
0700
0700
0700
0700
3FE0
7FF0
7770
6730
6730
E730
6730
7770
7FF0
3FE0
0700
0700
0700
0700
ENDCHAR
STARTCHAR uni0445
ENCODING 1093
SWIDTH 508 0
DWIDTH 9 0
BBX 9 10 0 0
BITMAP
E380
7700
3700
3E00
1C00
1E00
3E00
3700
7700
E380
ENDCHAR
STARTCHAR uni0446
ENCODING 1094
SWIDTH 609 0
DWIDTH 11 0
BBX 10 13 1 -3
BITMAP
E300
E300
E300
E300
E300
E300
E300
E300
FFC0
FFC0
01C0
01C0
01C0
ENDCHAR
STARTCHAR uni0447
ENCODING 1095
SWIDTH 553 0
DWIDTH 10 0
BBX 8 10 1 0
BITMAP
C7
C7
C7
C7
E7
FF
3F
07
07
07
ENDCHAR
STARTCHAR uni0448
ENCODING 1096
SWIDTH 827 0
DWIDTH 15 0
BBX 13 10 1 0
BITMAP
E738
E738
E738
E738
E738
E738
E738
E738
FFF8
FFF8
ENDCHAR
STARTCHAR uni0449
ENCODING 1097
SWIDTH 899 0
DWIDTH 16 0
BBX 15 13 1 -3
BITMAP
C738
C738
C738
C738
C738
C738
C738
C738
FFFE
FFFE
000E
000E
000E
ENDCHAR
STARTCHAR uni044A
ENCODING 1098
SWIDTH 655 0
DWIDTH 12 0
BBX 12 10 0 0
BITMAP
FC00
FC00
1C00
1FC0
1FE0
1C60
1C70
1C60
1FE0
1FC0
ENDCHAR
STARTCHAR uni044B
ENCODING 1099
SWIDTH 827 0
DWIDTH 15 0
BBX 13 10 1 0
BITMAP
E038
E038
E038
FE38
FF38
E3B8
E3B8
E3B8
FF38
FE38
ENDCHAR
STARTCHAR uni044C
ENCODING 1100
SWIDTH 558 0
DWIDTH 10 0
BBX 9 10 1 0
BITMAP
E000
E000
E000
FE00
FF00
E300
E380
E300
FF00
FE00
ENDCHAR
STARTCHAR uni044D
ENCODING 1101
SWIDTH 520 0
DWIDTH 9 0
BBX 9 10 0 0
BITMAP
3C00
7F00
6300
E380
0F80
0F80
E380
6300
7F00
3C00
ENDCHAR
STARTCHAR uni044E
ENCODING 1102
SWIDTH 811 0
DWIDTH 15 0
BBX 13 10 1 0
BITMAP
E1E0
E7F0
E638
EE18
FE18
FE18
EE18
E638
E7F0
E1E0
ENDCHAR
STARTCHAR uni044F
ENCODING 1103
SWIDTH 559 0
DWIDTH 10 0
BBX 9 10 0 0
BITMAP
3F80
7F80
7380
6380
7380
7F80
3F80
3380
7380
E380
ENDCHAR
STARTCHAR uni0450
ENCODING 1104
SWIDTH 540 0
DWIDTH 10 0
BBX 8 14 1 0
BITMAP
70
30
18
00
3C
7E
E7
C3
FF
FF
C0
E2
7F
3E
ENDCHAR
STARTCHAR uni0451
ENCODING 1105
SWIDTH 540 0
DWIDTH 10 0
BBX 8 13 1 0
BITMAP
66
E6
00
3C
7E
E7
C3
FF
FF
C0
E2
7F
3E
ENDCHAR
STARTCHAR uni0452
ENCODING 1106
SWIDTH 559 0
DWIDTH 10 0
BBX 9 18 0 -4
BITMAP
6000
FC00
FC00
6000
6F00
7F80
7380
6180
6180
6180
6180
6180
6180
6180
0180
0380
0780
0F00
ENDCHAR
STARTCHAR uni0453
ENCODING 1107
SWIDTH 418 0
DWIDTH 8 0
BBX 6 14 1 0
BITMAP
1C
38
30
00
FC
FC
E0
E0
E0
E0
E0
E0
E0
E0
ENDCHAR
STARTCHAR uni0454
ENCODING 1108
SWIDTH 520 0
DWIDTH 9 0
BBX 9 10 0 0
BITMAP
1E00
7F00
6380
6380
FC00
FC00
6380
6380
7F00
1E00
ENDCHAR
STARTCHAR uni0455
ENCODING 1109
SWIDTH 514 0
DWIDTH 9 0
BBX 8 10 0 0
BITMAP
3E
7F
63
60
7E
1F
03
E3
7F
3E
ENDCHAR
STARTCHAR uni0456
ENCODING 1110
SWIDTH 265 0
DWIDTH 5 0
BBX 3 14 1 0
BITMAP
E0
E0
E0
00
E0
E0
E0
E0
E0
E0
E0
E0
E0
E0
ENDCHAR
STARTCHAR uni0457
ENCODING 1111
SWIDTH 273 0
DWIDTH 5 0
BBX 7 13 -1 0
BITMAP
C6
EE
00
38
38
38
38
38
38
38
38
38
38
ENDCHAR
STARTCHAR uni0458
ENCODING 1112
SWIDTH 259 0
DWIDTH 5 0
BBX 5 18 -1 -4
BITMAP
38
38
38
00
38
38
38
38
38
38
38
38
38
38
38
38
F0
E0
ENDCHAR
STARTCHAR uni0459
ENCODING 1113
SWIDTH 858 0
DWIDTH 15 0
BBX 15 10 0 0
BITMAP
3F80
3F80
3380
33F8
33FC
338E
738E
738E
E3FC
E3F8
ENDCHAR
STARTCHAR uni045A
ENCODING 1114
SWIDTH 861 0
DWIDTH 16 0
BBX 14 10 1 0
BITMAP
E300
E300
E300
E3F8
FFFC
FF8C
E38C
E38C
E3FC
E3F8
ENDCHAR
STARTCHAR uni045B
ENCODING 1115
SWIDTH 564 0
DWIDTH 10 0
BBX 9 14 0 0
BITMAP
6000
FC00
FC00
6000
6F00
7F80
7380
6380
6380
6380
6380
6380
6380
6380
ENDCHAR
STARTCHAR uni045C
ENCODING 1116
SWIDTH 563 0
DWIDTH 10 0
BBX 9 14 1 0
BITMAP
0E00
0C00
1800
0000
E780
E700
EE00
EE00
FC00
FC00
EE00
EF00
E700
E380
ENDCHAR
STARTCHAR uni045D
ENCODING 1117
SWIDTH 567 0
DWIDTH 10 0
BBX 8 14 1 0
BITMAP
70
38
18
00
E7
E7
EF
EF
FB
FB
F3
F3
E3
E3
ENDCHAR
STARTCHAR uni045E
ENCODING 1118
SWIDTH 501 0
DWIDTH 9 0
BBX 9 18 0 -4
BITMAP
2300
3E00
1C00
0000
E380
6380
6300
7700
7700
3600
3E00
3E00
1C00
1C00
1C00
1800
7800
7000
ENDCHAR
STARTCHAR uni045F
ENCODING 1119
SWIDTH 567 0
DWIDTH 10 0
BBX 8 13 1 -3
BITMAP
E3
E3
E3
E3
E3
E3
E3
E3
FF
FF
18
18
18
ENDCHAR
STARTCHAR uni0460
ENCODING 1120
SWIDTH 946 0
DWIDTH 17 0
BBX 15 13 1 0
BITMAP
E38E
E38E
E38E
E38E
E38E
E38E
E38E
E38E
E38E
E38E
E38E
7FFC
3CF8
ENDCHAR
STARTCHAR uni0461
ENCODING 1121
SWIDTH 820 0
DWIDTH 15 0
BBX 13 10 1 0
BITMAP
E718
E718
E718
E718
E718
E718
E718
E738
7FF0
3DE0
ENDCHAR
STARTCHAR uni0462
ENCODING 1122
SWIDTH 625 0
DWIDTH 11 0
BBX 11 13 0 0
BITMAP
7000
7000
FC00
FC00
7000
7F00
7FC0
71C0
70E0
70E0
71C0
7FC0
7F00
ENDCHAR
STARTCHAR uni0463
ENCODING 1123
SWIDTH 557 0
DWIDTH 10 0
BBX 10 14 0 0
BITMAP
7000
7000
7000
FC00
FC00
7000
7000
7F00
7F80
7180
71C0
7180
7F80
7F00
ENDCHAR
STARTCHAR uni0464
ENCODING 1124
SWIDTH 892 0
DWIDTH 16 0
BBX 15 13 1 0
BITMAP
E1F0
E3FC
E71C
E60E
EE00
FFE0
FFE0
EE00
EE00
E60E
E71C
E3FC
E1F0
ENDCHAR
STARTCHAR uni0465
ENCODING 1125
SWIDTH 754 0
DWIDTH 14 0
BBX 12 10 1 0
BITMAP
E3C0
E7F0
EE70
EE30
FF80
FF80
EE30
EE30
E7F0
E3C0
ENDCHAR
STARTCHAR uni0466
ENCODING 1126
SWIDTH 660 0
DWIDTH 12 0
BBX 12 13 0 0
BITMAP
0F00
0F00
0F00
1F80
1F80
1980
39C0
3FC0
3FC0
76E0
76E0
6660
E670
ENDCHAR
STARTCHAR uni0467
ENCODING 1127
SWIDTH 559 0
DWIDTH 10 0
BBX 10 10 0 0
BITMAP
1C00
1E00
1E00
3F00
3F00
3300
7F80
7F80
6D80
EDC0
ENDCHAR
STARTCHAR uni0468
ENCODING 1128
SWIDTH 935 0
DWIDTH 17 0
BBX 16 13 1 0
BITMAP
E0E0
E0F0
E0F0
E1F0
E1B8
E398
E398
FFFC
FFFC
E76C
E66E
EE6E
EE67
ENDCHAR
STARTCHAR uni0469
ENCODING 1129
SWIDTH 798 0
DWIDTH 14 0
BBX 13 10 1 0
BITMAP
E1C0
E3C0
E3C0
E3E0
E760
E670
FFF0
FFF0
EFB8
FDB8
ENDCHAR
STARTCHAR uni046A
ENCODING 1130
SWIDTH 871 0
DWIDTH 16 0
BBX 14 13 1 0
BITMAP
7FF8
3FF0
1C60
1CE0
0EC0
0FC0
3FF0
7FF8
E31C
E31C
E31C
E31C
E31C
ENDCHAR
STARTCHAR uni046B
ENCODING 1131
SWIDTH 733 0
DWIDTH 13 0
BBX 11 10 1 0
BITMAP
7FC0
3FC0
3B80
1B80
1F00
7FC0
FFE0
EEE0
CE60
CE60
ENDCHAR
STARTCHAR uni046C
ENCODING 1132
SWIDTH 1162 0
DWIDTH 21 0
BBX 19 13 1 0
BITMAP
E1FFC0
E1FF80
E0E380
E06700
E07600
E03E00
FFFF80
FFFFC0
E71CE0
E71CE0
E71CE0
E71CE0
E71CE0
ENDCHAR
STARTCHAR uni046D
ENCODING 1133
SWIDTH 1005 0
DWIDTH 18 0
BBX 16 10 1 0
BITMAP
E3FE
E1FC
E1DC
E0D8
FFFC
FFFE
E777
E677
E673
E673
ENDCHAR
STARTCHAR uni046E
ENCODING 1134
SWIDTH 513 0
DWIDTH 9 0
BBX 8 21 0 -4
BITMAP
67
3C
18
00
7C
7E
07
07
07
3E
3E
07
03
03
07
7E
FC
C0
C0
F0
20
ENDCHAR
STARTCHAR uni046F
ENCODING 1135
SWIDTH 503 0
DWIDTH 9 0
BBX 8 18 0 -4
BITMAP
67
3C
18
00
7C
7E
07
07
3E
3E
07
07
7F
FC
C0
E0
70
20
ENDCHAR
STARTCHAR uni0470
ENCODING 1136
SWIDTH 726 0
DWIDTH 13 0
BBX 13 13 0 0
BITMAP
E738
E738
E738
E738
E738
6730
7770
3FE0
1FC0
0700
0700
0700
0700
ENDCHAR
STARTCHAR uni0471
ENCODING 1137
SWIDTH 744 0
DWIDTH 13 0
BBX 13 14 0 -4
BITMAP
E770
E730
E730
E738
E738
E738
6730
7770
3FE0
0FC0
0700
0700
0700
0700
ENDCHAR
STARTCHAR uni0472
ENCODING 1138
SWIDTH 687 0
DWIDTH 12 0
BBX 10 13 1 0
BITMAP
1E00
7F80
61C0
E1C0
C0C0
FFC0
FFC0
C0C0
C0C0
E1C0
71C0
7F80
1E00
ENDCHAR
STARTCHAR uni0473
ENCODING 1139
SWIDTH 564 0
DWIDTH 10 0
BBX 10 10 0 0
BITMAP
1E00
3F00
7380
6180
FF80
7FC0
6180
7380
3F00
1E00
ENDCHAR
STARTCHAR uni0474
ENCODING 1140
SWIDTH 642 0
DWIDTH 12 0
BBX 12 13 0 0
BITMAP
E070
7070
70C0
70C0
30C0
3980
3980
1980
1B80
1F00
0F00
0F00
0E00
ENDCHAR
STARTCHAR uni0475
ENCODING 1141
SWIDTH 510 0
DWIDTH 9 0
BBX 9 10 0 0
BITMAP
E180
6380
6700
7600
7600
3600
3E00
3C00
1C00
1C00
ENDCHAR
STARTCHAR uni0476
ENCODING 1142
SWIDTH 642 0
DWIDTH 12 0
BBX 12 16 0 0
BITMAP
7E00
1B00
0000
E070
7070
70C0
70C0
30C0
3980
3980
1980
1B80
1F00
0F00
0F00
0E00
ENDCHAR
STARTCHAR uni0477
ENCODING 1143
SWIDTH 510 0
DWIDTH 9 0
BBX 9 13 0 0
BITMAP
FC00
3600
0000
E180
6380
6700
7600
7600
3600
3E00
3C00
1C00
1C00
ENDCHAR
STARTCHAR uni0478
ENCODING 1144
SWIDTH 1192 0
DWIDTH 21 0
BBX 20 17 1 -4
BITMAP
1E0000
7F8000
E1C000
E1DC30
C0CE70
C0CE70
C0C660
C0C6E0
C0C7E0
E1C3C0
E1C3C0
7F83C0
1E0180
000180
000380
000F00
000E00
ENDCHAR
STARTCHAR uni0479
ENCODING 1145
SWIDTH 1067 0
DWIDTH 19 0
BBX 19 14 0 -4
BITMAP
1E38E0
3F18E0
739CC0
619DC0
E18DC0
E1CD80
618F80
738780
3F0700
1E0700
000700
000600
001E00
001C00
ENDCHAR
STARTCHAR uni047A
ENCODING 1146
SWIDTH 687 0
DWIDTH 12 0
BBX 11 15 1 -1
BITMAP
0C00
1F00
7F80
6DC0
E1C0
C0C0
C0C0
C0E0
C0C0
C0C0
E1C0
6DC0
7F80
1F00
0C00
ENDCHAR
STARTCHAR uni047B
ENCODING 1147
SWIDTH 564 0
DWIDTH 10 0
BBX 10 12 0 -1
BITMAP
0C00
1E00
3F00
7F80
6180
E180
E1C0
6180
7F80
3F00
1E00
0C00
ENDCHAR
STARTCHAR uni047C
ENCODING 1148
SWIDTH 946 0
DWIDTH 17 0
BBX 15 16 1 0
BITMAP
0780
0460
0100
3138
733C
E00C
E00E
E00E
E00E
E38E
E38E
E38E
E38E
E38C
7FFC
3CF8
ENDCHAR
STARTCHAR uni047D
ENCODING 1149
SWIDTH 808 0
DWIDTH 15 0
BBX 13 13 1 0
BITMAP
0F00
08E0
0300
3260
7670
E038
E038
E738
E738
E738
E738
7FF0
3DE0
ENDCHAR
STARTCHAR uni047E
ENCODING 1150
SWIDTH 946 0
DWIDTH 17 0
BBX 15 16 1 0
BITMAP
0FE0
0100
0000
E38E
E38E
E38E
E38E
E38E
E38E
E38E
E38E
E38E
E38E
E38E
7FFC
3CF8
ENDCHAR
STARTCHAR uni047F
ENCODING 1151
SWIDTH 820 0
DWIDTH 15 0
BBX 13 13 1 0
BITMAP
1FC0
0200
0000
E718
E718
E718
E718
E718
E718
E718
E738
7FF0
3DE0
ENDCHAR
STARTCHAR uni0480
ENCODING 1152
SWIDTH 621 0
DWIDTH 11 0
BBX 9 16 1 -3
BITMAP
3E00
7F80
E380
E180
C000
C000
C000
C000
C000
E000
E000
7C00
3C00
0C00
0C00
0C00
ENDCHAR
STARTCHAR uni0481
ENCODING 1153
SWIDTH 534 0
DWIDTH 10 0
BBX 8 13 1 -3
BITMAP
3E
7F
E7
E3
E0
E0
E0
E0
7C
3C
1C
1C
1C
ENDCHAR
STARTCHAR uni0482
ENCODING 1154
SWIDTH 622 0
DWIDTH 11 0
BBX 9 12 1 0
BITMAP
0180
2300
3A00
0E00
0700
0D80
C800
7800
3800
2E00
6400
C000
ENDCHAR
STARTCHAR uni0483
ENCODING 1155
SWIDTH 0 0
DWIDTH 0 0
BBX 6 3 -8 11
BITMAP
04
FC
C0
ENDCHAR
STARTCHAR uni0484
ENCODING 1156
SWIDTH 0 0
DWIDTH 0 0
BBX 7 2 -8 11
BITMAP
1C
E2
ENDCHAR
STARTCHAR uni0485
ENCODING 1157
SWIDTH 0 0
DWIDTH 0 0
BBX 2 3 -5 11
BITMAP
80
80
40
ENDCHAR
STARTCHAR uni0486
ENCODING 1158
SWIDTH 0 0
DWIDTH 0 0
BBX 2 3 -5 11
BITMAP
C0
C0
80
ENDCHAR
STARTCHAR uni0488
ENCODING 1160
SWIDTH 0 0
DWIDTH 0 0
BBX 17 16 -13 -3
BITMAP
01C000
014000
020000
380E00
280A00
400000
000000
600300
900480
000000
000000
000000
380E00
480A00
01C000
014000
ENDCHAR
STARTCHAR uni0489
ENCODING 1161
SWIDTH 0 0
DWIDTH 0 0
BBX 17 17 -13 -4
BITMAP
004000
008000
108000
180600
080C00
000000
000000
E00200
300180
000000
000000
000800
0C0800
300400
00C400
008000
008000
ENDCHAR
STARTCHAR uni048A
ENCODING 1162
SWIDTH 777 0
DWIDTH 14 0
BBX 12 19 1 -2
BITMAP
3300
1F00
1E00
0000
E0C0
E1C0
E3C0
E3C0
E7C0
E6C0
EEC0
FCC0
F8C0
F8C0
F0F0
F0F0
E0F0
0030
0060
ENDCHAR
STARTCHAR uni048B
ENCODING 1163
SWIDTH 652 0
DWIDTH 12 0
BBX 10 16 1 -2
BITMAP
6600
7E00
3C00
0000
E700
E700
EF00
EF00
FB00
FB00
F300
F3C0
E3C0
E3C0
0180
0180
ENDCHAR
STARTCHAR uni048C
ENCODING 1164
SWIDTH 625 0
DWIDTH 11 0
BBX 11 13 0 0
BITMAP
7000
7000
FC00
FC00
7000
7F00
7FC0
71C0
70E0
70E0
71C0
7FC0
7F00
ENDCHAR
STARTCHAR uni048D
ENCODING 1165
SWIDTH 557 0
DWIDTH 10 0
BBX 10 14 0 0
BITMAP
7000
FC00
FC00
7000
7000
7000
7000
7F00
7F80
7180
71C0
7180
7F80
7F00
ENDCHAR
STARTCHAR uni048E
ENCODING 1166
SWIDTH 628 0
DWIDTH 11 0
BBX 10 13 1 0
BITMAP
FE00
FF80
E380
E1C0
E5C0
E3C0
FF80
FF80
E0C0
E000
E000
E000
E000
ENDCHAR
STARTCHAR uni048F
ENCODING 1167
SWIDTH 563 0
DWIDTH 10 0
BBX 8 14 1 -4
BITMAP
DE
FF
E7
C3
C3
C3
CF
E7
FF
DF
C2
C0
C0
C0
ENDCHAR
STARTCHAR uni0490
ENCODING 1168
SWIDTH 555 0
DWIDTH 10 0
BBX 9 16 1 0
BITMAP
0380
0380
0380
FF80
FF80
E000
E000
E000
E000
E000
E000
E000
E000
E000
E000
E000
ENDCHAR
STARTCHAR uni0491
ENCODING 1169
SWIDTH 461 0
DWIDTH 8 0
BBX 7 13 1 0
BITMAP
0E
0E
0E
FE
FE
C0
C0
C0
C0
C0
C0
C0
C0
ENDCHAR
STARTCHAR uni0492
ENCODING 1170
SWIDTH 557 0
DWIDTH 10 0
BBX 10 13 0 0
BITMAP
7FC0
7FC0
7000
7000
7000
FC00
FC00
7000
7000
7000
7000
7000
7000
ENDCHAR
STARTCHAR uni0493
ENCODING 1171
SWIDTH 418 0
DWIDTH 8 0
BBX 8 10 -1 0
BITMAP
3F
3F
38
38
FE
FE
38
38
38
38
ENDCHAR
STARTCHAR uni0494
ENCODING 1172
SWIDTH 622 0
DWIDTH 11 0
BBX 9 16 1 -3
BITMAP
FF00
FF00
E000
E000
E000
E000
FE00
FF00
E380
E180
E180
E180
E180
0380
0700
0600
ENDCHAR
STARTCHAR uni0495
ENCODING 1173
SWIDTH 528 0
DWIDTH 10 0
BBX 8 13 1 -3
BITMAP
FE
FE
E0
E0
FC
FE
E7
E7
E3
E7
07
0E
04
ENDCHAR
STARTCHAR uni0496
ENCODING 1174
SWIDTH 1068 0
DWIDTH 19 0
BBX 19 16 0 -3
BITMAP
F0C3C0
70C380
38C700
1CC600
1CCE00
0FFC00
0FFC00
1CCE00
1CC700
38C700
38C380
70C3E0
F0C3E0
000060
000060
000060
ENDCHAR
STARTCHAR uni0497
ENCODING 1175
SWIDTH 908 0
DWIDTH 16 0
BBX 16 13 0 -3
BITMAP
F38E
739C
3B9C
1BB8
1FF0
1FF8
3BB8
3B9C
739F
738F
8003
0003
0003
ENDCHAR
STARTCHAR uni0498
ENCODING 1176
SWIDTH 616 0
DWIDTH 11 0
BBX 9 17 1 -4
BITMAP
3E00
FF00
E380
C380
0380
1F00
1F00
0380
0180
C180
E380
FF00
3E00
1C00
1C00
1C00
1C00
ENDCHAR
STARTCHAR uni0499
ENCODING 1177
SWIDTH 513 0
DWIDTH 9 0
BBX 9 14 0 -4
BITMAP
3E00
7F00
6300
0300
1F00
1F00
0300
E380
7F00
3E00
1C00
1C00
1C00
1C00
ENDCHAR
STARTCHAR uni049A
ENCODING 1178
SWIDTH 743 0
DWIDTH 13 0
BBX 12 16 1 -3
BITMAP
E1C0
E380
E380
E700
EE00
FE00
FE00
E600
E700
E380
E380
E1F0
E1F0
0070
0070
0070
ENDCHAR
STARTCHAR uni049B
ENCODING 1179
SWIDTH 649 0
DWIDTH 12 0
BBX 10 13 1 -3
BITMAP
E780
E700
EE00
EE00
FC00
FC00
EE00
EF00
E7C0
E3C0
00C0
00C0
00C0
ENDCHAR
STARTCHAR uni049C
ENCODING 1180
SWIDTH 661 0
DWIDTH 12 0
BBX 11 13 1 0
BITMAP
E1E0
E1C0
E380
FB80
FB00
FF00
FF00
FB00
FB80
E380
E1C0
E1C0
E0E0
ENDCHAR
STARTCHAR uni049D
ENCODING 1181
SWIDTH 602 0
DWIDTH 11 0
BBX 10 10 1 0
BITMAP
E3C0
E380
FB00
FF00
FE00
FE00
FF00
E380
E380
E3C0
ENDCHAR
STARTCHAR uni049E
ENCODING 1182
SWIDTH 655 0
DWIDTH 12 0
BBX 12 13 0 0
BITMAP
70F0
71C0
FDC0
FF80
7700
7F00
7F00
7380
7380
71C0
71C0
70E0
7070
ENDCHAR
STARTCHAR uni049F
ENCODING 1183
SWIDTH 544 0
DWIDTH 10 0
BBX 11 14 -1 0
BITMAP
3800
FC00
FC00
3800
39E0
39C0
3B80
3B00
3F00
3F00
3B80
3B80
39C0
38E0
ENDCHAR
STARTCHAR uni04A0
ENCODING 1184
SWIDTH 825 0
DWIDTH 15 0
BBX 15 13 0 0
BITMAP
FE1E
FE1C
0E38
0E70
0E70
0FE0
0FE0
0E70
0E70
0E38
0E1C
0E1C
0E0E
ENDCHAR
STARTCHAR uni04A1
ENCODING 1185
SWIDTH 715 0
DWIDTH 13 0
BBX 12 10 1 0
BITMAP
FCF0
FCE0
1DC0
1D80
1F80
1F80
1DC0
1DC0
1CE0
1CF0
ENDCHAR
STARTCHAR uni04A2
ENCODING 1186
SWIDTH 781 0
DWIDTH 14 0
BBX 12 16 1 -3
BITMAP
E0E0
E0E0
E0E0
E0E0
E0E0
FFE0
FFE0
E0E0
E0E0
E0E0
E0E0
E0F0
E0F0
0030
0030
0030
ENDCHAR
STARTCHAR uni04A3
ENCODING 1187
SWIDTH 648 0
DWIDTH 12 0
BBX 10 13 1 -3
BITMAP
E300
E300
E300
E300
FF00
FF00
E300
E300
E3C0
E3C0
00C0
00C0
00C0
ENDCHAR
STARTCHAR uni04A4
ENCODING 1188
SWIDTH 984 0
DWIDTH 18 0
BBX 16 13 1 0
BITMAP
E0FF
E0FF
E0E0
E0E0
E0E0
FFE0
FFE0
E0E0
E0E0
E0E0
E0E0
E0E0
E0E0
ENDCHAR
STARTCHAR uni04A5
ENCODING 1189
SWIDTH 706 0
DWIDTH 13 0
BBX 11 10 1 0
BITMAP
C3E0
C3E0
C300
C300
FF00
FF00
C300
C300
C300
C300
ENDCHAR
STARTCHAR uni04A6
ENCODING 1190
SWIDTH 1044 0
DWIDTH 19 0
BBX 17 16 1 -3
BITMAP
FFE000
FFE000
E0E000
E0E000
E0E000
E0E000
E0FE00
E0FF00
E0E380
E0E380
E0E180
E0E180
E0E180
000380
000F00
000E00
ENDCHAR
STARTCHAR uni04A7
ENCODING 1191
SWIDTH 865 0
DWIDTH 16 0
BBX 14 12 1 -2
BITMAP
FF00
FF00
E300
E300
E3F0
E3F8
E31C
E30C
E30C
E31C
0038
0010
ENDCHAR
STARTCHAR uni04A8
ENCODING 1192
SWIDTH 803 0
DWIDTH 14 0
BBX 12 13 1 0
BITMAP
33C0
77E0
E670
E630
CE30
CE30
CE30
C630
E770
E7F0
73E0
3FF0
1F30
ENDCHAR
STARTCHAR uni04A9
ENCODING 1193
SWIDTH 645 0
DWIDTH 12 0
BBX 10 10 1 0
BITMAP
3780
77C0
EDC0
ECC0
ECC0
ECC0
EDC0
7780
7FC0
1FC0
ENDCHAR
STARTCHAR uni04AA
ENCODING 1194
SWIDTH 654 0
DWIDTH 12 0
BBX 10 17 1 -4
BITMAP
1F00
7F80
71C0
E1C0
E0C0
C000
C000
C000
E000
E1C0
61C0
7F80
1F00
0C00
0C00
0C00
0C00
ENDCHAR
STARTCHAR uni04AB
ENCODING 1195
SWIDTH 521 0
DWIDTH 9 0
BBX 9 14 0 -4
BITMAP
1E00
7F00
7380
6380
E000
E000
6380
6380
7F00
1E00
0C00
0C00
0C00
0C00
ENDCHAR
STARTCHAR uni04AC
ENCODING 1196
SWIDTH 618 0
DWIDTH 11 0
BBX 11 16 0 -3
BITMAP
FFE0
FFE0
0E00
0E00
0E00
0E00
0E00
0E00
0E00
0E00
0E00
0F80
0F80
0380
0380
0380
ENDCHAR
STARTCHAR uni04AD
ENCODING 1197
SWIDTH 509 0
DWIDTH 9 0
BBX 9 13 0 -3
BITMAP
FF80
FF80
1C00
1C00
1C00
1C00
1C00
1C00
1F00
1F00
0700
0700
0700
ENDCHAR
STARTCHAR uni04AE
ENCODING 1198
SWIDTH 618 0
DWIDTH 11 0
BBX 11 13 0 0
BITMAP
E0E0
70C0
71C0
3180
3B80
1B00
1F00
0E00
0E00
0E00
0E00
0E00
0E00
ENDCHAR
STARTCHAR uni04AF
ENCODING 1199
SWIDTH 510 0
DWIDTH 9 0
BBX 9 14 0 -4
BITMAP
E380
6300
6300
7700
3700
3600
3600
3E00
1C00
1C00
1C00
1C00
1C00
1C00
ENDCHAR
STARTCHAR uni04B0
ENCODING 1200
SWIDTH 618 0
DWIDTH 11 0
BBX 11 13 0 0
BITMAP
E0E0
71C0
71C0
3180
3B80
1B00
1F00
3F80
3F80
0E00
0E00
0E00
0E00
ENDCHAR
STARTCHAR uni04B1
ENCODING 1201
SWIDTH 510 0
DWIDTH 9 0
BBX 9 14 0 -4
BITMAP
E380
6300
6300
7700
3600
3600
3600
1C00
7F00
7F00
1C00
1C00
1C00
1C00
ENDCHAR
STARTCHAR uni04B2
ENCODING 1202
SWIDTH 666 0
DWIDTH 12 0
BBX 12 16 0 -3
BITMAP
F0E0
71C0
39C0
3B80
1F80
1F00
0E00
1F00
1F80
3B80
39C0
71F0
F0F0
0070
0070
0070
ENDCHAR
STARTCHAR uni04B3
ENCODING 1203
SWIDTH 542 0
DWIDTH 10 0
BBX 10 13 0 -3
BITMAP
E380
7700
3700
3E00
1C00
1E00
3E00
3700
77C0
E3C0
01C0
01C0
01C0
ENDCHAR
STARTCHAR uni04B4
ENCODING 1204
SWIDTH 895 0
DWIDTH 16 0
BBX 15 16 0 -3
BITMAP
FF9C
FF9C
1C1C
1C1C
1C1C
1C1C
1C1C
1C1C
1C1C
1C1C
1C1C
1FFE
1FFE
0006
0006
0006
ENDCHAR
STARTCHAR uni04B5
ENCODING 1205
SWIDTH 687 0
DWIDTH 12 0
BBX 12 13 0 -3
BITMAP
FEE0
FEE0
38E0
38E0
38E0
38E0
38E0
38E0
3FF0
3FF0
0070
0070
0070
ENDCHAR
STARTCHAR uni04B6
ENCODING 1206
SWIDTH 767 0
DWIDTH 14 0
BBX 12 16 1 -3
BITMAP
E0E0
E0E0
E0E0
E0E0
E0E0
70E0
7FE0
1FE0
00E0
00E0
00E0
00F0
00F0
0030
0030
0030
ENDCHAR
STARTCHAR uni04B7
ENCODING 1207
SWIDTH 636 0
DWIDTH 11 0
BBX 10 13 1 -3
BITMAP
C700
C700
C700
C700
E700
FF00
3F00
0700
07C0
07C0
01C0
01C0
01C0
ENDCHAR
STARTCHAR uni04B8
ENCODING 1208
SWIDTH 680 0
DWIDTH 12 0
BBX 10 13 1 0
BITMAP
E1C0
E1C0
E1C0
EDC0
EDC0
EDC0
7FC0
3FC0
0DC0
0DC0
01C0
01C0
01C0
ENDCHAR
STARTCHAR uni04B9
ENCODING 1209
SWIDTH 560 0
DWIDTH 10 0
BBX 8 10 1 0
BITMAP
C3
C3
C3
DB
FB
FF
3F
1B
03
03
ENDCHAR
STARTCHAR uni04BA
ENCODING 1210
SWIDTH 698 0
DWIDTH 13 0
BBX 11 13 1 0
BITMAP
E000
E000
E000
E000
E000
FF00
FFC0
E1C0
E0C0
E0E0
E0E0
E0E0
E0E0
ENDCHAR
STARTCHAR uni04BB
ENCODING 1211
SWIDTH 559 0
DWIDTH 10 0
BBX 8 14 1 0
BITMAP
C0
C0
C0
C0
DE
FF
E7
C3
C3
C3
C3
C3
C3
C3
ENDCHAR
STARTCHAR uni04BC
ENCODING 1212
SWIDTH 756 0
DWIDTH 14 0
BBX 13 13 0 0
BITMAP
03C0
0FF0
1C30
DC38
D838
7FF8
3FF8
1800
1C00
1C00
0E10
0FF0
03F0
ENDCHAR
STARTCHAR uni04BD
ENCODING 1213
SWIDTH 597 0
DWIDTH 11 0
BBX 11 10 0 0
BITMAP
0F80
1FC0
98C0
F8E0
FFE0
7FE0
3800
3840
1FC0
0F80
ENDCHAR
STARTCHAR uni04BE
ENCODING 1214
SWIDTH 756 0
DWIDTH 14 0
BBX 13 17 0 -4
BITMAP
03C0
0FF0
1C30
DC38
D838
7FF8
3FF8
1800
1C00
1C00
0E10
0FF0
03F0
01C0
01C0
01C0
01C0
ENDCHAR
STARTCHAR uni04BF
ENCODING 1215
SWIDTH 597 0
DWIDTH 11 0
BBX 11 14 0 -4
BITMAP
0F80
1FC0
98C0
F8E0
FFE0
7FE0
3800
3840
1FC0
0F80
0700
0700
0700
0700
ENDCHAR
STARTCHAR uni04C0
ENCODING 1216
SWIDTH 291 0
DWIDTH 5 0
BBX 3 13 1 0
BITMAP
E0
E0
E0
E0
E0
E0
E0
E0
E0
E0
E0
E0
E0
ENDCHAR
STARTCHAR uni04C1
ENCODING 1217
SWIDTH 997 0
DWIDTH 18 0
BBX 18 17 0 0
BITMAP
033000
03F000
01E000
000000
F0C3C0
70C380
38C700
1CC600
1CCE00
0FFC00
0FFC00
1CCE00
1CC700
38C700
38C380
70C380
F0C3C0
ENDCHAR
STARTCHAR uni04C2
ENCODING 1218
SWIDTH 854 0
DWIDTH 15 0
BBX 15 14 0 0
BITMAP
0660
07E0
03C0
0000
F38E
739C
3B9C
1BB8
1FF0
1FF8
3BB8
3B9C
739C
F38E
ENDCHAR
STARTCHAR uni04C3
ENCODING 1219
SWIDTH 649 0
DWIDTH 12 0
BBX 11 16 1 -3
BITMAP
E1C0
E380
E700
E700
EE00
FE00
FF80
E1C0
E0C0
E0C0
E0E0
E0C0
E0C0
01C0
0380
0300
ENDCHAR
STARTCHAR uni04C4
ENCODING 1220
SWIDTH 570 0
DWIDTH 10 0
BBX 9 13 1 -3
BITMAP
E780
E700
EE00
EC00
FC00
FE00
E700
E380
E380
E380
0700
0F00
0400
ENDCHAR
STARTCHAR uni04C5
ENCODING 1221
SWIDTH 781 0
DWIDTH 14 0
BBX 13 15 0 -2
BITMAP
1FF0
1FF0
1C70
1C70
1C70
1870
1870
1870
1870
3870
3878
F078
E078
0018
0030
ENDCHAR
STARTCHAR uni04C6
ENCODING 1222
SWIDTH 652 0
DWIDTH 12 0
BBX 11 12 0 -2
BITMAP
3F80
3F80
3180
3180
3180
3180
3180
71E0
E1E0
E1E0
00C0
00C0
ENDCHAR
STARTCHAR uni04C7
ENCODING 1223
SWIDTH 707 0
DWIDTH 13 0
BBX 11 17 1 -4
BITMAP
E0E0
E0E0
E0E0
E0E0
E0E0
FFE0
FFE0
E0E0
E0E0
E0E0
E0E0
E0E0
E0E0
00E0
00E0
03C0
0380
ENDCHAR
STARTCHAR uni04C8
ENCODING 1224
SWIDTH 564 0
DWIDTH 10 0
BBX 8 14 1 -4
BITMAP
C3
C3
C3
C3
FF
FF
C3
C3
C3
C3
03
07
0F
0E
ENDCHAR
STARTCHAR uni04C9
ENCODING 1225
SWIDTH 783 0
DWIDTH 14 0
BBX 12 15 1 -2
BITMAP
E0E0
E0E0
E0E0
E0E0
E0E0
FFE0
FFE0
E0E0
E0E0
E0E0
E0F0
E0F0
E0F0
0030
0060
ENDCHAR
STARTCHAR uni04CA
ENCODING 1226
SWIDTH 650 0
DWIDTH 12 0
BBX 10 12 1 -2
BITMAP
E300
E300
E300
E300
FF00
FF00
E300
E3C0
E3C0
E3C0
0180
0180
ENDCHAR
STARTCHAR uni04CB
ENCODING 1227
SWIDTH 695 0
DWIDTH 13 0
BBX 11 16 1 -3
BITMAP
E0E0
E0E0
E0E0
E0E0
E0E0
70E0
7FE0
1FE0
00E0
00E0
00E0
03E0
03E0
0300
0300
0300
ENDCHAR
STARTCHAR uni04CC
ENCODING 1228
SWIDTH 553 0
DWIDTH 10 0
BBX 8 13 1 -3
BITMAP
C7
C7
C7
C7
E7
FF
3F
07
1F
1F
1C
1C
1C
ENDCHAR
STARTCHAR uni04CD
ENCODING 1229
SWIDTH 950 0
DWIDTH 17 0
BBX 15 15 1 -2
BITMAP
F03C
F03C
F07C
F87C
F87C
FCDC
ECDC
ECDC
EF9C
E79C
E79E
E71E
E31E
0006
000C
ENDCHAR
STARTCHAR uni04CE
ENCODING 1230
SWIDTH 829 0
DWIDTH 15 0
BBX 13 12 1 -2
BITMAP
E0E0
F0E0
F1E0
F9E0
F9E0
FB60
EF60
EF78
EE78
E678
0018
0030
ENDCHAR
STARTCHAR uni04CF
ENCODING 1231
SWIDTH 291 0
DWIDTH 5 0
BBX 3 13 1 0
BITMAP
E0
E0
E0
E0
E0
E0
E0
E0
E0
E0
E0
E0
E0
ENDCHAR
STARTCHAR uni04D0
ENCODING 1232
SWIDTH 672 0
DWIDTH 12 0
BBX 12 17 0 0
BITMAP
1980
1F80
0F00
0000
0600
0F00
0F00
0F80
1F80
1980
39C0
39C0
3FC0
7FE0
7060
6070
E070
ENDCHAR
STARTCHAR uni04D1
ENCODING 1233
SWIDTH 536 0
DWIDTH 10 0
BBX 8 14 1 0
BITMAP
66
7E
3C
00
3C
FE
C7
07
7F
FF
C7
C7
FF
7F
ENDCHAR
STARTCHAR uni04D2
ENCODING 1234
SWIDTH 672 0
DWIDTH 12 0
BBX 12 16 0 0
BITMAP
1980
1980
0000
0600
0F00
0F00
0F80
1F80
1980
39C0
39C0
3FC0
7FE0
7060
6070
E070
ENDCHAR
STARTCHAR uni04D3
ENCODING 1235
SWIDTH 536 0
DWIDTH 10 0
BBX 8 13 1 0
BITMAP
66
E6
00
3C
FE
C7
07
7F
FF
C7
C7
FF
7F
ENDCHAR
STARTCHAR uni04D4
ENCODING 1236
SWIDTH 939 0
DWIDTH 17 0
BBX 16 13 0 0
BITMAP
01FF
03FF
03E0
07E0
06E0
0EFE
1CFE
1CE0
3FE0
3FE0
70E0
70FF
E0FF
ENDCHAR
STARTCHAR uni04D5
ENCODING 1237
SWIDTH 844 0
DWIDTH 15 0
BBX 15 10 0 0
BITMAP
1EF8
7FFC
738C
038E
3FFE
7FFE
6380
E3C4
7FFC
3C78
ENDCHAR
STARTCHAR uni04D6
ENCODING 1238
SWIDTH 562 0
DWIDTH 10 0
BBX 9 17 1 0
BITMAP
2300
3E00
1C00
0000
FF80
FF80
E000
E000
E000
FF00
FF00
E000
E000
E000
E000
FF80
FF80
ENDCHAR
STARTCHAR uni04D7
ENCODING 1239
SWIDTH 540 0
DWIDTH 10 0
BBX 8 14 1 0
BITMAP
66
7E
3C
00
3C
7E
E7
C3
FF
FF
C0
E2
7F
3E
ENDCHAR
STARTCHAR uni04D8
ENCODING 1240
SWIDTH 694 0
DWIDTH 13 0
BBX 11 13 1 0
BITMAP
7F00
7F80
81C0
00E0
00E0
00E0
FFE0
FFE0
E0E0
E0C0
71C0
7F80
1F00
ENDCHAR
STARTCHAR uni04D9
ENCODING 1241
SWIDTH 529 0
DWIDTH 10 0
BBX 8 10 1 0
BITMAP
7C
FE
87
03
FF
FF
C3
E7
7E
3C
ENDCHAR
STARTCHAR uni04DA
ENCODING 1242
SWIDTH 694 0
DWIDTH 13 0
BBX 11 15 1 0
BITMAP
3300
7300
7F00
7F80
81C0
00E0
00E0
00E0
FFE0
FFE0
E0E0
E0C0
71C0
7F80
1F00
ENDCHAR
STARTCHAR uni04DB
ENCODING 1243
SWIDTH 529 0
DWIDTH 10 0
BBX 8 13 1 0
BITMAP
66
E6
00
7C
FE
87
03
FF
FF
C3
E7
7E
3C
ENDCHAR
STARTCHAR uni04DC
ENCODING 1244
SWIDTH 997 0
DWIDTH 18 0
BBX 18 16 0 0
BITMAP
033000
033000
000000
F0C3C0
70C380
38C700
1CC600
1CCE00
0FFC00
0FFC00
1CCE00
1CC700
38C700
38C380
70C380
F0C3C0
ENDCHAR
STARTCHAR uni04DD
ENCODING 1245
SWIDTH 854 0
DWIDTH 15 0
BBX 15 13 0 0
BITMAP
0660
0E60
0000
F38E
739C
3B9C
1BB8
1FF0
1FF8
3BB8
3B9C
739C
F38E
ENDCHAR
STARTCHAR uni04DE
ENCODING 1246
SWIDTH 616 0
DWIDTH 11 0
BBX 9 16 1 0
BITMAP
6300
7700
0000
3E00
FF00
E380
C380
0380
1F00
1F00
0380
0180
C180
E380
FF00
3E00
ENDCHAR
STARTCHAR uni04DF
ENCODING 1247
SWIDTH 513 0
DWIDTH 9 0
BBX 9 13 0 0
BITMAP
7300
7300
0000
3E00
7F00
6300
0300
1F00
1F00
0300
E380
7F00
3E00
ENDCHAR
STARTCHAR uni04E0
ENCODING 1248
SWIDTH 578 0
DWIDTH 10 0
BBX 10 13 0 0
BITMAP
7F80
7F80
0380
0700
0E00
1F00
1F80
0380
01C0
E1C0
7180
7F80
1F00
ENDCHAR
STARTCHAR uni04E1
ENCODING 1249
SWIDTH 579 0
DWIDTH 10 0
BBX 10 13 0 -3
BITMAP
7F80
7F80
0380
0700
0E00
1F00
1F80
0380
01C0
E1C0
7180
7F80
1E00
ENDCHAR
STARTCHAR uni04E2
ENCODING 1250
SWIDTH 700 0
DWIDTH 13 0
BBX 10 16 1 0
BITMAP
3F00
3F00
0000
E0C0
E1C0
E3C0
E3C0
E7C0
E6C0
EEC0
FCC0
F8C0
F8C0
F0C0
F0C0
E0C0
ENDCHAR
STARTCHAR uni04E3
ENCODING 1251
SWIDTH 567 0
DWIDTH 10 0
BBX 8 13 1 0
BITMAP
7E
7E
00
E7
E7
EF
EF
FB
FB
F3
F3
E3
E3
ENDCHAR
STARTCHAR uni04E4
ENCODING 1252
SWIDTH 700 0
DWIDTH 13 0
BBX 10 16 1 0
BITMAP
3300
3380
0000
E0C0
E1C0
E3C0
E3C0
E7C0
E6C0
EEC0
FCC0
F8C0
F8C0
F0C0
F0C0
E0C0
ENDCHAR
STARTCHAR uni04E5
ENCODING 1253
SWIDTH 567 0
DWIDTH 10 0
BBX 8 13 1 0
BITMAP
66
67
00
E7
E7
EF
EF
FB
FB
F3
F3
E3
E3
ENDCHAR
STARTCHAR uni04E6
ENCODING 1254
SWIDTH 690 0
DWIDTH 12 0
BBX 10 16 1 0
BITMAP
3300
3380
0000
1E00
7F80
E1C0
E1C0
C0C0
C0C0
C0C0
C0C0
C0C0
E1C0
E1C0
7F80
1E00
ENDCHAR
STARTCHAR uni04E7
ENCODING 1255
SWIDTH 565 0
DWIDTH 10 0
BBX 10 13 0 0
BITMAP
3300
3300
0000
1E00
3F00
7380
6180
E180
E1C0
6180
7380
3F00
1E00
ENDCHAR
STARTCHAR uni04E8
ENCODING 1256
SWIDTH 687 0
DWIDTH 12 0
BBX 10 13 1 0
BITMAP
1E00
7F80
61C0
E1C0
C0C0
FFC0
FFC0
C0C0
C0C0
E1C0
71C0
7F80
1E00
ENDCHAR
STARTCHAR uni04E9
ENCODING 1257
SWIDTH 564 0
DWIDTH 10 0
BBX 10 10 0 0
BITMAP
1E00
3F00
7380
6180
FF80
7FC0
6180
7380
3F00
1E00
ENDCHAR
STARTCHAR uni04EA
ENCODING 1258
SWIDTH 687 0
DWIDTH 12 0
BBX 10 16 1 0
BITMAP
3380
3380
0000
1E00
7F80
61C0
E1C0
C0C0
FFC0
FFC0
C0C0
C0C0
E1C0
71C0
7F80
1E00
ENDCHAR
STARTCHAR uni04EB
ENCODING 1259
SWIDTH 564 0
DWIDTH 10 0
BBX 10 13 0 0
BITMAP
3300
3300
0000
1E00
3F00
7380
6180
FF80
7FC0
6180
7380
3F00
1E00
ENDCHAR
STARTCHAR uni04EC
ENCODING 1260
SWIDTH 650 0
DWIDTH 12 0
BBX 10 16 1 0
BITMAP
3300
7300
0000
3E00
7F80
E380
C1C0
01C0
1FC0
1FC0
01C0
01C0
C1C0
E380
7F80
3E00
ENDCHAR
STARTCHAR uni04ED
ENCODING 1261
SWIDTH 520 0
DWIDTH 9 0
BBX 9 13 0 0
BITMAP
7300
7300
0000
3C00
7F00
6300
E380
0F80
0F80
E380
6300
7F00
3C00
ENDCHAR
STARTCHAR uni04EE
ENCODING 1262
SWIDTH 631 0
DWIDTH 11 0
BBX 11 16 0 0
BITMAP
1F80
1F80
0000
E0E0
70C0
71C0
3980
3B80
1B80
1F00
0F00
0E00
0E00
0C00
3C00
3800
ENDCHAR
STARTCHAR uni04EF
ENCODING 1263
SWIDTH 501 0
DWIDTH 9 0
BBX 9 17 0 -4
BITMAP
3F00
3F00
0000
E380
6380
6300
7700
7700
3600
3E00
3E00
1C00
1C00
1C00
1800
7800
7000
ENDCHAR
STARTCHAR uni04F0
ENCODING 1264
SWIDTH 631 0
DWIDTH 11 0
BBX 11 16 0 0
BITMAP
1980
1980
0000
E0E0
70C0
71C0
3980
3B80
1B80
1F00
0F00
0E00
0E00
0C00
3C00
3800
ENDCHAR
STARTCHAR uni04F1
ENCODING 1265
SWIDTH 501 0
DWIDTH 9 0
BBX 9 17 0 -4
BITMAP
6300
7700
0000
E380
6380
6300
7700
7700
3600
3E00
3E00
1C00
1C00
1C00
1800
7800
7000
ENDCHAR
STARTCHAR uni04F2
ENCODING 1266
SWIDTH 631 0
DWIDTH 11 0
BBX 11 17 0 0
BITMAP
0EE0
0D80
1B80
0000
E0E0
70C0
71C0
3980
3B80
1B80
1F00
0F00
0E00
0E00
0C00
3C00
3800
ENDCHAR
STARTCHAR uni04F3
ENCODING 1267
SWIDTH 501 0
DWIDTH 9 0
BBX 9 18 0 -4
BITMAP
1D80
1B00
3600
0000
E380
6380
6300
7700
7700
3600
3E00
3E00
1C00
1C00
1C00
1800
7800
7000
ENDCHAR
STARTCHAR uni04F4
ENCODING 1268
SWIDTH 695 0
DWIDTH 13 0
BBX 11 16 1 0
BITMAP
3980
3980
0000
E0E0
E0E0
E0E0
E0E0
E0E0
70E0
7FE0
1FE0
00E0
00E0
00E0
00E0
00E0
ENDCHAR
STARTCHAR uni04F5
ENCODING 1269
SWIDTH 553 0
DWIDTH 10 0
BBX 8 13 1 0
BITMAP
66
66
00
C7
C7
C7
C7
E7
FF
3F
07
07
07
ENDCHAR
STARTCHAR uni04F6
ENCODING 1270
SWIDTH 557 0
DWIDTH 10 0
BBX 9 16 1 -3
BITMAP
FF80
FF80
E000
E000
E000
E000
E000
E000
E000
E000
E000
F800
F800
3800
3800
3800
ENDCHAR
STARTCHAR uni04F7
ENCODING 1271
SWIDTH 418 0
DWIDTH 8 0
BBX 6 13 1 -3
BITMAP
FC
FC
E0
E0
E0
E0
E0
E0
F0
F0
30
30
30
ENDCHAR
STARTCHAR uni04F8
ENCODING 1272
SWIDTH 871 0
DWIDTH 16 0
BBX 14 16 1 0
BITMAP
0CC0
0CC0
0000
E01C
E01C
E01C
E01C
E01C
FE1C
FF9C
E39C
E1DC
E1DC
E39C
FF9C
FE1C
ENDCHAR
STARTCHAR uni04F9
ENCODING 1273
SWIDTH 827 0
DWIDTH 15 0
BBX 13 13 1 0
BITMAP
18C0
1DC0
0000
E038
E038
E038
FE38
FF38
E338
E3B8
E338
FF38
FE38
ENDCHAR
STARTCHAR uni04FA
ENCODING 1274
SWIDTH 600 0
DWIDTH 11 0
BBX 10 17 0 -4
BITMAP
3FC0
3FC0
3800
3800
3800
3800
FE00
FE00
3800
3800
3800
3E00
3E00
0E00
0E00
3C00
3C00
ENDCHAR
STARTCHAR uni04FB
ENCODING 1275
SWIDTH 458 0
DWIDTH 8 0
BBX 8 14 0 -4
BITMAP
3F
3F
30
30
FC
FC
30
30
3C
3C
0C
0C
3C
38
ENDCHAR
STARTCHAR uni04FC
ENCODING 1276
SWIDTH 700 0
DWIDTH 13 0
BBX 12 17 0 -4
BITMAP
F0E0
71C0
39C0
3B80
1F80
1F00
0E00
1F00
1F80
3B80
39C0
71F0
F0F0
0030
0030
00F0
00E0
ENDCHAR
STARTCHAR uni04FD
ENCODING 1277
SWIDTH 576 0
DWIDTH 10 0
BBX 10 14 0 -4
BITMAP
E380
7700
3700
3E00
1C00
1E00
3E00
3700
77C0
E3C0
00C0
01C0
03C0
0380
ENDCHAR
STARTCHAR uni04FE
ENCODING 1278
SWIDTH 635 0
DWIDTH 11 0
BBX 11 13 0 0
BITMAP
F0E0
71C0
39C0
3B80
1F80
1F00
1F80
1F80
1F00
1B80
39C0
71C0
F0E0
ENDCHAR
STARTCHAR uni04FF
ENCODING 1279
SWIDTH 508 0
DWIDTH 9 0
BBX 9 10 0 0
BITMAP
E380
7700
3700
3E00
3F00
3F00
3E00
3700
7700
E380
ENDCHAR
STARTCHAR uni0500
ENCODING 1280
SWIDTH 625 0
DWIDTH 11 0
BBX 9 13 1 0
BITMAP
0380
0380
0380
0380
3F80
7F80
E380
C380
C380
C380
E380
7F80
3F80
ENDCHAR
STARTCHAR uni0501
ENCODING 1281
SWIDTH 563 0
DWIDTH 10 0
BBX 9 14 0 0
BITMAP
0180
0180
0180
0180
3D80
7F80
7380
6180
6180
E180
6180
7380
7F80
3D80
ENDCHAR
STARTCHAR uni0502
ENCODING 1282
SWIDTH 907 0
DWIDTH 16 0
BBX 14 13 1 0
BITMAP
0180
0180
0180
0180
3F80
7F9C
E18C
E18C
E18C
E18C
E19C
7FFC
3FF0
ENDCHAR
STARTCHAR uni0503
ENCODING 1283
SWIDTH 853 0
DWIDTH 15 0
BBX 13 14 1 0
BITMAP
0700
0700
0700
0700
3F00
7F00
E738
C718
C718
C718
C718
E738
FFF0
79E0
ENDCHAR
STARTCHAR uni0504
ENCODING 1284
SWIDTH 787 0
DWIDTH 14 0
BBX 12 13 1 0
BITMAP
F800
FE00
0E00
0600
0E00
7C70
7C30
0E30
0630
0670
0670
07E0
03C0
ENDCHAR
STARTCHAR uni0505
ENCODING 1285
SWIDTH 642 0
DWIDTH 12 0
BBX 11 10 1 0
BITMAP
F000
FC00
1C00
1CC0
F8C0
FCE0
0CE0
0CC0
0FC0
0780
ENDCHAR
STARTCHAR uni0506
ENCODING 1286
SWIDTH 585 0
DWIDTH 11 0
BBX 9 16 1 -3
BITMAP
F800
FC00
0E00
0600
0600
0E00
FC00
FC00
0E00
0600
0600
0780
0780
0180
0180
0300
ENDCHAR
STARTCHAR uni0507
ENCODING 1287
SWIDTH 559 0
DWIDTH 10 0
BBX 9 13 1 -3
BITMAP
F800
FC00
0E00
0E00
0E00
FC00
FC00
0E00
0F80
0F80
0380
0300
0200
ENDCHAR
STARTCHAR uni0508
ENCODING 1288
SWIDTH 964 0
DWIDTH 17 0
BBX 17 13 0 0
BITMAP
1FE000
1FE000
186000
186000
186000
186300
186380
186380
186380
386380
387700
F07F00
E03C00
ENDCHAR
STARTCHAR uni0509
ENCODING 1289
SWIDTH 847 0
DWIDTH 15 0
BBX 14 10 0 0
BITMAP
3F80
3F80
399C
398C
398C
398C
318C
319C
F1F8
E0F0
ENDCHAR
STARTCHAR uni050A
ENCODING 1290
SWIDTH 994 0
DWIDTH 18 0
BBX 16 13 1 0
BITMAP
E0E0
E0E0
E0E0
E0E0
E0E0
FFE7
FFE7
E0E7
E0E7
E0E7
E0E7
E07E
E07C
ENDCHAR
STARTCHAR uni050B
ENCODING 1291
SWIDTH 825 0
DWIDTH 15 0
BBX 13 10 1 0
BITMAP
C300
C300
C338
C318
FF18
FF18
C318
C338
C3F8
C1E0
ENDCHAR
STARTCHAR uni050C
ENCODING 1292
SWIDTH 633 0
DWIDTH 11 0
BBX 11 13 0 0
BITMAP
1F80
3F80
7080
6000
E000
E000
E0C0
E0C0
E0E0
60E0
71C0
3FC0
1F00
ENDCHAR
STARTCHAR uni050D
ENCODING 1293
SWIDTH 529 0
DWIDTH 10 0
BBX 8 10 1 0
BITMAP
3E
7E
E2
E0
C0
C3
E3
E3
7F
3E
ENDCHAR
STARTCHAR uni050E
ENCODING 1294
SWIDTH 705 0
DWIDTH 13 0
BBX 12 13 0 0
BITMAP
FFE0
FFE0
0E00
0E00
0E00
0E70
0E30
0E30
0E30
0E70
0E70
07E0
03C0
ENDCHAR
STARTCHAR uni050F
ENCODING 1295
SWIDTH 637 0
DWIDTH 11 0
BBX 11 10 0 0
BITMAP
FF00
FF00
1C00
1CC0
1CE0
1CE0
1CE0
1CC0
0FC0
0F80
ENDCHAR
STARTCHAR uni0510
ENCODING 1296
SWIDTH 655 0
DWIDTH 12 0
BBX 10 13 1 0
BITMAP
3F00
7F80
E1C0
E1C0
6000
7E00
7E00
E000
E000
E0C0
E1C0
7FC0
3F00
ENDCHAR
STARTCHAR uni0511
ENCODING 1297
SWIDTH 556 0
DWIDTH 10 0
BBX 8 10 1 0
BITMAP
3E
FF
E3
E0
7C
7C
C0
E3
FF
3E
ENDCHAR
STARTCHAR uni0512
ENCODING 1298
SWIDTH 812 0
DWIDTH 15 0
BBX 14 17 0 -4
BITMAP
1FF0
1FF0
1C70
1C70
1C70
1870
1870
1870
1870
3870
3870
F07C
E07C
001C
001C
003C
0078
ENDCHAR
STARTCHAR uni0513
ENCODING 1299
SWIDTH 684 0
DWIDTH 12 0
BBX 12 14 0 -4
BITMAP
3F80
3F80
3180
3180
3180
3180
3180
7180
E1F0
E1F0
0070
0070
01E0
01C0
ENDCHAR
STARTCHAR uni1E00
ENCODING 7680
SWIDTH 672 0
DWIDTH 12 0
BBX 12 17 0 -4
BITMAP
0600
0F00
0F00
0F80
1F80
1980
39C0
39C0
3FC0
7FE0
7060
6070
E070
0000
0600
0500
0700
ENDCHAR
STARTCHAR uni1E01
ENCODING 7681
SWIDTH 536 0
DWIDTH 10 0
BBX 8 14 1 -4
BITMAP
3C
FE
C7
07
7F
FF
C7
C7
FF
7F
00
38
28
38
ENDCHAR
STARTCHAR uni1E3E
ENCODING 7742
SWIDTH 875 0
DWIDTH 16 0
BBX 14 17 1 0
BITMAP
01C0
0380
0300
0000
F03C
F03C
F07C
F87C
F87C
FCDC
ECDC
ECDC
EF9C
E79C
E79C
E71C
E31C
ENDCHAR
STARTCHAR uni1E3F
ENCODING 7743
SWIDTH 865 0
DWIDTH 16 0
BBX 14 14 1 0
BITMAP
01C0
0380
0300
0000
EE78
FFF8
E79C
E31C
E31C
E31C
E31C
E31C
E31C
E31C
ENDCHAR
STARTCHAR Wgrave
ENCODING 7808
SWIDTH 874 0
DWIDTH 16 0
BBX 16 17 0 0
BITMAP
0700
0300
0180
0000
E187
6186
73CE
73CE
73CE
33CC
366C
366C
3E7C
1E7C
1E78
1C38
1C38
ENDCHAR
STARTCHAR wgrave
ENCODING 7809
SWIDTH 734 0
DWIDTH 13 0
BBX 13 14 0 0
BITMAP
1C00
0600
0700
0000
E738
6730
6730
6730
6DB0
7DF0
3DE0
38E0
38E0
38E0
ENDCHAR
STARTCHAR Wacute
ENCODING 7810
SWIDTH 874 0
DWIDTH 16 0
BBX 16 17 0 0
BITMAP
00E0
01C0
0180
0000
E187
6186
73CE
73CE
73CE
33CC
366C
366C
3E7C
1E7C
1E78
1C38
1C38
ENDCHAR
STARTCHAR wacute
ENCODING 7811
SWIDTH 734 0
DWIDTH 13 0
BBX 13 14 0 0
BITMAP
01C0
0380
0700
0000
E738
6730
6730
6730
6DB0
7DF0
3DE0
38E0
38E0
38E0
ENDCHAR
STARTCHAR Wdieresis
ENCODING 7812
SWIDTH 874 0
DWIDTH 16 0
BBX 16 16 0 0
BITMAP
0660
0660
0000
E187
6186
73CE
73CE
73CE
33CC
366C
366C
3E7C
1E7C
1E78
1C38
1C38
ENDCHAR
STARTCHAR wdieresis
ENCODING 7813
SWIDTH 734 0
DWIDTH 13 0
BBX 13 13 0 0
BITMAP
1CC0
1CC0
0000
E738
6730
6730
6730
6DB0
7DF0
3DE0
38E0
38E0
38E0
ENDCHAR
STARTCHAR uni1EA0
ENCODING 7840
SWIDTH 672 0
DWIDTH 12 0
BBX 12 16 0 -3
BITMAP
0600
0F00
0F00
0F80
1F80
1980
39C0
39C0
3FC0
7FE0
7060
6070
E070
0000
0600
0700
ENDCHAR
STARTCHAR uni1EA1
ENCODING 7841
SWIDTH 536 0
DWIDTH 10 0
BBX 8 13 1 -3
BITMAP
3C
FE
C7
07
7F
FF
C7
C7
FF
7F
00
30
38
ENDCHAR
STARTCHAR uni1EA2
ENCODING 7842
SWIDTH 672 0
DWIDTH 12 0
BBX 12 18 0 0
BITMAP
0700
0300
0300
0600
0000
0600
0F00
0F00
0F80
1F80
1980
39C0
39C0
3FC0
7FE0
7060
6070
E070
ENDCHAR
STARTCHAR uni1EA3
ENCODING 7843
SWIDTH 536 0
DWIDTH 10 0
BBX 8 15 1 0
BITMAP
18
0C
1C
18
00
3C
FE
C7
07
7F
FF
C7
C7
FF
7F
ENDCHAR
STARTCHAR uni1EA4
ENCODING 7844
SWIDTH 672 0
DWIDTH 12 0
BBX 12 17 0 0
BITMAP
0030
0760
1980
0000
0600
0F00
0F00
0F80
1F80
1980
39C0
39C0
3FC0
7FE0
7060
6070
E070
ENDCHAR
STARTCHAR uni1EA5
ENCODING 7845
SWIDTH 536 0
DWIDTH 10 0
BBX 10 14 1 0
BITMAP
01C0
3900
6600
0000
3C00
FE00
C700
0700
7F00
FF00
C700
C700
FF00
7F00
ENDCHAR
STARTCHAR uni1EA6
ENCODING 7846
SWIDTH 672 0
DWIDTH 12 0
BBX 12 17 0 0
BITMAP
C000
2700
1980
0000
0600
0F00
0F00
0F80
1F80
1980
39C0
39C0
3FC0
7FE0
7060
6070
E070
ENDCHAR
STARTCHAR uni1EA7
ENCODING 7847
SWIDTH 536 0
DWIDTH 10 0
BBX 10 14 -1 0
BITMAP
C000
6E00
1980
0000
0F00
3F80
31C0
01C0
1FC0
3FC0
31C0
31C0
3FC0
1FC0
ENDCHAR
STARTCHAR uni1EA8
ENCODING 7848
SWIDTH 672 0
DWIDTH 12 0
BBX 12 18 0 0
BITMAP
00C0
0060
0FC0
1980
0000
0600
0F00
0F00
0F80
1F80
1980
39C0
39C0
3FC0
7FE0
7060
6070
E070
ENDCHAR
STARTCHAR uni1EA9
ENCODING 7849
SWIDTH 536 0
DWIDTH 10 0
BBX 9 15 1 0
BITMAP
0300
0180
3B00
6600
0000
3C00
FE00
C700
0700
7F00
FF00
C700
C700
FF00
7F00
ENDCHAR
STARTCHAR uni1EAA
ENCODING 7850
SWIDTH 672 0
DWIDTH 12 0
BBX 12 19 0 0
BITMAP
0D00
0B00
0000
0700
1980
0000
0600
0F00
0F00
0F80
1F80
1980
39C0
39C0
3FC0
7FE0
7060
6070
E070
ENDCHAR
STARTCHAR uni1EAB
ENCODING 7851
SWIDTH 536 0
DWIDTH 10 0
BBX 8 16 1 0
BITMAP
34
2C
00
38
66
00
3C
FE
C7
07
7F
FF
C7
C7
FF
7F
ENDCHAR
STARTCHAR uni1EAC
ENCODING 7852
SWIDTH 672 0
DWIDTH 12 0
BBX 12 20 0 -3
BITMAP
0600
0F00
1980
0000
0600
0F00
0F00
0F80
1F80
1980
39C0
39C0
3FC0
7FE0
7060
6070
E070
0000
0600
0700
ENDCHAR
STARTCHAR uni1EAD
ENCODING 7853
SWIDTH 536 0
DWIDTH 10 0
BBX 8 17 1 -3
BITMAP
18
7C
E6
00
3C
FE
C7
07
7F
FF
C7
C7
FF
7F
00
30
38
ENDCHAR
STARTCHAR uni1EAE
ENCODING 7854
SWIDTH 672 0
DWIDTH 12 0
BBX 12 18 0 0
BITMAP
0300
0200
1D80
0F00
0000
0600
0F00
0F00
0F80
1F80
1980
39C0
39C0
3FC0
7FE0
7060
6070
E070
ENDCHAR
STARTCHAR uni1EAF
ENCODING 7855
SWIDTH 536 0
DWIDTH 10 0
BBX 8 15 1 0
BITMAP
0C
18
66
3C
00
3C
FE
C7
07
7F
FF
C7
C7
FF
7F
ENDCHAR
STARTCHAR uni1EB0
ENCODING 7856
SWIDTH 672 0
DWIDTH 12 0
BBX 12 18 0 0
BITMAP
0C00
0600
1980
0F00
0000
0600
0F00
0F00
0F80
1F80
1980
39C0
39C0
3FC0
7FE0
7060
6070
E070
ENDCHAR
STARTCHAR uni1EB1
ENCODING 7857
SWIDTH 536 0
DWIDTH 10 0
BBX 8 15 1 0
BITMAP
30
10
6E
3C
00
3C
FE
C7
07
7F
FF
C7
C7
FF
7F
ENDCHAR
STARTCHAR uni1EB2
ENCODING 7858
SWIDTH 672 0
DWIDTH 12 0
BBX 12 19 0 0
BITMAP
0700
0300
0600
1980
0F00
0000
0600
0F00
0F00
0F80
1F80
1980
39C0
39C0
3FC0
7FE0
7060
6070
E070
ENDCHAR
STARTCHAR uni1EB3
ENCODING 7859
SWIDTH 536 0
DWIDTH 10 0
BBX 8 16 1 0
BITMAP
18
0C
18
66
3C
00
3C
FE
C7
07
7F
FF
C7
C7
FF
7F
ENDCHAR
STARTCHAR uni1EB4
ENCODING 7860
SWIDTH 672 0
DWIDTH 12 0
BBX 12 19 0 0
BITMAP
0D80
1B00
0000
1980
0F00
0000
0600
0F00
0F00
0F80
1F80
1980
39C0
39C0
3FC0
7FE0
7060
6070
E070
ENDCHAR
STARTCHAR uni1EB5
ENCODING 7861
SWIDTH 536 0
DWIDTH 10 0
BBX 8 16 1 0
BITMAP
34
4C
00
66
3C
00
3C
FE
C7
07
7F
FF
C7
C7
FF
7F
ENDCHAR
STARTCHAR uni1EB6
ENCODING 7862
SWIDTH 672 0
DWIDTH 12 0
BBX 12 20 0 -3
BITMAP
1980
1F80
0F00
0000
0600
0F00
0F00
0F80
1F80
1980
39C0
39C0
3FC0
7FE0
7060
6070
E070
0000
0600
0700
ENDCHAR
STARTCHAR uni1EB7
ENCODING 7863
SWIDTH 536 0
DWIDTH 10 0
BBX 8 17 1 -3
BITMAP
66
7E
3C
00
3C
FE
C7
07
7F
FF
C7
C7
FF
7F
00
30
38
ENDCHAR
STARTCHAR uni1EB8
ENCODING 7864
SWIDTH 562 0
DWIDTH 10 0
BBX 9 16 1 -3
BITMAP
FF80
FF80
E000
E000
E000
FF00
FF00
E000
E000
E000
E000
FF80
FF80
0000
1C00
1C00
ENDCHAR
STARTCHAR uni1EB9
ENCODING 7865
SWIDTH 540 0
DWIDTH 10 0
BBX 8 13 1 -3
BITMAP
3C
7E
E7
C3
FF
FF
C0
E2
7F
3E
00
18
18
ENDCHAR
STARTCHAR uni1EBA
ENCODING 7866
SWIDTH 562 0
DWIDTH 10 0
BBX 9 18 1 0
BITMAP
1C00
0600
0E00
1C00
0000
FF80
FF80
E000
E000
E000
FF00
FF00
E000
E000
E000
E000
FF80
FF80
ENDCHAR
STARTCHAR uni1EBB
ENCODING 7867
SWIDTH 540 0
DWIDTH 10 0
BBX 8 15 1 0
BITMAP
18
0C
1C
18
00
3C
7E
E7
C3
FF
FF
C0
E2
7F
3E
ENDCHAR
STARTCHAR uni1EBC
ENCODING 7868
SWIDTH 562 0
DWIDTH 10 0
BBX 9 17 1 0
BITMAP
3300
3F00
6600
0000
FF80
FF80
E000
E000
E000
FF00
FF00
E000
E000
E000
E000
FF80
FF80
ENDCHAR
STARTCHAR uni1EBD
ENCODING 7869
SWIDTH 540 0
DWIDTH 10 0
BBX 8 14 1 0
BITMAP
72
7E
CC
00
3C
7E
E7
C3
FF
FF
C0
E2
7F
3E
ENDCHAR
STARTCHAR uni1EBE
ENCODING 7870
SWIDTH 562 0
DWIDTH 10 0
BBX 11 17 1 0
BITMAP
00E0
1D80
7700
0000
FF80
FF80
E000
E000
E000
FF00
FF00
E000
E000
E000
E000
FF80
FF80
ENDCHAR
STARTCHAR uni1EBF
ENCODING 7871
SWIDTH 540 0
DWIDTH 10 0
BBX 10 14 1 0
BITMAP
01C0
3900
6E00
0000
3C00
7E00
E700
C300
FF00
FF00
C000
E200
7F00
3E00
ENDCHAR
STARTCHAR uni1EC0
ENCODING 7872
SWIDTH 562 0
DWIDTH 10 0
BBX 10 17 0 0
BITMAP
C000
6E00
3B80
0000
7FC0
7FC0
7000
7000
7000
7F80
7F80
7000
7000
7000
7000
7FC0
7FC0
ENDCHAR
STARTCHAR uni1EC1
ENCODING 7873
SWIDTH 540 0
DWIDTH 10 0
BBX 10 14 -1 0
BITMAP
C000
6E00
1980
0000
0F00
1F80
39C0
30C0
3FC0
3FC0
3000
3880
1FC0
0F80
ENDCHAR
STARTCHAR uni1EC2
ENCODING 7874
SWIDTH 562 0
DWIDTH 10 0
BBX 9 18 1 0
BITMAP
0180
0080
1D00
7700
0000
FF80
FF80
E000
E000
E000
FF00
FF00
E000
E000
E000
E000
FF80
FF80
ENDCHAR
STARTCHAR uni1EC3
ENCODING 7875
SWIDTH 540 0
DWIDTH 10 0
BBX 9 15 1 0
BITMAP
0300
0180
3B00
6600
0000
3C00
7E00
E700
C300
FF00
FF00
C000
E200
7F00
3E00
ENDCHAR
STARTCHAR uni1EC4
ENCODING 7876
SWIDTH 562 0
DWIDTH 10 0
BBX 9 19 1 0
BITMAP
1A00
2600
0000
1C00
7700
0000
FF80
FF80
E000
E000
E000
FF00
FF00
E000
E000
E000
E000
FF80
FF80
ENDCHAR
STARTCHAR uni1EC5
ENCODING 7877
SWIDTH 540 0
DWIDTH 10 0
BBX 8 16 1 0
BITMAP
34
2C
00
38
66
00
3C
7E
E7
C3
FF
FF
C0
E2
7F
3E
ENDCHAR
STARTCHAR uni1EC6
ENCODING 7878
SWIDTH 562 0
DWIDTH 10 0
BBX 9 20 1 -3
BITMAP
1C00
3E00
7700
0000
FF80
FF80
E000
E000
E000
FF00
FF00
E000
E000
E000
E000
FF80
FF80
0000
1C00
1C00
ENDCHAR
STARTCHAR uni1EC7
ENCODING 7879
SWIDTH 540 0
DWIDTH 10 0
BBX 8 17 1 -3
BITMAP
38
7C
E6
00
3C
7E
E7
C3
FF
FF
C0
E2
7F
3E
00
18
18
ENDCHAR
STARTCHAR uni1EC8
ENCODING 7880
SWIDTH 291 0
DWIDTH 5 0
BBX 4 18 1 0
BITMAP
60
B0
70
60
00
E0
E0
E0
E0
E0
E0
E0
E0
E0
E0
E0
E0
E0
ENDCHAR
STARTCHAR uni1EC9
ENCODING 7881
SWIDTH 273 0
DWIDTH 5 0
BBX 4 15 1 0
BITMAP
E0
70
70
C0
00
E0
E0
E0
E0
E0
E0
E0
E0
E0
E0
ENDCHAR
STARTCHAR uni1ECA
ENCODING 7882
SWIDTH 291 0
DWIDTH 5 0
BBX 3 16 1 -3
BITMAP
E0
E0
E0
E0
E0
E0
E0
E0
E0
E0
E0
E0
E0
00
E0
E0
ENDCHAR
STARTCHAR uni1ECB
ENCODING 7883
SWIDTH 265 0
DWIDTH 5 0
BBX 3 17 1 -3
BITMAP
E0
E0
E0
00
E0
E0
E0
E0
E0
E0
E0
E0
E0
E0
00
E0
E0
ENDCHAR
STARTCHAR uni1ECC
ENCODING 7884
SWIDTH 690 0
DWIDTH 12 0
BBX 10 16 1 -3
BITMAP
1E00
7F80
E1C0
E1C0
C0C0
C0C0
C0C0
C0C0
C0C0
E1C0
E1C0
7F80
1E00
0000
0E00
0E00
ENDCHAR
STARTCHAR uni1ECD
ENCODING 7885
SWIDTH 565 0
DWIDTH 10 0
BBX 10 13 0 -3
BITMAP
1E00
3F00
7380
6180
E180
E1C0
6180
7380
3F00
1E00
0000
0C00
0E00
ENDCHAR
STARTCHAR uni1ECE
ENCODING 7886
SWIDTH 690 0
DWIDTH 12 0
BBX 10 18 1 0
BITMAP
0E00
0600
0600
0C00
0000
1E00
7F80
E1C0
E1C0
C0C0
C0C0
C0C0
C0C0
C0C0
E1C0
E1C0
7F80
1E00
ENDCHAR
STARTCHAR uni1ECF
ENCODING 7887
SWIDTH 565 0
DWIDTH 10 0
BBX 10 15 0 0
BITMAP
0C00
0600
0600
0C00
0000
1E00
3F00
7380
6180
E180
E1C0
6180
7380
3F00
1E00
ENDCHAR
STARTCHAR uni1ED0
ENCODING 7888
SWIDTH 690 0
DWIDTH 12 0
BBX 11 17 1 0
BITMAP
0060
0EC0
3300
0000
1E00
7F80
E1C0
E1C0
C0C0
C0C0
C0C0
C0C0
C0C0
E1C0
E1C0
7F80
1E00
ENDCHAR
STARTCHAR uni1ED1
ENCODING 7889
SWIDTH 565 0
DWIDTH 10 0
BBX 11 14 0 0
BITMAP
0060
1EC0
3300
0000
1E00
3F00
7380
6180
E180
E1C0
6180
7380
3F00
1E00
ENDCHAR
STARTCHAR uni1ED2
ENCODING 7890
SWIDTH 690 0
DWIDTH 12 0
BBX 11 17 0 0
BITMAP
E000
2700
1980
0000
0F00
3FC0
70E0
70E0
6060
6060
6060
6060
6060
70E0
70E0
3FC0
0F00
ENDCHAR
STARTCHAR uni1ED3
ENCODING 7891
SWIDTH 565 0
DWIDTH 10 0
BBX 11 14 -1 0
BITMAP
C000
2700
1980
0000
0F00
1F80
39C0
30C0
70C0
70E0
30C0
39C0
1F80
0F00
ENDCHAR
STARTCHAR uni1ED4
ENCODING 7892
SWIDTH 690 0
DWIDTH 12 0
BBX 10 18 1 0
BITMAP
01C0
00C0
0F80
3300
0000
1E00
7F80
E1C0
E1C0
C0C0
C0C0
C0C0
C0C0
C0C0
E1C0
E1C0
7F80
1E00
ENDCHAR
STARTCHAR uni1ED5
ENCODING 7893
SWIDTH 565 0
DWIDTH 10 0
BBX 10 15 0 0
BITMAP
0180
00C0
1F80
3300
0000
1E00
3F00
7380
6180
E180
E1C0
6180
7380
3F00
1E00
ENDCHAR
STARTCHAR uni1ED6
ENCODING 7894
SWIDTH 690 0
DWIDTH 12 0
BBX 10 19 1 0
BITMAP
1A00
1600
0000
0E00
3300
0000
1E00
7F80
E1C0
E1C0
C0C0
C0C0
C0C0
C0C0
C0C0
E1C0
E1C0
7F80
1E00
ENDCHAR
STARTCHAR uni1ED7
ENCODING 7895
SWIDTH 565 0
DWIDTH 10 0
BBX 10 16 0 0
BITMAP
1A00
1600
0000
0E00
3300
0000
1E00
3F00
7380
6180
E180
E1C0
6180
7380
3F00
1E00
ENDCHAR
STARTCHAR uni1ED8
ENCODING 7896
SWIDTH 690 0
DWIDTH 12 0
BBX 10 20 1 -3
BITMAP
0C00
1F00
3380
0000
1E00
7F80
E1C0
E1C0
C0C0
C0C0
C0C0
C0C0
C0C0
E1C0
E1C0
7F80
1E00
0000
0E00
0E00
ENDCHAR
STARTCHAR uni1ED9
ENCODING 7897
SWIDTH 565 0
DWIDTH 10 0
BBX 10 17 0 -3
BITMAP
0C00
1E00
3300
0000
1E00
3F00
7380
6180
E180
E1C0
6180
7380
3F00
1E00
0000
0C00
0E00
ENDCHAR
STARTCHAR uni1EDA
ENCODING 7898
SWIDTH 701 0
DWIDTH 13 0
BBX 12 17 1 0
BITMAP
0700
0600
0C00
0000
1F30
3FB0
71E0
E0C0
E0E0
E0E0
E0E0
E0E0
E0E0
E0C0
71C0
3F80
1F00
ENDCHAR
STARTCHAR uni1EDB
ENCODING 7899
SWIDTH 581 0
DWIDTH 10 0
BBX 10 14 0 0
BITMAP
0700
0600
0C00
0040
1E40
7FC0
7380
E180
E180
E180
E180
7380
7F00
1E00
ENDCHAR
STARTCHAR uni1EDC
ENCODING 7900
SWIDTH 701 0
DWIDTH 13 0
BBX 12 17 1 0
BITMAP
3800
1C00
0C00
0000
1F30
3FB0
71E0
E0C0
E0E0
E0E0
E0E0
E0E0
E0E0
E0C0
71C0
3F80
1F00
ENDCHAR
STARTCHAR uni1EDD
ENCODING 7901
SWIDTH 581 0
DWIDTH 10 0
BBX 10 14 0 0
BITMAP
3800
1800
0C00
0040
1E40
7FC0
7380
E180
E180
E180
E180
7380
7F00
1E00
ENDCHAR
STARTCHAR uni1EDE
ENCODING 7902
SWIDTH 701 0
DWIDTH 13 0
BBX 12 18 1 0
BITMAP
0E00
0600
0600
0C00
0000
1F30
3FB0
71E0
E0C0
E0E0
E0E0
E0E0
E0E0
E0E0
E0C0
71C0
3F80
1F00
ENDCHAR
STARTCHAR uni1EDF
ENCODING 7903
SWIDTH 581 0
DWIDTH 10 0
BBX 10 15 0 0
BITMAP
0C00
0600
0600
0C00
0040
1E40
7FC0
7380
E180
E180
E180
E180
7380
7F00
1E00
ENDCHAR
STARTCHAR uni1EE0
ENCODING 7904
SWIDTH 701 0
DWIDTH 13 0
BBX 12 17 1 0
BITMAP
1980
3F00
2700
0000
1F30
3FB0
71E0
E0C0
E0E0
E0E0
E0E0
E0E0
E0E0
E0C0
71C0
3F80
1F00
ENDCHAR
STARTCHAR uni1EE1
ENCODING 7905
SWIDTH 581 0
DWIDTH 10 0
BBX 10 14 0 0
BITMAP
1900
3F00
2700
0040
1E40
7FC0
7380
E180
E180
E180
E180
7380
7F00
1E00
ENDCHAR
STARTCHAR uni1EE2
ENCODING 7906
SWIDTH 701 0
DWIDTH 13 0
BBX 12 16 1 -3
BITMAP
1F30
3FB0
71E0
E0C0
E0E0
E0E0
E0E0
E0E0
E0E0
E0C0
71C0
3F80
1F00
0000
0C00
0C00
ENDCHAR
STARTCHAR uni1EE3
ENCODING 7907
SWIDTH 581 0
DWIDTH 10 0
BBX 10 14 0 -3
BITMAP
0040
1E40
7FC0
7380
E180
E180
E180
E180
7380
7F00
1E00
0000
0C00
0E00
ENDCHAR
STARTCHAR uni1EE4
ENCODING 7908
SWIDTH 658 0
DWIDTH 12 0
BBX 10 16 1 -3
BITMAP
E1C0
E1C0
E1C0
E1C0
E1C0
E1C0
E1C0
E1C0
E1C0
E1C0
E1C0
7F80
3F00
0000
0C00
1C00
ENDCHAR
STARTCHAR uni1EE5
ENCODING 7909
SWIDTH 559 0
DWIDTH 10 0
BBX 8 13 1 -3
BITMAP
C3
C3
C3
C3
C3
C3
C3
E7
FF
7B
00
30
38
ENDCHAR
STARTCHAR uni1EE6
ENCODING 7910
SWIDTH 658 0
DWIDTH 12 0
BBX 10 18 1 0
BITMAP
0C00
0600
0E00
0C00
0000
E1C0
E1C0
E1C0
E1C0
E1C0
E1C0
E1C0
E1C0
E1C0
E1C0
E1C0
7F80
3F00
ENDCHAR
STARTCHAR uni1EE7
ENCODING 7911
SWIDTH 559 0
DWIDTH 10 0
BBX 8 15 1 0
BITMAP
18
0C
0C
18
00
C3
C3
C3
C3
C3
C3
C3
E7
FF
7B
ENDCHAR
STARTCHAR uni1EE8
ENCODING 7912
SWIDTH 712 0
DWIDTH 13 0
BBX 13 17 1 0
BITMAP
0780
0600
0E00
0008
E1C8
E1D8
E1F0
E1C0
E1C0
E1C0
E1C0
E1C0
E1C0
E1C0
E180
7F80
3E00
ENDCHAR
STARTCHAR uni1EE9
ENCODING 7913
SWIDTH 609 0
DWIDTH 11 0
BBX 11 14 1 0
BITMAP
0E00
0C00
1800
0060
C360
C3C0
C300
C300
C300
C300
C300
E700
FF00
7B00
ENDCHAR
STARTCHAR uni1EEA
ENCODING 7914
SWIDTH 712 0
DWIDTH 13 0
BBX 13 17 1 0
BITMAP
3800
1C00
0C00
0208
E1C8
E1D8
E1F0
E1C0
E1C0
E1C0
E1C0
E1C0
E1C0
E1C0
E180
7F80
3E00
ENDCHAR
STARTCHAR uni1EEB
ENCODING 7915
SWIDTH 609 0
DWIDTH 11 0
BBX 11 14 1 0
BITMAP
7000
3000
1800
0060
C360
C3C0
C300
C300
C300
C300
C300
E700
FF00
7B00
ENDCHAR
STARTCHAR uni1EEC
ENCODING 7916
SWIDTH 712 0
DWIDTH 13 0
BBX 13 18 1 0
BITMAP
0E00
0700
0600
0C00
0008
E1C8
E1D8
E1F0
E1C0
E1C0
E1C0
E1C0
E1C0
E1C0
E1C0
E180
7F80
3E00
ENDCHAR
STARTCHAR uni1EED
ENCODING 7917
SWIDTH 609 0
DWIDTH 11 0
BBX 11 15 1 0
BITMAP
1800
0C00
0C00
1800
0060
C360
C3C0
C300
C300
C300
C300
C300
E700
FF00
7B00
ENDCHAR
STARTCHAR uni1EEE
ENCODING 7918
SWIDTH 712 0
DWIDTH 13 0
BBX 13 17 1 0
BITMAP
1980
3F00
3700
0008
E1C8
E1D8
E1F0
E1C0
E1C0
E1C0
E1C0
E1C0
E1C0
E1C0
E180
7F80
3E00
ENDCHAR
STARTCHAR uni1EEF
ENCODING 7919
SWIDTH 609 0
DWIDTH 11 0
BBX 11 14 1 0
BITMAP
3200
7E00
4C00
0060
C360
C3C0
C300
C300
C300
C300
C300
E700
FF00
7B00
ENDCHAR
STARTCHAR uni1EF0
ENCODING 7920
SWIDTH 712 0
DWIDTH 13 0
BBX 13 17 1 -3
BITMAP
0008
E1C8
E1D8
E1F0
E1C0
E1C0
E1C0
E1C0
E1C0
E1C0
E1C0
E180
7F80
3E00
0000
0E00
0E00
ENDCHAR
STARTCHAR uni1EF1
ENCODING 7921
SWIDTH 609 0
DWIDTH 11 0
BBX 11 14 1 -3
BITMAP
0060
C360
C3C0
C300
C300
C300
C300
C300
E700
FF00
7B00
0000
1800
1800
ENDCHAR
STARTCHAR Ygrave
ENCODING 7922
SWIDTH 618 0
DWIDTH 11 0
BBX 11 17 0 0
BITMAP
3800
0C00
0E00
0000
E0E0
70C0
71C0
3180
3B80
1B00
1F00
0E00
0E00
0E00
0E00
0E00
0E00
ENDCHAR
STARTCHAR ygrave
ENCODING 7923
SWIDTH 501 0
DWIDTH 9 0
BBX 9 18 0 -4
BITMAP
7000
1800
1C00
0000
E380
6380
6300
7700
7700
3600
3E00
3E00
1C00
1C00
1C00
1800
7800
7000
ENDCHAR
STARTCHAR uni1EF4
ENCODING 7924
SWIDTH 618 0
DWIDTH 11 0
BBX 11 16 0 -3
BITMAP
E0E0
70C0
71C0
3180
3B80
1B00
1F00
0E00
0E00
0E00
0E00
0E00
0E00
0000
0E00
0E00
ENDCHAR
STARTCHAR uni1EF5
ENCODING 7925
SWIDTH 501 0
DWIDTH 9 0
BBX 9 14 0 -4
BITMAP
E380
6380
6300
7700
7700
3600
3E00
3E00
1C00
1C00
1C00
1800
7B00
7300
ENDCHAR
STARTCHAR uni1EF6
ENCODING 7926
SWIDTH 618 0
DWIDTH 11 0
BBX 11 18 0 0
BITMAP
0E00
0300
0700
0E00
0000
E0E0
70C0
71C0
3180
3B80
1B00
1F00
0E00
0E00
0E00
0E00
0E00
0E00
ENDCHAR
STARTCHAR uni1EF7
ENCODING 7927
SWIDTH 501 0
DWIDTH 9 0
BBX 9 19 0 -4
BITMAP
1C00
0600
0E00
1C00
0000
E380
6380
6300
7700
7700
3600
3E00
3E00
1C00
1C00
1C00
1800
7800
7000
ENDCHAR
STARTCHAR uni1EF8
ENCODING 7928
SWIDTH 618 0
DWIDTH 11 0
BBX 11 17 0 0
BITMAP
1980
1F80
3300
0000
E0E0
70C0
71C0
3180
3B80
1B00
1F00
0E00
0E00
0E00
0E00
0E00
0E00
ENDCHAR
STARTCHAR uni1EF9
ENCODING 7929
SWIDTH 501 0
DWIDTH 9 0
BBX 9 18 0 -4
BITMAP
3300
3F00
6600
0000
E380
6380
6300
7700
7700
3600
3E00
3E00
1C00
1C00
1C00
1800
7800
7000
ENDCHAR
STARTCHAR uni1F4D
ENCODING 8013
SWIDTH 724 0
DWIDTH 13 0
BBX 16 13 -4 0
BITMAP
98F8
91FC
F38E
0307
0707
0707
0707
0707
0707
0307
038E
01FC
00F8
ENDCHAR
STARTCHAR uni2000
ENCODING 8192
SWIDTH 509 0
DWIDTH 9 0
BBX 1 1 0 0
BITMAP
00
ENDCHAR
STARTCHAR uni2001
ENCODING 8193
SWIDTH 1020 0
DWIDTH 18 0
BBX 1 1 0 0
BITMAP
00
ENDCHAR
STARTCHAR uni2002
ENCODING 8194
SWIDTH 509 0
DWIDTH 9 0
BBX 1 1 0 0
BITMAP
00
ENDCHAR
STARTCHAR uni2003
ENCODING 8195
SWIDTH 1020 0
DWIDTH 18 0
BBX 1 1 0 0
BITMAP
00
ENDCHAR
STARTCHAR uni2004
ENCODING 8196
SWIDTH 340 0
DWIDTH 6 0
BBX 1 1 0 0
BITMAP
00
ENDCHAR
STARTCHAR uni2005
ENCODING 8197
SWIDTH 254 0
DWIDTH 5 0
BBX 1 1 0 0
BITMAP
00
ENDCHAR
STARTCHAR uni2006
ENCODING 8198
SWIDTH 169 0
DWIDTH 3 0
BBX 1 1 0 0
BITMAP
00
ENDCHAR
STARTCHAR uni2007
ENCODING 8199
SWIDTH 562 0
DWIDTH 10 0
BBX 1 1 0 0
BITMAP
00
ENDCHAR
STARTCHAR uni2008
ENCODING 8200
SWIDTH 273 0
DWIDTH 5 0
BBX 1 1 0 0
BITMAP
00
ENDCHAR
STARTCHAR uni2009
ENCODING 8201
SWIDTH 204 0
DWIDTH 4 0
BBX 1 1 0 0
BITMAP
00
ENDCHAR
STARTCHAR uni200A
ENCODING 8202
SWIDTH 102 0
DWIDTH 2 0
BBX 1 1 0 0
BITMAP
00
ENDCHAR
STARTCHAR uni200B
ENCODING 8203
SWIDTH 0 0
DWIDTH 0 0
BBX 1 1 0 0
BITMAP
00
ENDCHAR
STARTCHAR uni2010
ENCODING 8208
SWIDTH 388 0
DWIDTH 7 0
BBX 5 2 1 5
BITMAP
F8
F8
ENDCHAR
STARTCHAR uni2011
ENCODING 8209
SWIDTH 388 0
DWIDTH 7 0
BBX 5 2 1 5
BITMAP
F8
F8
ENDCHAR
STARTCHAR endash
ENCODING 8211
SWIDTH 631 0
DWIDTH 11 0
BBX 9 2 1 5
BITMAP
FF80
FF80
ENDCHAR
STARTCHAR emdash
ENCODING 8212
SWIDTH 763 0
DWIDTH 14 0
BBX 12 2 1 5
BITMAP
FFF0
FFF0
ENDCHAR
STARTCHAR uni2015
ENCODING 8213
SWIDTH 763 0
DWIDTH 14 0
BBX 12 2 1 5
BITMAP
FFF0
FFF0
ENDCHAR
STARTCHAR underscoredbl
ENCODING 8215
SWIDTH 445 0
DWIDTH 8 0
BBX 8 3 0 -3
BITMAP
FF
00
FF
ENDCHAR
STARTCHAR quoteleft
ENCODING 8216
SWIDTH 233 0
DWIDTH 4 0
BBX 3 5 1 9
BITMAP
40
E0
C0
C0
C0
ENDCHAR
STARTCHAR quoteright
ENCODING 8217
SWIDTH 229 0
DWIDTH 4 0
BBX 3 5 0 9
BITMAP
60
60
60
60
C0
ENDCHAR
STARTCHAR quotesinglbase
ENCODING 8218
SWIDTH 248 0
DWIDTH 4 0
BBX 3 5 0 -3
BITMAP
60
60
60
60
C0
ENDCHAR
STARTCHAR quotereversed
ENCODING 8219
SWIDTH 208 0
DWIDTH 4 0
BBX 2 5 1 9
BITMAP
C0
C0
C0
C0
40
ENDCHAR
STARTCHAR quotedblleft
ENCODING 8220
SWIDTH 405 0
DWIDTH 7 0
BBX 6 5 1 9
BITMAP
48
FC
D8
D8
D8
ENDCHAR
STARTCHAR quotedblright
ENCODING 8221
SWIDTH 408 0
DWIDTH 7 0
BBX 5 5 1 9
BITMAP
D8
D8
D8
D8
90
ENDCHAR
STARTCHAR quotedblbase
ENCODING 8222
SWIDTH 402 0
DWIDTH 7 0
BBX 6 5 0 -3
BITMAP
CC
CC
CC
CC
98
ENDCHAR
STARTCHAR dagger
ENCODING 8224
SWIDTH 538 0
DWIDTH 10 0
BBX 9 13 0 0
BITMAP
0C00
0C00
0C00
FF80
FF80
0C00
0C00
0C00
0C00
0C00
0C00
0C00
0C00
ENDCHAR
STARTCHAR daggerdbl
ENCODING 8225
SWIDTH 578 0
DWIDTH 10 0
BBX 9 17 1 -4
BITMAP
1800
1800
1800
FF80
FF80
1800
1800
1800
1800
1800
1800
FF80
FF80
1800
1800
1800
1800
ENDCHAR
STARTCHAR bullet
ENCODING 8226
SWIDTH 359 0
DWIDTH 6 0
BBX 4 4 1 5
BITMAP
70
F0
F0
70
ENDCHAR
STARTCHAR twodotenleader
ENCODING 8229
SWIDTH 521 0
DWIDTH 9 0
BBX 7 3 1 0
BITMAP
E6
EE
E6
ENDCHAR
STARTCHAR ellipsis
ENCODING 8230
SWIDTH 739 0
DWIDTH 13 0
BBX 11 3 1 0
BITMAP
E660
EEE0
E660
ENDCHAR
STARTCHAR uni2027
ENCODING 8231
SWIDTH 257 0
DWIDTH 5 0
BBX 3 3 1 4
BITMAP
E0
E0
E0
ENDCHAR
STARTCHAR perthousand
ENCODING 8240
SWIDTH 959 0
DWIDTH 17 0
BBX 16 13 1 0
BITMAP
7000
F880
9980
9B00
FB00
7600
0400
0DDC
1BFE
1333
3333
23FE
01DC
ENDCHAR
STARTCHAR minute
ENCODING 8242
SWIDTH 161 0
DWIDTH 3 0
BBX 2 5 1 9
BITMAP
C0
80
80
80
80
ENDCHAR
STARTCHAR second
ENCODING 8243
SWIDTH 320 0
DWIDTH 6 0
BBX 4 5 1 9
BITMAP
90
90
90
90
90
ENDCHAR
STARTCHAR guilsinglleft
ENCODING 8249
SWIDTH 311 0
DWIDTH 6 0
BBX 4 7 1 1
BITMAP
30
60
60
C0
60
60
30
ENDCHAR
STARTCHAR guilsinglright
ENCODING 8250
SWIDTH 301 0
DWIDTH 5 0
BBX 4 7 1 1
BITMAP
C0
40
60
30
60
40
C0
ENDCHAR
STARTCHAR exclamdbl
ENCODING 8252
SWIDTH 543 0
DWIDTH 10 0
BBX 8 13 1 0
BITMAP
E7
E7
E7
E7
E7
E7
E7
E7
E7
00
E7
E7
E7
ENDCHAR
STARTCHAR fraction
ENCODING 8260
SWIDTH 445 0
DWIDTH 8 0
BBX 8 11 0 1
BITMAP
02
03
06
0C
08
18
10
30
60
40
C0
ENDCHAR
STARTCHAR uni2074
ENCODING 8308
SWIDTH 372 0
DWIDTH 7 0
BBX 6 7 0 6
BITMAP
18
18
28
68
FC
7C
08
ENDCHAR
STARTCHAR uni207F
ENCODING 8319
SWIDTH 417 0
DWIDTH 8 0
BBX 6 7 1 6
BITMAP
F8
FC
CC
CC
CC
CC
CC
ENDCHAR
STARTCHAR franc
ENCODING 8355
SWIDTH 547 0
DWIDTH 10 0
BBX 9 13 0 0
BITMAP
7F80
7F80
7000
7000
7000
7F80
7F80
7000
7000
7000
FC00
FC00
7000
ENDCHAR
STARTCHAR lira
ENCODING 8356
SWIDTH 594 0
DWIDTH 11 0
BBX 9 13 1 0
BITMAP
1F00
3F80
7180
7000
FE00
FE00
7000
FE00
FE00
7000
7000
FF80
FF80
ENDCHAR
STARTCHAR uni20A6
ENCODING 8358
SWIDTH 813 0
DWIDTH 15 0
BBX 14 13 0 0
BITMAP
3838
3C38
3C38
3E38
FFFC
FFFC
3BB8
FFFC
FFFC
38F8
38F8
3878
3838
ENDCHAR
STARTCHAR peseta
ENCODING 8359
SWIDTH 859 0
DWIDTH 15 0
BBX 13 13 1 0
BITMAP
FC00
FF70
E770
E3F8
E3F8
E770
FE70
FC70
E070
E070
E070
E078
E038
ENDCHAR
STARTCHAR uni20A8
ENCODING 8360
SWIDTH 1084 0
DWIDTH 20 0
BBX 18 13 1 0
BITMAP
FE0000
FF8000
E38000
E18F00
E1BF80
E3B9C0
FF3800
FE3F00
E70F80
E701C0
E3B1C0
E3BF80
E1DF00
ENDCHAR
STARTCHAR uni20A9
ENCODING 8361
SWIDTH 807 0
DWIDTH 15 0
BBX 13 13 1 0
BITMAP
E738
6730
FFF8
FFF8
7770
FFF8
FFF8
3DE0
3DE0
3DE0
3DE0
3DE0
19C0
ENDCHAR
STARTCHAR uni20AA
ENCODING 8362
SWIDTH 868 0
DWIDTH 16 0
BBX 14 10 1 0
BITMAP
FF9C
FF9C
E1DC
EDDC
EDDC
EDDC
EDDC
EC18
EFF8
EFE0
ENDCHAR
STARTCHAR dong
ENCODING 8363
SWIDTH 578 0
DWIDTH 10 0
BBX 11 17 0 -3
BITMAP
0180
0FE0
0FE0
0180
3D80
7F80
7380
6180
6180
E180
6180
7380
7F80
3D80
0000
7F80
7F80
ENDCHAR
STARTCHAR Euro
ENCODING 8364
SWIDTH 573 0
DWIDTH 10 0
BBX 8 13 1 0
BITMAP
0F
3F
78
70
FE
FE
70
FE
FE
70
70
3F
1F
ENDCHAR
STARTCHAR uni20B1
ENCODING 8369
SWIDTH 748 0
DWIDTH 13 0
BBX 13 13 0 0
BITMAP
3F80
3FC0
30E0
FFF8
FFF8
3060
FFF8
FFF8
30E0
3FC0
3F80
3000
3000
ENDCHAR
STARTCHAR uni20B9
ENCODING 8377
SWIDTH 527 0
DWIDTH 10 0
BBX 8 13 1 0
BITMAP
FF
FF
0C
FF
FF
0C
FC
F8
F0
70
38
1C
0E
ENDCHAR
STARTCHAR uni20BA
ENCODING 8378
SWIDTH 593 0
DWIDTH 11 0
BBX 10 13 0 0
BITMAP
3800
3C00
3C00
F800
FC00
3C00
F9C0
F9C0
39C0
39C0
3B80
3F00
3E00
ENDCHAR
STARTCHAR uni20BC
ENCODING 8380
SWIDTH 682 0
DWIDTH 12 0
BBX 12 10 0 0
BITMAP
0600
0600
1F80
3FC0
76E0
7660
6660
6670
E670
E670
ENDCHAR
STARTCHAR uni20BD
ENCODING 8381
SWIDTH 705 0
DWIDTH 13 0
BBX 11 13 1 0
BITMAP
7F80
7FC0
70E0
70E0
70E0
70E0
FFC0
FF80
7000
FE00
FE00
7000
7000
ENDCHAR
STARTCHAR uni2105
ENCODING 8453
SWIDTH 734 0
DWIDTH 13 0
BBX 11 13 1 0
BITMAP
7000
F880
D980
DB00
FA00
7600
0400
0DC0
1BE0
1320
3320
23E0
01C0
ENDCHAR
STARTCHAR uni2113
ENCODING 8467
SWIDTH 493 0
DWIDTH 9 0
BBX 8 13 0 0
BITMAP
0E
1F
3B
3B
3B
3B
3E
3E
FC
F8
38
3E
0E
ENDCHAR
STARTCHAR uni2116
ENCODING 8470
SWIDTH 1014 0
DWIDTH 18 0
BBX 16 13 1 0
BITMAP
E39E
E3BF
F3B1
F3B1
FBB1
FBBF
FF9E
EF80
EFBE
E7BE
E780
E380
E380
ENDCHAR
STARTCHAR trademark
ENCODING 8482
SWIDTH 631 0
DWIDTH 11 0
BBX 9 5 1 8
BITMAP
FC80
4D80
4D80
4A80
4A80
ENDCHAR
STARTCHAR uni03A9.dup2
ENCODING 8486
SWIDTH 671 0
DWIDTH 12 0
BBX 10 13 1 0
BITMAP
1E00
7F80
7380
E1C0
E1C0
E1C0
E1C0
E1C0
E1C0
6180
7300
FFC0
FFC0
ENDCHAR
STARTCHAR estimated
ENCODING 8494
SWIDTH 632 0
DWIDTH 11 0
BBX 9 10 1 0
BITMAP
1E00
3100
6080
E080
FF80
C000
C000
4000
6100
1E00
ENDCHAR
STARTCHAR oneeighth
ENCODING 8539
SWIDTH 783 0
DWIDTH 14 0
BBX 12 13 1 0
BITMAP
6000
E080
E180
2300
2200
2600
24E0
0DF0
19B0
10E0
3190
21F0
00F0
ENDCHAR
STARTCHAR threeeighths
ENCODING 8540
SWIDTH 861 0
DWIDTH 16 0
BBX 14 13 1 0
BITMAP
7800
F840
08E0
3080
0980
F900
7B78
067C
04C8
0C78
08CC
18FC
0078
ENDCHAR
STARTCHAR fiveeighths
ENCODING 8541
SWIDTH 852 0
DWIDTH 15 0
BBX 14 13 1 0
BITMAP
F800
F840
C0C0
F880
0980
FB00
7A78
06F8
04C8
0C78
18C8
10FC
0078
ENDCHAR
STARTCHAR seveneighths
ENCODING 8542
SWIDTH 859 0
DWIDTH 15 0
BBX 13 13 1 0
BITMAP
F800
F880
19C0
1180
3300
6200
6670
0CF8
0CD8
1870
1098
30F8
00F0
ENDCHAR
STARTCHAR partialdiff
ENCODING 8706
SWIDTH 572 0
DWIDTH 10 0
BBX 9 14 1 0
BITMAP
7C00
7E00
0700
0300
3F00
7F00
E780
C380
C380
C300
C300
E700
7E00
3C00
ENDCHAR
STARTCHAR uni0394.dup3
ENCODING 8710
SWIDTH 730 0
DWIDTH 13 0
BBX 13 13 0 0
BITMAP
0700
0780
0F80
0D80
0DC0
1CC0
18E0
38E0
3860
3070
7070
7FF0
FFF8
ENDCHAR
STARTCHAR product
ENCODING 8719
SWIDTH 692 0
DWIDTH 12 0
BBX 10 15 1 -2
BITMAP
FFC0
FFC0
E0C0
E0C0
E0C0
E0C0
E0C0
E0C0
E0C0
E0C0
E0C0
E0C0
E0C0
E0C0
E0C0
ENDCHAR
STARTCHAR summation
ENCODING 8721
SWIDTH 626 0
DWIDTH 11 0
BBX 11 15 0 -2
BITMAP
FFE0
7FE0
3000
3800
1C00
0E00
0700
0700
0600
0E00
1C00
3800
7000
7FE0
FFE0
ENDCHAR
STARTCHAR minus
ENCODING 8722
SWIDTH 555 0
DWIDTH 10 0
BBX 8 2 1 5
BITMAP
FF
FF
ENDCHAR
STARTCHAR radical
ENCODING 8730
SWIDTH 564 0
DWIDTH 10 0
BBX 10 13 0 0
BITMAP
00C0
0180
0180
0180
0180
0300
F300
F300
1200
1E00
1E00
0E00
0C00
ENDCHAR
STARTCHAR infinity
ENCODING 8734
SWIDTH 1046 0
DWIDTH 19 0
BBX 17 10 1 0
BITMAP
3C1E00
7F7F00
E36380
E1C380
C1C180
C1C180
E1C380
E36380
7F7F00
3C1E00
ENDCHAR
STARTCHAR integral
ENCODING 8747
SWIDTH 288 0
DWIDTH 5 0
BBX 7 18 -1 -4
BITMAP
0E
1E
38
38
38
38
38
38
38
38
38
38
38
38
38
38
F0
E0
ENDCHAR
STARTCHAR approxequal
ENCODING 8776
SWIDTH 576 0
DWIDTH 10 0
BBX 8 7 1 2
BITMAP
F1
FF
8F
00
F1
FF
8F
ENDCHAR
STARTCHAR notequal
ENCODING 8800
SWIDTH 572 0
DWIDTH 10 0
BBX 8 10 1 1
BITMAP
02
06
FF
FF
08
18
FF
FF
20
40
ENDCHAR
STARTCHAR lessequal
ENCODING 8804
SWIDTH 509 0
DWIDTH 9 0
BBX 8 11 0 0
BITMAP
01
0F
7E
E0
7C
1F
03
00
00
7F
7F
ENDCHAR
STARTCHAR greaterequal
ENCODING 8805
SWIDTH 516 0
DWIDTH 9 0
BBX 8 11 1 0
BITMAP
80
F0
3E
07
3F
F8
C0
00
00
FF
FF
ENDCHAR
STARTCHAR lozenge
ENCODING 9674
SWIDTH 508 0
DWIDTH 9 0
BBX 9 13 0 0
BITMAP
1C00
1C00
3E00
3600
7700
6300
E380
6300
7700
3600
3E00
1C00
1C00
ENDCHAR
STARTCHAR uniEE01
ENCODING 60929
SWIDTH 293 0
DWIDTH 5 0
BBX 3 10 1 2
BITMAP
E0
E0
E0
00
00
00
00
E0
E0
E0
ENDCHAR
STARTCHAR uniEE02
ENCODING 60930
SWIDTH 320 0
DWIDTH 6 0
BBX 4 4 1 6
BITMAP
90
90
90
90
ENDCHAR
STARTCHAR uniF6C3
ENCODING 63171
SWIDTH 229 0
DWIDTH 4 0
BBX 3 4 0 -2
BITMAP
60
60
60
C0
ENDCHAR
STARTCHAR uniFB01
ENCODING 64257
SWIDTH 608 0
DWIDTH 11 0
BBX 10 14 0 0
BITMAP
1F80
3F00
3800
3000
FDC0
FDC0
31C0
31C0
31C0
31C0
31C0
31C0
31C0
31C0
ENDCHAR
STARTCHAR uniFB02
ENCODING 64258
SWIDTH 612 0
DWIDTH 11 0
BBX 10 14 0 0
BITMAP
1FC0
3FC0
31C0
31C0
FDC0
FDC0
31C0
31C0
31C0
31C0
31C0
31C0
31C0
31C0
ENDCHAR
STARTCHAR uniFB03
ENCODING 64259
SWIDTH 928 0
DWIDTH 17 0
BBX 16 14 0 0
BITMAP
1E7E
3EFC
38C0
31C0
FFF7
FFF7
31C7
31C7
31C7
31C7
31C7
31C7
31C7
31C7
ENDCHAR
STARTCHAR uniFB04
ENCODING 64260
SWIDTH 928 0
DWIDTH 17 0
BBX 16 14 0 0
BITMAP
1E7F
3EFF
38C7
31C7
FFF7
FFF7
31C7
31C7
31C7
31C7
31C7
31C7
31C7
31C7
ENDCHAR
STARTCHAR uniFEFF
ENCODING 65279
SWIDTH 0 0
DWIDTH 0 0
BBX 1 1 0 0
BITMAP
00
ENDCHAR
STARTCHAR uniFFFC
ENCODING 65532
SWIDTH 1021 0
DWIDTH 18 0
BBX 17 17 1 -4
BITMAP
CDDB80
800080
800080
000000
800080
800080
1DC200
A54280
A5C280
255200
9DCC80
800080
800080
000000
800080
800080
CDDB80
ENDCHAR
STARTCHAR uniFFFD
ENCODING 65533
SWIDTH 1025 0
DWIDTH 18 0
BBX 17 17 1 -3
BITMAP
008000
01C000
03E000
07F000
0FF800
1C3C00
3D9E00
7F9F00
FF3F80
7E7F00
3FFE00
1E7C00
0E7800
07F000
03E000
01C000
008000
ENDCHAR
STARTCHAR .notdef
ENCODING -1
SWIDTH 443 0
DWIDTH 8 0
BBX 6 13 1 0
BITMAP
FC
8C
8C
D4
D4
B4
A4
B4
D4
D4
8C
8C
FC
ENDCHAR
STARTCHAR glyph369
ENCODING -1
SWIDTH 390 0
DWIDTH 7 0
BBX 5 3 1 10
BITMAP
98
90
70
ENDCHAR
STARTCHAR uni2009.locl
ENCODING -1
SWIDTH 125 0
DWIDTH 2 0
BBX 1 1 0 0
BITMAP
00
ENDCHAR
STARTCHAR f_f.dlig
ENCODING -1
SWIDTH 653 0
DWIDTH 12 0
BBX 12 14 0 0
BITMAP
1CF0
3DF0
7180
7180
FFE0
FFE0
7180
7180
7180
7180
7180
7180
7180
7180
ENDCHAR
STARTCHAR longs_t.dlig
ENCODING -1
SWIDTH 646 0
DWIDTH 12 0
BBX 11 14 0 0
BITMAP
1F00
3FC0
39C0
31C0
F3E0
F3E0
31C0
31C0
31C0
31C0
31C0
31C0
31E0
30E0
ENDCHAR
STARTCHAR s_t.dlig
ENCODING -1
SWIDTH 850 0
DWIDTH 15 0
BBX 15 14 0 0
BITMAP
01F0
03F8
0738
0318
3F7E
7F7E
6318
6018
7C18
1F18
0318
E318
7F1E
3E0E
ENDCHAR
STARTCHAR two.dnom
ENCODING -1
SWIDTH 372 0
DWIDTH 7 0
BBX 5 7 1 0
BITMAP
70
F8
18
30
60
F8
F8
ENDCHAR
STARTCHAR one.dnom
ENCODING -1
SWIDTH 372 0
DWIDTH 7 0
BBX 4 7 1 0
BITMAP
30
F0
F0
30
30
30
30
ENDCHAR
STARTCHAR zero.dnom
ENCODING -1
SWIDTH 372 0
DWIDTH 7 0
BBX 5 7 1 0
BITMAP
70
F8
D8
D8
D8
F8
70
ENDCHAR
STARTCHAR nine.c2sc
ENCODING -1
SWIDTH 519 0
DWIDTH 9 0
BBX 8 10 0 0
BITMAP
3E
7F
63
E3
7F
3F
03
07
3E
3C
ENDCHAR
STARTCHAR eight.c2sc
ENCODING -1
SWIDTH 519 0
DWIDTH 9 0
BBX 7 10 1 0
BITMAP
7C
FE
C6
C6
7C
FE
C6
C6
FE
7C
ENDCHAR
STARTCHAR seven.c2sc
ENCODING -1
SWIDTH 519 0
DWIDTH 9 0
BBX 9 10 0 0
BITMAP
FF80
FF00
0300
0600
0E00
0C00
1C00
1800
3800
7000
ENDCHAR
STARTCHAR six.c2sc
ENCODING -1
SWIDTH 519 0
DWIDTH 9 0
BBX 8 10 1 0
BITMAP
1C
7C
E0
DC
FE
C7
C7
C7
FE
7C
ENDCHAR
STARTCHAR five.c2sc
ENCODING -1
SWIDTH 519 0
DWIDTH 9 0
BBX 8 10 1 0
BITMAP
FE
FE
C0
FC
FE
06
07
C6
FE
7C
ENDCHAR
STARTCHAR four.c2sc
ENCODING -1
SWIDTH 519 0
DWIDTH 9 0
BBX 9 10 0 0
BITMAP
0600
0E00
1E00
3E00
3600
6600
FF80
FF80
0600
0600
ENDCHAR
STARTCHAR three.c2sc
ENCODING -1
SWIDTH 519 0
DWIDTH 9 0
BBX 8 10 0 0
BITMAP
3E
7F
E3
03
1E
1F
03
E3
7F
3E
ENDCHAR
STARTCHAR two.c2sc
ENCODING -1
SWIDTH 519 0
DWIDTH 9 0
BBX 9 10 0 0
BITMAP
3E00
7F00
E300
E300
0700
0E00
1C00
3800
7F80
7F80
ENDCHAR
STARTCHAR one.c2sc
ENCODING -1
SWIDTH 519 0
DWIDTH 9 0
BBX 5 10 1 0
BITMAP
08
78
F8
D8
18
18
18
18
18
18
ENDCHAR
STARTCHAR zero.c2sc
ENCODING -1
SWIDTH 519 0
DWIDTH 9 0
BBX 7 10 1 0
BITMAP
7C
FE
C6
C6
C6
C6
C6
C6
FE
7C
ENDCHAR
STARTCHAR Z.c2sc
ENCODING -1
SWIDTH 523 0
DWIDTH 9 0
BBX 9 10 0 0
BITMAP
FF80
FF80
0700
0600
0E00
1C00
3800
7000
7F80
7F80
ENDCHAR
STARTCHAR Y.c2sc
ENCODING -1
SWIDTH 537 0
DWIDTH 10 0
BBX 10 10 0 0
BITMAP
E1C0
6380
7300
3700
3E00
1E00
0C00
0C00
0C00
0C00
ENDCHAR
STARTCHAR X.c2sc
ENCODING -1
SWIDTH 548 0
DWIDTH 10 0
BBX 10 10 0 0
BITMAP
E3C0
7380
3700
3E00
1E00
1E00
3E00
3700
7380
E1C0
ENDCHAR
STARTCHAR W.c2sc
ENCODING -1
SWIDTH 748 0
DWIDTH 13 0
BBX 13 10 0 0
BITMAP
E738
E738
6730
6730
6DB0
7DF0
3DE0
3DE0
38E0
38E0
ENDCHAR
STARTCHAR V.c2sc
ENCODING -1
SWIDTH 566 0
DWIDTH 10 0
BBX 10 10 0 0
BITMAP
E1C0
61C0
6180
7380
3380
3300
3F00
1E00
1E00
0E00
ENDCHAR
STARTCHAR U.c2sc
ENCODING -1
SWIDTH 569 0
DWIDTH 10 0
BBX 8 10 1 0
BITMAP
C3
C3
C3
C3
C3
C3
C3
E7
FF
3C
ENDCHAR
STARTCHAR T.c2sc
ENCODING -1
SWIDTH 539 0
DWIDTH 10 0
BBX 9 10 0 0
BITMAP
FF80
FF80
0C00
0C00
0C00
0C00
0C00
0C00
0C00
0C00
ENDCHAR
STARTCHAR S.c2sc
ENCODING -1
SWIDTH 535 0
DWIDTH 10 0
BBX 8 10 1 0
BITMAP
3E
FF
E7
E0
7C
3F
07
C3
FF
3E
ENDCHAR
STARTCHAR R.c2sc
ENCODING -1
SWIDTH 557 0
DWIDTH 10 0
BBX 9 10 1 0
BITMAP
FE00
FF00
C700
C300
C700
FE00
FC00
CE00
C700
C380
ENDCHAR
STARTCHAR Q.c2sc
ENCODING -1
SWIDTH 593 0
DWIDTH 11 0
BBX 9 12 1 -2
BITMAP
3E00
7F00
E380
C180
C180
C180
C180
E380
7F00
3F00
0380
0100
ENDCHAR
STARTCHAR P.c2sc
ENCODING -1
SWIDTH 558 0
DWIDTH 10 0
BBX 8 10 1 0
BITMAP
FE
FF
C3
C3
C3
FF
FE
C0
C0
C0
ENDCHAR
STARTCHAR O.c2sc
ENCODING -1
SWIDTH 593 0
DWIDTH 11 0
BBX 9 10 1 0
BITMAP
3E00
7F00
E380
C180
C180
C180
C180
E380
7F00
3E00
ENDCHAR
STARTCHAR N.c2sc
ENCODING -1
SWIDTH 604 0
DWIDTH 11 0
BBX 9 10 1 0
BITMAP
E380
E380
F380
FB80
DB80
CF80
CF80
C780
C780
C380
ENDCHAR
STARTCHAR M.c2sc
ENCODING -1
SWIDTH 753 0
DWIDTH 14 0
BBX 12 10 1 0
BITMAP
F0F0
F0F0
F0F0
D9B0
D9B0
FFF0
EF70
EF70
E670
E670
ENDCHAR
STARTCHAR L.c2sc
ENCODING -1
SWIDTH 465 0
DWIDTH 8 0
BBX 7 10 1 0
BITMAP
C0
C0
C0
C0
C0
C0
C0
C0
FE
FE
ENDCHAR
STARTCHAR K.c2sc
ENCODING -1
SWIDTH 548 0
DWIDTH 10 0
BBX 9 10 1 0
BITMAP
C780
C700
CE00
DC00
F800
FC00
EE00
CE00
C700
C380
ENDCHAR
STARTCHAR J.c2sc
ENCODING -1
SWIDTH 482 0
DWIDTH 9 0
BBX 8 10 0 0
BITMAP
07
07
07
07
07
07
07
E7
7E
3C
ENDCHAR
STARTCHAR I.c2sc
ENCODING -1
SWIDTH 257 0
DWIDTH 5 0
BBX 3 10 1 0
BITMAP
E0
E0
E0
E0
E0
E0
E0
E0
E0
E0
ENDCHAR
STARTCHAR H.c2sc
ENCODING -1
SWIDTH 604 0
DWIDTH 11 0
BBX 9 10 1 0
BITMAP
C380
C380
C380
C380
FF80
FF80
C380
C380
C380
C380
ENDCHAR
STARTCHAR G.c2sc
ENCODING -1
SWIDTH 579 0
DWIDTH 10 0
BBX 10 10 0 0
BITMAP
1F00
7F80
7180
6040
E7C0
E7C0
61C0
71C0
7FC0
1F00
ENDCHAR
STARTCHAR F.c2sc
ENCODING -1
SWIDTH 470 0
DWIDTH 8 0
BBX 7 10 1 0
BITMAP
FE
FE
C0
C0
FE
FE
C0
C0
C0
C0
ENDCHAR
STARTCHAR dollar.c2sc
ENCODING -1
SWIDTH 535 0
DWIDTH 10 0
BBX 8 14 1 -2
BITMAP
18
18
3E
FF
E7
E0
7E
3F
07
E3
FF
3E
18
18
ENDCHAR
STARTCHAR sterling.c2sc
ENCODING -1
SWIDTH 571 0
DWIDTH 10 0
BBX 9 10 0 0
BITMAP
1F00
3F80
3180
3000
FF00
FF00
3000
3000
7F80
7F80
ENDCHAR
STARTCHAR yen.c2sc
ENCODING -1
SWIDTH 456 0
DWIDTH 8 0
BBX 8 10 0 0
BITMAP
E7
66
7E
3C
FF
FF
18
FF
FF
18
ENDCHAR
STARTCHAR Gamma.c2sc
ENCODING -1
SWIDTH 471 0
DWIDTH 8 0
BBX 7 10 1 0
BITMAP
FE
FE
C0
C0
C0
C0
C0
C0
C0
C0
ENDCHAR
STARTCHAR uni0394.c2sc
ENCODING -1
SWIDTH 566 0
DWIDTH 10 0
BBX 10 10 0 0
BITMAP
1E00
1E00
1E00
3F00
3300
3300
7380
6180
FFC0
FFC0
ENDCHAR
STARTCHAR Theta.c2sc
ENCODING -1
SWIDTH 593 0
DWIDTH 11 0
BBX 9 10 1 0
BITMAP
3E00
7F00
E380
C180
DD80
DD80
C180
E380
7F00
3E00
ENDCHAR
STARTCHAR Lambda.c2sc
ENCODING -1
SWIDTH 566 0
DWIDTH 10 0
BBX 10 10 0 0
BITMAP
1E00
1E00
1E00
3F00
3300
3300
7380
6180
E1C0
E1C0
ENDCHAR
STARTCHAR Xi.c2sc
ENCODING -1
SWIDTH 458 0
DWIDTH 8 0
BBX 7 10 1 0
BITMAP
FE
FE
00
00
FC
FC
00
00
FE
FE
ENDCHAR
STARTCHAR Pi.c2sc
ENCODING -1
SWIDTH 609 0
DWIDTH 11 0
BBX 9 10 1 0
BITMAP
FF80
FF80
C180
C180
C180
C180
C180
C180
C180
C180
ENDCHAR
STARTCHAR Sigma.c2sc
ENCODING -1
SWIDTH 532 0
DWIDTH 10 0
BBX 8 10 1 0
BITMAP
FF
FF
60
70
38
38
70
60
FF
FF
ENDCHAR
STARTCHAR Phi.c2sc
ENCODING -1
SWIDTH 729 0
DWIDTH 13 0
BBX 12 10 1 0
BITMAP
0E00
3F80
FFE0
EEE0
CE60
CE70
EEE0
FFE0
3F80
0E00
ENDCHAR
STARTCHAR Psi.c2sc
ENCODING -1
SWIDTH 693 0
DWIDTH 12 0
BBX 12 10 0 0
BITMAP
E670
E670
E670
E670
6670
76E0
3FC0
1F80
0600
0600
ENDCHAR
STARTCHAR uni03A9.c2sc
ENCODING -1
SWIDTH 602 0
DWIDTH 11 0
BBX 9 10 1 0
BITMAP
3E00
7F00
E380
C180
C180
C180
E380
6300
F780
F780
ENDCHAR
STARTCHAR uni0402.c2sc
ENCODING -1
SWIDTH 708 0
DWIDTH 13 0
BBX 12 10 0 0
BITMAP
FF80
FF80
1C00
1FE0
1FF0
1C30
1C30
1C30
1CF0
1CE0
ENDCHAR
STARTCHAR uni0404.c2sc
ENCODING -1
SWIDTH 563 0
DWIDTH 10 0
BBX 10 10 0 0
BITMAP
1F00
3F80
7180
61C0
FC00
FC00
6000
71C0
3F80
1F00
ENDCHAR
STARTCHAR uni0409.c2sc
ENCODING -1
SWIDTH 924 0
DWIDTH 17 0
BBX 16 10 0 0
BITMAP
1FC0
3FC0
38C0
38FC
38FF
38C7
38C3
38C7
F0FF
E0FC
ENDCHAR
STARTCHAR uni040A.c2sc
ENCODING -1
SWIDTH 920 0
DWIDTH 17 0
BBX 15 10 1 0
BITMAP
E180
E180
E180
E1F8
FFFE
FF8E
E186
E18E
E1FE
E1F8
ENDCHAR
STARTCHAR uni040B.c2sc
ENCODING -1
SWIDTH 714 0
DWIDTH 13 0
BBX 12 10 0 0
BITMAP
FF80
FF80
1C00
1FE0
1FF0
1C70
1C30
1C30
1C30
1C30
ENDCHAR
STARTCHAR uni040F.c2sc
ENCODING -1
SWIDTH 609 0
DWIDTH 11 0
BBX 9 13 1 -3
BITMAP
C180
C180
C180
C180
C180
C180
C180
C180
FF80
FF80
1C00
1C00
1C00
ENDCHAR
STARTCHAR uni0411.c2sc
ENCODING -1
SWIDTH 564 0
DWIDTH 10 0
BBX 9 10 1 0
BITMAP
FE00
FE00
C000
FE00
FF00
C300
C380
C300
FF00
FE00
ENDCHAR
STARTCHAR uni0414.c2sc
ENCODING -1
SWIDTH 692 0
DWIDTH 12 0
BBX 12 13 0 -3
BITMAP
3FC0
3FC0
38C0
38C0
38C0
38C0
38C0
70C0
FFF0
FFF0
E070
E070
E070
ENDCHAR
STARTCHAR uni0416.c2sc
ENCODING -1
SWIDTH 804 0
DWIDTH 14 0
BBX 14 10 0 0
BITMAP
E31C
7338
7330
3B70
1FE0
3FF0
3B70
7338
7338
E31C
ENDCHAR
STARTCHAR uni0417.c2sc
ENCODING -1
SWIDTH 536 0
DWIDTH 10 0
BBX 8 10 1 0
BITMAP
7E
FF
E7
07
1E
1E
07
C7
FF
7E
ENDCHAR
STARTCHAR uni0418.c2sc
ENCODING -1
SWIDTH 606 0
DWIDTH 11 0
BBX 9 10 1 0
BITMAP
C380
C380
C780
CF80
CD80
D980
F980
F180
E180
E180
ENDCHAR
STARTCHAR uni041A.c2sc
ENCODING -1
SWIDTH 551 0
DWIDTH 10 0
BBX 9 10 1 0
BITMAP
C700
C700
CE00
CC00
FC00
FC00
CE00
CE00
C700
C780
ENDCHAR
STARTCHAR uni041B.c2sc
ENCODING -1
SWIDTH 603 0
DWIDTH 11 0
BBX 10 10 0 0
BITMAP
3FC0
3FC0
39C0
39C0
39C0
39C0
39C0
31C0
F1C0
E1C0
ENDCHAR
STARTCHAR uni0423.c2sc
ENCODING -1
SWIDTH 553 0
DWIDTH 10 0
BBX 10 10 0 0
BITMAP
E1C0
7180
3380
3B00
1F00
1E00
0E00
0C00
3C00
3800
ENDCHAR
STARTCHAR uni0426.c2sc
ENCODING -1
SWIDTH 695 0
DWIDTH 13 0
BBX 11 13 1 -3
BITMAP
E180
E180
E180
E180
E180
E180
E180
E180
FFE0
FFE0
0060
0060
0060
ENDCHAR
STARTCHAR uni0427.c2sc
ENCODING -1
SWIDTH 582 0
DWIDTH 10 0
BBX 9 10 0 0
BITMAP
E180
E180
E180
E180
6180
7F80
3F80
0180
0180
0180
ENDCHAR
STARTCHAR uni0428.c2sc
ENCODING -1
SWIDTH 835 0
DWIDTH 15 0
BBX 13 10 1 0
BITMAP
C718
C718
C718
C718
C718
C718
C718
C718
FFF8
FFF8
ENDCHAR
STARTCHAR uni0429.c2sc
ENCODING -1
SWIDTH 921 0
DWIDTH 17 0
BBX 15 13 1 -3
BITMAP
E718
E718
E718
E718
E718
E718
E718
E718
FFFE
FFFE
0006
0006
0006
ENDCHAR
STARTCHAR uni042A.c2sc
ENCODING -1
SWIDTH 698 0
DWIDTH 13 0
BBX 12 10 0 0
BITMAP
FC00
FC00
0C00
0FC0
0FF0
0C70
0C30
0C70
0FF0
0FC0
ENDCHAR
STARTCHAR uni042B.c2sc
ENCODING -1
SWIDTH 778 0
DWIDTH 14 0
BBX 12 10 1 0
BITMAP
C030
C030
C030
FE30
FF30
C330
C3B0
C330
FF30
FE30
ENDCHAR
STARTCHAR uni042C.c2sc
ENCODING -1
SWIDTH 560 0
DWIDTH 10 0
BBX 9 10 1 0
BITMAP
C000
C000
C000
FE00
FF00
C300
C380
C300
FF00
FE00
ENDCHAR
STARTCHAR uni042D.c2sc
ENCODING -1
SWIDTH 563 0
DWIDTH 10 0
BBX 10 10 0 0
BITMAP
3E00
7F00
6380
E180
0FC0
0FC0
0180
E380
7F80
3E00
ENDCHAR
STARTCHAR uni042E.c2sc
ENCODING -1
SWIDTH 830 0
DWIDTH 15 0
BBX 13 10 1 0
BITMAP
C3E0
C7F0
CE38
CE18
FC18
FC18
CE18
CE38
C7F0
C3E0
ENDCHAR
STARTCHAR uni042F.c2sc
ENCODING -1
SWIDTH 563 0
DWIDTH 10 0
BBX 9 10 0 0
BITMAP
1F80
7F80
7180
7180
3F80
1F80
3980
3180
7180
E180
ENDCHAR
STARTCHAR uni0492.c2sc
ENCODING -1
SWIDTH 526 0
DWIDTH 9 0
BBX 9 10 0 0
BITMAP
3F80
3F80
3000
3000
FC00
FC00
3000
3000
3000
3000
ENDCHAR
STARTCHAR uni0496.c2sc
ENCODING -1
SWIDTH 862 0
DWIDTH 16 0
BBX 15 13 0 -3
BITMAP
739C
3398
3BB8
1BB0
1FF0
1FF0
3BB8
3BB8
739E
739E
8006
0006
0006
ENDCHAR
STARTCHAR uni049A.c2sc
ENCODING -1
SWIDTH 593 0
DWIDTH 11 0
BBX 10 13 1 -3
BITMAP
E780
E700
EE00
EC00
FC00
FC00
EE00
EE00
E7C0
E3C0
00C0
00C0
00C0
ENDCHAR
STARTCHAR uni049C.c2sc
ENCODING -1
SWIDTH 635 0
DWIDTH 11 0
BBX 10 10 1 0
BITMAP
C1C0
C380
D700
D700
FE00
FE00
D700
D300
C380
C1C0
ENDCHAR
STARTCHAR uni04A0.c2sc
ENCODING -1
SWIDTH 704 0
DWIDTH 13 0
BBX 13 10 0 0
BITMAP
FC70
FC60
0CE0
0CC0
0FC0
0FC0
0CC0
0CE0
0C70
0C78
ENDCHAR
STARTCHAR uni04A8.c2sc
ENCODING -1
SWIDTH 765 0
DWIDTH 14 0
BBX 12 10 1 0
BITMAP
33C0
77E0
E670
CE70
CE30
CE70
E670
F7E0
7FF0
1F30
ENDCHAR
STARTCHAR uni04B0.c2sc
ENCODING -1
SWIDTH 539 0
DWIDTH 10 0
BBX 10 10 0 0
BITMAP
E1C0
6380
7300
3700
3E00
1E00
3F00
3F00
0C00
0C00
ENDCHAR
STARTCHAR uni04B2.c2sc
ENCODING -1
SWIDTH 606 0
DWIDTH 11 0
BBX 10 13 0 -3
BITMAP
E3C0
7380
3700
3E00
1E00
1E00
3E00
3700
73C0
E1C0
00C0
00C0
00C0
ENDCHAR
STARTCHAR uni04B4.c2sc
ENCODING -1
SWIDTH 845 0
DWIDTH 15 0
BBX 14 13 0 -3
BITMAP
FFB0
FFB0
1C30
1C30
1C30
1C30
1C30
1C30
1FFC
1FFC
000C
000C
000C
ENDCHAR
STARTCHAR uni04B8.c2sc
ENCODING -1
SWIDTH 582 0
DWIDTH 10 0
BBX 9 10 0 0
BITMAP
E180
E180
E180
ED80
6D80
7F80
3F80
0D80
0D80
0180
ENDCHAR
STARTCHAR uni04BA.c2sc
ENCODING -1
SWIDTH 582 0
DWIDTH 10 0
BBX 9 10 1 0
BITMAP
C000
C000
C000
FE00
FF00
C300
C380
C380
C380
C380
ENDCHAR
STARTCHAR uni04BC.c2sc
ENCODING -1
SWIDTH 773 0
DWIDTH 14 0
BBX 13 10 0 0
BITMAP
03E0
07F0
CE38
EC18
7FF8
3FF8
0C00
0E00
07F0
03F0
ENDCHAR
STARTCHAR uni04D8.c2sc
ENCODING -1
SWIDTH 602 0
DWIDTH 11 0
BBX 9 10 1 0
BITMAP
7E00
FF00
0380
0180
FF80
FF80
C180
E380
7F00
3E00
ENDCHAR
STARTCHAR uni04E0.c2sc
ENCODING -1
SWIDTH 537 0
DWIDTH 10 0
BBX 8 10 1 0
BITMAP
FF
FF
0E
1C
1C
1F
07
C7
FF
7C
ENDCHAR
STARTCHAR uni04E8.c2sc
ENCODING -1
SWIDTH 593 0
DWIDTH 11 0
BBX 9 10 1 0
BITMAP
3E00
7F00
E380
C180
FF80
FF80
C180
E380
7F00
3E00
ENDCHAR
STARTCHAR lira.c2sc
ENCODING -1
SWIDTH 571 0
DWIDTH 10 0
BBX 9 10 0 0
BITMAP
1F00
3F80
3980
3000
FF00
3000
FF00
3000
7F80
7F80
ENDCHAR
STARTCHAR Euro.c2sc
ENCODING -1
SWIDTH 501 0
DWIDTH 9 0
BBX 7 10 1 0
BITMAP
1E
3E
70
FE
60
FE
70
70
3E
1E
ENDCHAR
STARTCHAR uni2116.c2sc
ENCODING -1
SWIDTH 1028 0
DWIDTH 19 0
BBX 17 10 1 0
BITMAP
E18F00
F19F80
F19180
F99180
FD9F80
ED8F00
EF8000
E79F00
E39F00
E38000
ENDCHAR
STARTCHAR uni20BD.c2sc
ENCODING -1
SWIDTH 646 0
DWIDTH 12 0
BBX 10 10 1 0
BITMAP
3F80
3FC0
31C0
30C0
31C0
FF80
3000
FE00
3000
3000
ENDCHAR
STARTCHAR three.dnom
ENCODING -1
SWIDTH 372 0
DWIDTH 7 0
BBX 5 7 1 0
BITMAP
F0
F8
18
30
18
F8
F0
ENDCHAR
STARTCHAR four.dnom
ENCODING -1
SWIDTH 372 0
DWIDTH 7 0
BBX 6 7 0 0
BITMAP
18
18
28
68
FC
7C
08
ENDCHAR
STARTCHAR five.dnom
ENCODING -1
SWIDTH 372 0
DWIDTH 7 0
BBX 5 7 1 0
BITMAP
F8
F8
C0
F8
18
F8
70
ENDCHAR
STARTCHAR six.dnom
ENCODING -1
SWIDTH 372 0
DWIDTH 7 0
BBX 5 7 1 0
BITMAP
30
F0
C0
F8
C8
F8
70
ENDCHAR
STARTCHAR seven.dnom
ENCODING -1
SWIDTH 372 0
DWIDTH 7 0
BBX 6 7 0 0
BITMAP
FC
FC
08
18
10
30
60
ENDCHAR
STARTCHAR eight.dnom
ENCODING -1
SWIDTH 372 0
DWIDTH 7 0
BBX 5 7 1 0
BITMAP
70
F8
D8
70
D8
F8
70
ENDCHAR
STARTCHAR nine.dnom
ENCODING -1
SWIDTH 372 0
DWIDTH 7 0
BBX 5 7 1 0
BITMAP
70
F8
D8
F8
18
78
70
ENDCHAR
STARTCHAR glyph550
ENCODING -1
SWIDTH 477 0
DWIDTH 9 0
BBX 6 2 1 5
BITMAP
FC
FC
ENDCHAR
STARTCHAR glyph551
ENCODING -1
SWIDTH 333 0
DWIDTH 6 0
BBX 5 6 1 10
BITMAP
18
30
40
60
90
60
ENDCHAR
STARTCHAR E.c2sc
ENCODING -1
SWIDTH 481 0
DWIDTH 9 0
BBX 7 10 1 0
BITMAP
FE
FE
C0
C0
FE
FE
C0
C0
FE
FE
ENDCHAR
STARTCHAR g.ss01
ENCODING -1
SWIDTH 528 0
DWIDTH 10 0
BBX 9 14 0 -4
BITMAP
3F80
7F80
7380
6380
7380
7F00
3E00
2000
7F00
7F80
E180
E180
FF80
3E00
ENDCHAR
STARTCHAR alpha.ss02
ENCODING -1
SWIDTH 584 0
DWIDTH 11 0
BBX 9 10 1 0
BITMAP
3D80
7D80
E780
E300
C300
C300
E300
E780
7F80
3D80
ENDCHAR
STARTCHAR R.ss03
ENCODING -1
SWIDTH 652 0
DWIDTH 12 0
BBX 10 13 1 0
BITMAP
FF00
FF80
E1C0
E1C0
E1C0
E180
FF00
FF80
E180
E1C0
E1C0
E1C0
E1C0
ENDCHAR
STARTCHAR K.ss04
ENCODING -1
SWIDTH 645 0
DWIDTH 12 0
BBX 11 13 1 0
BITMAP
E1C0
E380
E380
E700
EE00
FE00
FE00
E600
E700
E380
E380
E1C0
E1E0
ENDCHAR
STARTCHAR k.ss04
ENCODING -1
SWIDTH 534 0
DWIDTH 10 0
BBX 9 14 1 0
BITMAP
E000
E000
E000
E000
E700
E600
EE00
EC00
FC00
FC00
EC00
EE00
E700
E780
ENDCHAR
STARTCHAR K.ss05
ENCODING -1
SWIDTH 648 0
DWIDTH 12 0
BBX 11 13 1 0
BITMAP
E1C0
E380
E780
E700
EE00
FC00
FC00
FC00
EE00
E700
E780
E380
E1E0
ENDCHAR
STARTCHAR k.ss05
ENCODING -1
SWIDTH 531 0
DWIDTH 10 0
BBX 9 14 1 0
BITMAP
E000
E000
E000
E000
E780
EE00
EE00
FC00
F800
FC00
FC00
EE00
E700
E380
ENDCHAR
STARTCHAR D.c2sc
ENCODING -1
SWIDTH 557 0
DWIDTH 10 0
BBX 8 10 1 0
BITMAP
FC
FE
C7
C3
C3
C3
C3
C7
FE
FC
ENDCHAR
STARTCHAR C.c2sc
ENCODING -1
SWIDTH 563 0
DWIDTH 10 0
BBX 10 10 0 0
BITMAP
1F00
3F80
7180
61C0
E000
E000
6000
71C0
3F80
1F00
ENDCHAR
STARTCHAR B.c2sc
ENCODING -1
SWIDTH 553 0
DWIDTH 10 0
BBX 8 10 1 0
BITMAP
FE
FF
C7
C7
FE
FF
C3
C3
FF
FE
ENDCHAR
STARTCHAR A.c2sc
ENCODING -1
SWIDTH 583 0
DWIDTH 11 0
BBX 11 10 0 0
BITMAP
0E00
1E00
1E00
1F00
3B00
3380
7F80
7F80
61C0
E0E0
ENDCHAR
STARTCHAR glyph564
ENCODING -1
SWIDTH 250 0
DWIDTH 5 0
BBX 3 4 1 10
BITMAP
40
E0
C0
C0
ENDCHAR
STARTCHAR glyph565
ENCODING -1
SWIDTH 451 0
DWIDTH 8 0
BBX 6 4 1 11
BITMAP
60
20
DC
78
ENDCHAR
STARTCHAR glyph566
ENCODING -1
SWIDTH 0 0
DWIDTH 0 0
BBX 5 5 -8 11
BITMAP
18
30
00
68
98
ENDCHAR
STARTCHAR glyph567
ENCODING -1
SWIDTH 503 0
DWIDTH 9 0
BBX 9 3 1 11
BITMAP
0180
3B00
EE00
ENDCHAR
STARTCHAR glyph568
ENCODING -1
SWIDTH 503 0
DWIDTH 9 0
BBX 10 3 -2 11
BITMAP
E000
2700
1DC0
ENDCHAR
STARTCHAR glyph569
ENCODING -1
SWIDTH 503 0
DWIDTH 9 0
BBX 8 4 1 11
BITMAP
03
01
3A
EE
ENDCHAR
STARTCHAR glyph570
ENCODING -1
SWIDTH 503 0
DWIDTH 9 0
BBX 7 5 1 11
BITMAP
24
58
00
38
EE
ENDCHAR
STARTCHAR uni0490.c2sc
ENCODING -1
SWIDTH 471 0
DWIDTH 8 0
BBX 7 13 1 0
BITMAP
0E
0E
0E
FE
FE
C0
C0
C0
C0
C0
C0
C0
C0
ENDCHAR
STARTCHAR glyph572
ENCODING -1
SWIDTH 451 0
DWIDTH 8 0
BBX 6 4 1 11
BITMAP
18
10
EC
78
ENDCHAR
STARTCHAR glyph573
ENCODING -1
SWIDTH 451 0
DWIDTH 8 0
BBX 6 5 1 11
BITMAP
30
18
30
CC
78
ENDCHAR
STARTCHAR zero.numr
ENCODING -1
SWIDTH 372 0
DWIDTH 7 0
BBX 5 7 1 6
BITMAP
70
F8
D8
D8
D8
F8
70
ENDCHAR
STARTCHAR four.numr
ENCODING -1
SWIDTH 372 0
DWIDTH 7 0
BBX 6 7 0 6
BITMAP
18
18
28
68
FC
7C
08
ENDCHAR
STARTCHAR five.numr
ENCODING -1
SWIDTH 372 0
DWIDTH 7 0
BBX 5 7 1 6
BITMAP
F8
F8
C0
F8
18
F8
70
ENDCHAR
STARTCHAR six.numr
ENCODING -1
SWIDTH 372 0
DWIDTH 7 0
BBX 5 7 1 6
BITMAP
30
F0
C0
F8
C8
F8
70
ENDCHAR
STARTCHAR seven.numr
ENCODING -1
SWIDTH 372 0
DWIDTH 7 0
BBX 6 7 0 6
BITMAP
FC
FC
08
18
10
30
60
ENDCHAR
STARTCHAR eight.numr
ENCODING -1
SWIDTH 372 0
DWIDTH 7 0
BBX 5 7 1 6
BITMAP
70
F8
D8
70
D8
F8
70
ENDCHAR
STARTCHAR nine.numr
ENCODING -1
SWIDTH 372 0
DWIDTH 7 0
BBX 5 7 1 6
BITMAP
70
F8
D8
F8
18
78
70
ENDCHAR
STARTCHAR C.ss06
ENCODING -1
SWIDTH 676 0
DWIDTH 12 0
BBX 10 13 1 0
BITMAP
1F00
7F80
71C0
E0C0
E000
C000
C000
C000
E000
E0C0
71C0
7F80
1F00
ENDCHAR
STARTCHAR G.ss06
ENCODING -1
SWIDTH 696 0
DWIDTH 13 0
BBX 11 13 1 0
BITMAP
1F00
3FC0
71C0
60E0
E000
E000
E3E0
E3E0
E0E0
60E0
70E0
3FE0
0F80
ENDCHAR
STARTCHAR D.ss06
ENCODING -1
SWIDTH 680 0
DWIDTH 12 0
BBX 10 13 1 0
BITMAP
FE00
FF00
E380
E1C0
E1C0
E0C0
E0C0
E0C0
E1C0
E1C0
E380
FF00
FE00
ENDCHAR
STARTCHAR O.ss06
ENCODING -1
SWIDTH 729 0
DWIDTH 13 0
BBX 11 13 1 0
BITMAP
1F00
3F80
71C0
E0E0
E0E0
C060
C060
C060
E0E0
E0E0
71C0
3F80
1F00
ENDCHAR
STARTCHAR Q.ss06
ENCODING -1
SWIDTH 729 0
DWIDTH 13 0
BBX 11 15 1 -2
BITMAP
1F00
3F80
71C0
E0E0
E0E0
C060
C060
C060
E0E0
E0E0
71C0
3F80
1FC0
00E0
0040
ENDCHAR
STARTCHAR one.oldstyle.pnum
ENCODING -1
SWIDTH 550 0
DWIDTH 10 0
BBX 6 10 1 0
BITMAP
0C
3C
FC
DC
1C
1C
1C
1C
1C
1C
ENDCHAR
STARTCHAR two.oldstyle.pnum
ENCODING -1
SWIDTH 563 0
DWIDTH 10 0
BBX 8 10 1 0
BITMAP
3E
FF
E7
07
06
0E
38
70
FF
FF
ENDCHAR
STARTCHAR three.oldstyle.pnum
ENCODING -1
SWIDTH 542 0
DWIDTH 10 0
BBX 9 13 0 -3
BITMAP
7F80
7F80
0700
0E00
0C00
1E00
1F00
0380
0180
0380
8380
FF00
7E00
ENDCHAR
STARTCHAR four.oldstyle.pnum
ENCODING -1
SWIDTH 583 0
DWIDTH 11 0
BBX 10 13 0 -3
BITMAP
0380
0780
0F80
0F80
1B80
3B80
3380
6380
FFC0
FFC0
0380
0380
0380
ENDCHAR
STARTCHAR five.oldstyle.pnum
ENCODING -1
SWIDTH 552 0
DWIDTH 10 0
BBX 9 13 1 -3
BITMAP
7F00
7F00
6000
6000
FE00
FF00
E700
0300
0380
0300
8700
FE00
7C00
ENDCHAR
STARTCHAR seven.oldstyle.pnum
ENCODING -1
SWIDTH 522 0
DWIDTH 9 0
BBX 8 13 1 -3
BITMAP
FF
FF
03
07
06
0E
0C
1C
18
38
38
30
70
ENDCHAR
STARTCHAR glyph592
ENCODING -1
SWIDTH 451 0
DWIDTH 8 0
BBX 6 5 1 11
BITMAP
6C
D8
00
CC
78
ENDCHAR
STARTCHAR glyph593
ENCODING -1
SWIDTH 230 0
DWIDTH 4 0
BBX 2 5 1 -3
BITMAP
C0
C0
C0
C0
C0
ENDCHAR
STARTCHAR OE.c2sc
ENCODING -1
SWIDTH 819 0
DWIDTH 15 0
BBX 14 10 1 0
BITMAP
3FFC
7FFC
E380
C380
C3F8
C3F8
C380
E380
7FFC
3FFC
ENDCHAR
STARTCHAR nine.oldstyle.pnum
ENCODING -1
SWIDTH 581 0
DWIDTH 10 0
BBX 9 13 1 -3
BITMAP
3C00
FE00
E700
C300
C380
E380
FF80
7F80
0300
0700
0700
7E00
7C00
ENDCHAR
STARTCHAR glyph596
ENCODING -1
SWIDTH 263 0
DWIDTH 5 0
BBX 5 6 -1 -4
BITMAP
38
38
38
38
F0
E0
ENDCHAR
STARTCHAR three.oldstyle
ENCODING -1
SWIDTH 573 0
DWIDTH 10 0
BBX 9 13 1 -3
BITMAP
FF00
FF00
0E00
0C00
1C00
3E00
3F00
0700
0380
0300
8700
FE00
FC00
ENDCHAR
STARTCHAR five.oldstyle
ENCODING -1
SWIDTH 573 0
DWIDTH 10 0
BBX 8 13 1 -3
BITMAP
7F
7F
60
60
FE
FF
E7
03
03
03
87
FE
7C
ENDCHAR
STARTCHAR four.oldstyle
ENCODING -1
SWIDTH 573 0
DWIDTH 10 0
BBX 10 13 0 -3
BITMAP
0380
0780
0F80
0F80
1B80
3B80
3380
6380
FFC0
7FC0
0380
0380
0380
ENDCHAR
STARTCHAR two.oldstyle
ENCODING -1
SWIDTH 573 0
DWIDTH 10 0
BBX 8 10 1 0
BITMAP
3C
FF
E7
07
06
0E
38
70
FF
FF
ENDCHAR
STARTCHAR seven.oldstyle
ENCODING -1
SWIDTH 573 0
DWIDTH 10 0
BBX 9 13 1 -3
BITMAP
FF80
FF80
0300
0700
0600
0E00
0C00
1C00
1C00
1800
3800
3000
7000
ENDCHAR
STARTCHAR zero.oldstyle
ENCODING -1
SWIDTH 573 0
DWIDTH 10 0
BBX 9 10 1 0
BITMAP
3E00
7F00
E300
C380
C380
C380
C380
E300
7F00
3E00
ENDCHAR
STARTCHAR six.oldstyle
ENCODING -1
SWIDTH 573 0
DWIDTH 10 0
BBX 8 13 1 0
BITMAP
1E
3E
70
E0
DE
FF
E7
C3
C3
C3
E7
7E
3C
ENDCHAR
STARTCHAR nine.oldstyle
ENCODING -1
SWIDTH 573 0
DWIDTH 10 0
BBX 9 13 0 -3
BITMAP
1E00
7F00
7380
6180
E180
7180
7F80
3D80
0180
0380
0380
3F00
3E00
ENDCHAR
STARTCHAR eight.oldstyle
ENCODING -1
SWIDTH 573 0
DWIDTH 10 0
BBX 8 13 1 0
BITMAP
3C
FF
E7
E3
E7
7E
7E
E7
C3
C3
E7
FF
3C
ENDCHAR
STARTCHAR one.oldstyle
ENCODING -1
SWIDTH 573 0
DWIDTH 10 0
BBX 5 10 2 0
BITMAP
08
78
F8
D8
18
18
18
18
18
18
ENDCHAR
STARTCHAR glyph607
ENCODING -1
SWIDTH 281 0
DWIDTH 5 0
BBX 5 14 -1 -4
BITMAP
38
38
38
38
38
38
38
38
38
38
38
38
F0
E0
ENDCHAR
STARTCHAR glyph608
ENCODING -1
SWIDTH 281 0
DWIDTH 5 0
BBX 5 14 -1 -4
BITMAP
38
38
38
38
38
38
38
38
38
38
38
38
F0
E0
ENDCHAR
STARTCHAR glyph609
ENCODING -1
SWIDTH 273 0
DWIDTH 5 0
BBX 3 10 1 0
BITMAP
E0
E0
E0
E0
E0
E0
E0
E0
E0
E0
ENDCHAR
STARTCHAR glyph610
ENCODING -1
SWIDTH 273 0
DWIDTH 5 0
BBX 4 14 0 -4
BITMAP
70
70
70
70
70
70
70
70
70
70
C0
C0
E0
60
ENDCHAR
STARTCHAR glyph611
ENCODING -1
SWIDTH 273 0
DWIDTH 5 0
BBX 3 10 1 0
BITMAP
E0
E0
E0
E0
E0
E0
E0
E0
E0
E0
ENDCHAR
STARTCHAR germandbls.sc
ENCODING -1
SWIDTH 553 0
DWIDTH 10 0
BBX 8 10 1 0
BITMAP
7C
FE
E7
CC
DE
DF
C3
C3
DF
DE
ENDCHAR
STARTCHAR zero.oldstyle.pnum
ENCODING -1
SWIDTH 602 0
DWIDTH 11 0
BBX 9 10 1 0
BITMAP
3E00
7F00
E380
C380
C180
C180
C380
E380
7F00
3E00
ENDCHAR
STARTCHAR seven.pnum
ENCODING -1
SWIDTH 530 0
DWIDTH 10 0
BBX 9 13 0 0
BITMAP
FF80
FF80
0380
0300
0700
0600
0600
0C00
0C00
1C00
1800
3800
3000
ENDCHAR
STARTCHAR b.ss06
ENCODING -1
SWIDTH 570 0
DWIDTH 10 0
BBX 9 14 1 0
BITMAP
C000
C000
C000
C000
DE00
FF00
E700
C300
C380
C380
C300
E700
FF00
DE00
ENDCHAR
STARTCHAR c.ss06
ENCODING -1
SWIDTH 534 0
DWIDTH 10 0
BBX 8 10 1 0
BITMAP
3C
7F
E7
C3
C0
C0
C3
E3
7F
3C
ENDCHAR
STARTCHAR d.ss06
ENCODING -1
SWIDTH 574 0
DWIDTH 10 0
BBX 9 14 0 0
BITMAP
0180
0180
0180
0180
3D80
7F80
7380
6180
E180
E180
6180
7380
7F80
3D80
ENDCHAR
STARTCHAR g.ss06
ENCODING -1
SWIDTH 573 0
DWIDTH 10 0
BBX 9 14 0 -4
BITMAP
3D80
7F80
7380
6180
E180
E180
6180
7380
7F80
3D80
0380
2380
3F00
3E00
ENDCHAR
STARTCHAR o.ss06
ENCODING -1
SWIDTH 576 0
DWIDTH 10 0
BBX 10 10 0 0
BITMAP
1E00
3F00
7380
6180
E1C0
E1C0
61C0
7380
3F80
1E00
ENDCHAR
STARTCHAR p.ss06
ENCODING -1
SWIDTH 572 0
DWIDTH 10 0
BBX 9 14 1 -4
BITMAP
DE00
FF00
E700
C300
C380
C380
C300
E700
FF00
DE00
C000
C000
C000
C000
ENDCHAR
STARTCHAR q.ss06
ENCODING -1
SWIDTH 575 0
DWIDTH 10 0
BBX 9 14 0 -4
BITMAP
3D80
7F80
7380
6180
E180
E180
6180
7380
7F80
3D80
0180
0180
0180
0180
ENDCHAR
STARTCHAR e.ss07
ENCODING -1
SWIDTH 540 0
DWIDTH 10 0
BBX 8 10 1 0
BITMAP
3C
7E
E3
C3
FF
FF
C0
E1
7F
3E
ENDCHAR
STARTCHAR g.ss07
ENCODING -1
SWIDTH 570 0
DWIDTH 10 0
BBX 9 14 0 -4
BITMAP
3D80
7F80
7380
6380
E380
E380
6380
7380
7F80
3F80
0380
4380
3F00
3E00
ENDCHAR
STARTCHAR one.pnum
ENCODING -1
SWIDTH 478 0
DWIDTH 9 0
BBX 5 13 1 0
BITMAP
08
78
F8
98
18
18
18
18
18
18
18
18
18
ENDCHAR
STARTCHAR ampersand.c2sc
ENCODING -1
SWIDTH 650 0
DWIDTH 12 0
BBX 10 10 1 0
BITMAP
3C00
7E00
6600
6E00
3C00
7980
ED80
C780
FF00
7DC0
ENDCHAR
STARTCHAR Lslash.c2sc
ENCODING -1
SWIDTH 476 0
DWIDTH 9 0
BBX 8 10 0 0
BITMAP
70
70
70
7C
7C
F0
F0
70
7F
7F
ENDCHAR
STARTCHAR AE.c2sc
ENCODING -1
SWIDTH 789 0
DWIDTH 14 0
BBX 14 10 0 0
BITMAP
0FF8
0FF8
1F80
1B80
3BF8
33F8
7F80
7F80
E3FC
E3FC
ENDCHAR
STARTCHAR Thorn.c2sc
ENCODING -1
SWIDTH 509 0
DWIDTH 9 0
BBX 8 10 1 0
BITMAP
C0
FC
FE
C7
C7
C7
FE
FC
C0
C0
ENDCHAR
STARTCHAR Oslash.c2sc
ENCODING -1
SWIDTH 593 0
DWIDTH 11 0
BBX 9 10 1 0
BITMAP
3F80
7F00
E380
C580
CD80
D980
D180
E380
7F00
FE00
ENDCHAR
STARTCHAR Hbar.c2sc
ENCODING -1
SWIDTH 648 0
DWIDTH 12 0
BBX 10 10 1 0
BITMAP
E1C0
FFC0
FFC0
E1C0
FFC0
FFC0
E1C0
E1C0
E1C0
E1C0
ENDCHAR
STARTCHAR Eng.c2sc
ENCODING -1
SWIDTH 604 0
DWIDTH 11 0
BBX 9 14 1 -4
BITMAP
E180
E180
F180
F980
D980
CD80
CF80
C780
C780
C380
0180
0380
0780
0F00
ENDCHAR
STARTCHAR Dcroat.c2sc
ENCODING -1
SWIDTH 557 0
DWIDTH 10 0
BBX 10 10 -1 0
BITMAP
3F00
3F80
31C0
30C0
FCC0
FCC0
30C0
31C0
3F80
3F00
ENDCHAR
STARTCHAR Eth.c2sc
ENCODING -1
SWIDTH 557 0
DWIDTH 10 0
BBX 10 10 -1 0
BITMAP
3F00
3F80
31C0
30C0
FCC0
FCC0
30C0
31C0
3F80
3F00
ENDCHAR
STARTCHAR Tbar.c2sc
ENCODING -1
SWIDTH 539 0
DWIDTH 10 0
BBX 9 10 0 0
BITMAP
FF80
FF80
0C00
0C00
3F00
3F00
0C00
0C00
0C00
0C00
ENDCHAR
STARTCHAR Agrave.c2sc
ENCODING -1
SWIDTH 583 0
DWIDTH 11 0
BBX 11 14 0 0
BITMAP
3800
1C00
0C00
0200
0E00
1E00
1E00
1F00
3B00
3380
7F80
7F80
61C0
E0E0
ENDCHAR
STARTCHAR Aacute.c2sc
ENCODING -1
SWIDTH 583 0
DWIDTH 11 0
BBX 11 14 0 0
BITMAP
0780
0600
0E00
0000
0E00
1E00
1E00
1F00
3B00
3380
7F80
7F80
61C0
E0E0
ENDCHAR
STARTCHAR Acircumflex.c2sc
ENCODING -1
SWIDTH 583 0
DWIDTH 11 0
BBX 11 14 0 0
BITMAP
0E00
1F00
3380
0000
0E00
1E00
1E00
1F00
3B00
3380
7F80
7F80
61C0
E0E0
ENDCHAR
STARTCHAR Atilde.c2sc
ENCODING -1
SWIDTH 583 0
DWIDTH 11 0
BBX 11 14 0 0
BITMAP
1980
3F00
3700
0000
0E00
1E00
1E00
1F00
3B00
3380
7F80
7F80
61C0
E0E0
ENDCHAR
STARTCHAR Adieresis.c2sc
ENCODING -1
SWIDTH 583 0
DWIDTH 11 0
BBX 11 13 0 0
BITMAP
3300
3380
0000
0E00
1E00
1E00
1F00
3B00
3380
7F80
7F80
61C0
E0E0
ENDCHAR
STARTCHAR Aring.c2sc
ENCODING -1
SWIDTH 583 0
DWIDTH 11 0
BBX 11 15 0 0
BITMAP
0E00
1200
1200
0E00
0000
0E00
1E00
1E00
1F00
3B00
3380
7F80
7F80
61C0
E0E0
ENDCHAR
STARTCHAR Aringacute.c2sc
ENCODING -1
SWIDTH 583 0
DWIDTH 11 0
BBX 11 16 0 0
BITMAP
0380
0600
0000
0E00
1200
0E00
0E00
1E00
1E00
1F00
3B00
3380
7F80
7F80
61C0
E0E0
ENDCHAR
STARTCHAR Ccedilla.c2sc
ENCODING -1
SWIDTH 563 0
DWIDTH 10 0
BBX 10 14 0 -4
BITMAP
1F00
3F80
7180
61C0
E000
E000
6000
71C0
3F80
1F00
0C00
0600
0700
0E00
ENDCHAR
STARTCHAR Egrave.c2sc
ENCODING -1
SWIDTH 481 0
DWIDTH 9 0
BBX 7 14 1 0
BITMAP
70
30
18
00
FE
FE
C0
C0
FE
FE
C0
C0
FE
FE
ENDCHAR
STARTCHAR Eacute.c2sc
ENCODING -1
SWIDTH 481 0
DWIDTH 9 0
BBX 7 14 1 0
BITMAP
0E
1C
18
00
FE
FE
C0
C0
FE
FE
C0
C0
FE
FE
ENDCHAR
STARTCHAR Ecircumflex.c2sc
ENCODING -1
SWIDTH 481 0
DWIDTH 9 0
BBX 7 14 1 0
BITMAP
18
7C
66
00
FE
FE
C0
C0
FE
FE
C0
C0
FE
FE
ENDCHAR
STARTCHAR Edieresis.c2sc
ENCODING -1
SWIDTH 481 0
DWIDTH 9 0
BBX 7 13 1 0
BITMAP
66
E6
00
FE
FE
C0
C0
FE
FE
C0
C0
FE
FE
ENDCHAR
STARTCHAR Igrave.c2sc
ENCODING -1
SWIDTH 257 0
DWIDTH 5 0
BBX 5 14 -1 0
BITMAP
E0
70
30
08
38
38
38
38
38
38
38
38
38
38
ENDCHAR
STARTCHAR Iacute.c2sc
ENCODING -1
SWIDTH 257 0
DWIDTH 5 0
BBX 5 14 1 0
BITMAP
78
60
E0
00
E0
E0
E0
E0
E0
E0
E0
E0
E0
E0
ENDCHAR
STARTCHAR Icircumflex.c2sc
ENCODING -1
SWIDTH 257 0
DWIDTH 5 0
BBX 7 14 -1 0
BITMAP
38
7C
CE
00
38
38
38
38
38
38
38
38
38
38
ENDCHAR
STARTCHAR Idieresis.c2sc
ENCODING -1
SWIDTH 257 0
DWIDTH 5 0
BBX 7 13 -1 0
BITMAP
CE
CE
00
38
38
38
38
38
38
38
38
38
38
ENDCHAR
STARTCHAR Ntilde.c2sc
ENCODING -1
SWIDTH 604 0
DWIDTH 11 0
BBX 9 14 1 0
BITMAP
3300
7F00
6600
0000
E380
E380
F380
FB80
DB80
CF80
CF80
C780
C780
C380
ENDCHAR
STARTCHAR Ograve.c2sc
ENCODING -1
SWIDTH 593 0
DWIDTH 11 0
BBX 9 14 1 0
BITMAP
7000
3800
1800
0400
3E00
7F00
E380
C180
C180
C180
C180
E380
7F00
3E00
ENDCHAR
STARTCHAR Oacute.c2sc
ENCODING -1
SWIDTH 593 0
DWIDTH 11 0
BBX 9 14 1 0
BITMAP
0F00
0C00
1C00
0000
3E00
7F00
E380
C180
C180
C180
C180
E380
7F00
3E00
ENDCHAR
STARTCHAR Ocircumflex.c2sc
ENCODING -1
SWIDTH 593 0
DWIDTH 11 0
BBX 9 14 1 0
BITMAP
1C00
3E00
6700
0000
3E00
7F00
E380
C180
C180
C180
C180
E380
7F00
3E00
ENDCHAR
STARTCHAR Otilde.c2sc
ENCODING -1
SWIDTH 593 0
DWIDTH 11 0
BBX 9 14 1 0
BITMAP
3300
7E00
6E00
0000
3E00
7F00
E380
C180
C180
C180
C180
E380
7F00
3E00
ENDCHAR
STARTCHAR Odieresis.c2sc
ENCODING -1
SWIDTH 593 0
DWIDTH 11 0
BBX 9 13 1 0
BITMAP
6700
6700
0000
3E00
7F00
E380
C180
C180
C180
C180
E380
7F00
3E00
ENDCHAR
STARTCHAR Ugrave.c2sc
ENCODING -1
SWIDTH 569 0
DWIDTH 10 0
BBX 8 14 1 0
BITMAP
70
30
18
00
C3
C3
C3
C3
C3
C3
C3
E7
FF
3C
ENDCHAR
STARTCHAR Uacute.c2sc
ENCODING -1
SWIDTH 569 0
DWIDTH 10 0
BBX 8 14 1 0
BITMAP
0E
0C
18
00
C3
C3
C3
C3
C3
C3
C3
E7
FF
3C
ENDCHAR
STARTCHAR Ucircumflex.c2sc
ENCODING -1
SWIDTH 569 0
DWIDTH 10 0
BBX 8 14 1 0
BITMAP
18
3C
66
00
C3
C3
C3
C3
C3
C3
C3
E7
FF
3C
ENDCHAR
STARTCHAR Udieresis.c2sc
ENCODING -1
SWIDTH 569 0
DWIDTH 10 0
BBX 8 13 1 0
BITMAP
66
66
00
C3
C3
C3
C3
C3
C3
C3
E7
FF
3C
ENDCHAR
STARTCHAR Yacute.c2sc
ENCODING -1
SWIDTH 537 0
DWIDTH 10 0
BBX 10 14 0 0
BITMAP
0700
0E00
0C00
0000
E1C0
6380
7300
3700
3E00
1E00
0C00
0C00
0C00
0C00
ENDCHAR
STARTCHAR Amacron.c2sc
ENCODING -1
SWIDTH 583 0
DWIDTH 11 0
BBX 11 13 0 0
BITMAP
3F00
3F00
0000
0E00
1E00
1E00
1F00
3B00
3380
7F80
7F80
61C0
E0E0
ENDCHAR
STARTCHAR Abreve.c2sc
ENCODING -1
SWIDTH 583 0
DWIDTH 11 0
BBX 11 14 0 0
BITMAP
3300
1F00
1E00
0000
0E00
1E00
1E00
1F00
3B00
3380
7F80
7F80
61C0
E0E0
ENDCHAR
STARTCHAR Aogonek.c2sc
ENCODING -1
SWIDTH 583 0
DWIDTH 11 0
BBX 11 14 0 -4
BITMAP
0E00
0E00
1F00
1B00
3B80
3180
3F80
7FC0
60C0
E0E0
0080
0180
01C0
00C0
ENDCHAR
STARTCHAR Cacute.c2sc
ENCODING -1
SWIDTH 563 0
DWIDTH 10 0
BBX 10 14 0 0
BITMAP
0780
0600
0C00
0000
1F00
3F80
7180
61C0
E000
E000
6000
71C0
3F80
1F00
ENDCHAR
STARTCHAR Ccircumflex.c2sc
ENCODING -1
SWIDTH 563 0
DWIDTH 10 0
BBX 10 14 0 0
BITMAP
0E00
1F00
3380
0000
1F00
3F80
7180
61C0
E000
E000
6000
71C0
3F80
1F00
ENDCHAR
STARTCHAR Cdotaccent.c2sc
ENCODING -1
SWIDTH 563 0
DWIDTH 10 0
BBX 10 13 0 0
BITMAP
0C00
0E00
0000
1F00
3F80
7180
61C0
E000
E000
6000
71C0
3F80
1F00
ENDCHAR
STARTCHAR Ccaron.c2sc
ENCODING -1
SWIDTH 563 0
DWIDTH 10 0
BBX 10 14 0 0
BITMAP
3380
1E00
0C00
0000
1F00
3F80
7180
61C0
E000
E000
6000
71C0
3F80
1F00
ENDCHAR
STARTCHAR Dcaron.c2sc
ENCODING -1
SWIDTH 557 0
DWIDTH 10 0
BBX 9 14 0 0
BITMAP
E600
7C00
3800
0000
7E00
7F00
6380
6180
6180
6180
6180
6380
7F00
7E00
ENDCHAR
STARTCHAR Emacron.c2sc
ENCODING -1
SWIDTH 481 0
DWIDTH 9 0
BBX 7 13 1 0
BITMAP
7E
7E
00
FE
FE
C0
C0
FE
FE
C0
C0
FE
FE
ENDCHAR
STARTCHAR Ebreve.c2sc
ENCODING -1
SWIDTH 481 0
DWIDTH 9 0
BBX 7 14 1 0
BITMAP
66
7E
3C
00
FE
FE
C0
C0
FE
FE
C0
C0
FE
FE
ENDCHAR
STARTCHAR Edotaccent.c2sc
ENCODING -1
SWIDTH 481 0
DWIDTH 9 0
BBX 7 13 1 0
BITMAP
18
18
00
FE
FE
C0
C0
FE
FE
C0
C0
FE
FE
ENDCHAR
STARTCHAR Eogonek.c2sc
ENCODING -1
SWIDTH 481 0
DWIDTH 9 0
BBX 8 14 1 -4
BITMAP
FF
FF
E0
E0
FE
FE
E0
E0
FF
FF
0C
18
1C
0E
ENDCHAR
STARTCHAR Ecaron.c2sc
ENCODING -1
SWIDTH 481 0
DWIDTH 9 0
BBX 7 14 1 0
BITMAP
E6
3C
18
00
FE
FE
C0
C0
FE
FE
C0
C0
FE
FE
ENDCHAR
STARTCHAR Gcircumflex.c2sc
ENCODING -1
SWIDTH 579 0
DWIDTH 10 0
BBX 10 14 0 0
BITMAP
0E00
1F00
3380
0000
1F00
7F80
7180
6040
E7C0
E7C0
61C0
71C0
7FC0
1F00
ENDCHAR
STARTCHAR Gbreve.c2sc
ENCODING -1
SWIDTH 579 0
DWIDTH 10 0
BBX 10 14 0 0
BITMAP
3300
1F00
0E00
0000
1F00
7F80
7180
6040
E7C0
E7C0
61C0
71C0
7FC0
1F00
ENDCHAR
STARTCHAR Gdotaccent.c2sc
ENCODING -1
SWIDTH 579 0
DWIDTH 10 0
BBX 10 13 0 0
BITMAP
0C00
0E00
0000
1F00
7F80
7180
6040
E7C0
E7C0
61C0
71C0
7FC0
1F00
ENDCHAR
STARTCHAR uni0122.c2sc
ENCODING -1
SWIDTH 579 0
DWIDTH 10 0
BBX 10 15 0 -5
BITMAP
1F00
7F80
7180
6040
E7C0
E7C0
61C0
71C0
7FC0
1F00
0000
0400
0400
0C00
0C00
ENDCHAR
STARTCHAR Hcircumflex.c2sc
ENCODING -1
SWIDTH 604 0
DWIDTH 11 0
BBX 9 14 1 0
BITMAP
1C00
3E00
6700
0000
C380
C380
C380
C380
FF80
FF80
C380
C380
C380
C380
ENDCHAR
STARTCHAR Itilde.c2sc
ENCODING -1
SWIDTH 257 0
DWIDTH 5 0
BBX 7 14 -1 0
BITMAP
66
FC
DC
00
38
38
38
38
38
38
38
38
38
38
ENDCHAR
STARTCHAR Imacron.c2sc
ENCODING -1
SWIDTH 257 0
DWIDTH 5 0
BBX 6 13 -1 0
BITMAP
FC
FC
00
38
38
38
38
38
38
38
38
38
38
ENDCHAR
STARTCHAR Ibreve.c2sc
ENCODING -1
SWIDTH 257 0
DWIDTH 5 0
BBX 6 14 -1 0
BITMAP
CC
7C
38
00
38
38
38
38
38
38
38
38
38
38
ENDCHAR
STARTCHAR Iogonek.c2sc
ENCODING -1
SWIDTH 257 0
DWIDTH 5 0
BBX 4 14 0 -4
BITMAP
70
70
70
70
70
70
70
70
70
70
60
C0
F0
70
ENDCHAR
STARTCHAR Idotaccent.c2sc
ENCODING -1
SWIDTH 257 0
DWIDTH 5 0
BBX 3 13 1 0
BITMAP
C0
E0
00
E0
E0
E0
E0
E0
E0
E0
E0
E0
E0
ENDCHAR
STARTCHAR Jcircumflex.c2sc
ENCODING -1
SWIDTH 482 0
DWIDTH 9 0
BBX 10 14 0 0
BITMAP
0700
0F80
1DC0
0000
0700
0700
0700
0700
0700
0700
0700
E700
7E00
3C00
ENDCHAR
STARTCHAR uni0136.c2sc
ENCODING -1
SWIDTH 548 0
DWIDTH 10 0
BBX 9 15 1 -5
BITMAP
C780
C700
CE00
DC00
F800
FC00
EE00
CE00
C700
C380
0000
1000
1000
3000
3000
ENDCHAR
STARTCHAR Lacute.c2sc
ENCODING -1
SWIDTH 465 0
DWIDTH 8 0
BBX 7 14 1 0
BITMAP
78
60
C0
00
C0
C0
C0
C0
C0
C0
C0
C0
FE
FE
ENDCHAR
STARTCHAR uni013B.c2sc
ENCODING -1
SWIDTH 465 0
DWIDTH 8 0
BBX 7 15 1 -5
BITMAP
C0
C0
C0
C0
C0
C0
C0
C0
FE
FE
00
10
10
30
30
ENDCHAR
STARTCHAR Lcaron.c2sc
ENCODING -1
SWIDTH 465 0
DWIDTH 8 0
BBX 7 10 1 0
BITMAP
CC
CC
C8
D8
C0
C0
C0
C0
FE
FE
ENDCHAR
STARTCHAR Ldot.c2sc
ENCODING -1
SWIDTH 465 0
DWIDTH 8 0
BBX 7 10 1 0
BITMAP
C0
C0
C0
CC
DC
C0
C0
C0
FE
FE
ENDCHAR
STARTCHAR Nacute.c2sc
ENCODING -1
SWIDTH 604 0
DWIDTH 11 0
BBX 9 14 1 0
BITMAP
0700
0E00
1C00
0000
E380
E380
F380
FB80
DB80
CF80
CF80
C780
C780
C380
ENDCHAR
STARTCHAR uni0145.c2sc
ENCODING -1
SWIDTH 604 0
DWIDTH 11 0
BBX 9 15 1 -5
BITMAP
E380
E380
F380
FB80
DB80
CF80
CF80
C780
C780
C380
0000
0800
0800
1800
1800
ENDCHAR
STARTCHAR Ncaron.c2sc
ENCODING -1
SWIDTH 604 0
DWIDTH 11 0
BBX 9 14 1 0
BITMAP
7700
3E00
1C00
0000
E380
E380
F380
FB80
DB80
CF80
CF80
C780
C780
C380
ENDCHAR
STARTCHAR Omacron.c2sc
ENCODING -1
SWIDTH 593 0
DWIDTH 11 0
BBX 9 13 1 0
BITMAP
7E00
7E00
0000
3E00
7F00
E380
C180
C180
C180
C180
E380
7F00
3E00
ENDCHAR
STARTCHAR Obreve.c2sc
ENCODING -1
SWIDTH 593 0
DWIDTH 11 0
BBX 9 14 1 0
BITMAP
6600
3E00
1C00
0000
3E00
7F00
E380
C180
C180
C180
C180
E380
7F00
3E00
ENDCHAR
STARTCHAR Ohungarumlaut.c2sc
ENCODING -1
SWIDTH 593 0
DWIDTH 11 0
BBX 9 14 1 0
BITMAP
1F80
3B00
3600
0000
3E00
7F00
E380
C180
C180
C180
C180
E380
7F00
3E00
ENDCHAR
STARTCHAR Racute.c2sc
ENCODING -1
SWIDTH 557 0
DWIDTH 10 0
BBX 9 14 1 0
BITMAP
0E00
1C00
3800
0000
FE00
FF00
C700
C300
C700
FE00
FC00
CE00
C700
C380
ENDCHAR
STARTCHAR uni0156.c2sc
ENCODING -1
SWIDTH 557 0
DWIDTH 10 0
BBX 9 15 1 -5
BITMAP
FE00
FF00
C700
C300
C700
FE00
FC00
CE00
C700
C300
0080
1800
1000
3000
3000
ENDCHAR
STARTCHAR Rcaron.c2sc
ENCODING -1
SWIDTH 557 0
DWIDTH 10 0
BBX 9 14 1 0
BITMAP
EE00
7C00
3800
0000
FE00
FF00
C700
C300
C700
FE00
FC00
CE00
C700
C380
ENDCHAR
STARTCHAR Sacute.c2sc
ENCODING -1
SWIDTH 535 0
DWIDTH 10 0
BBX 8 14 1 0
BITMAP
0E
1C
18
00
3E
FF
E7
E0
7C
3F
07
C3
FF
3E
ENDCHAR
STARTCHAR Scircumflex.c2sc
ENCODING -1
SWIDTH 535 0
DWIDTH 10 0
BBX 8 14 1 0
BITMAP
18
3C
66
00
3E
FF
E7
E0
7C
3F
07
C3
FF
3E
ENDCHAR
STARTCHAR Scedilla.c2sc
ENCODING -1
SWIDTH 535 0
DWIDTH 10 0
BBX 8 14 1 -4
BITMAP
3E
FF
E7
E0
7C
3F
07
C3
FF
3E
18
0C
0C
18
ENDCHAR
STARTCHAR Scaron.c2sc
ENCODING -1
SWIDTH 535 0
DWIDTH 10 0
BBX 8 14 1 0
BITMAP
66
3C
18
00
3E
FF
E7
E0
7C
3F
07
C3
FF
3E
ENDCHAR
STARTCHAR uni021A.c2sc
ENCODING -1
SWIDTH 539 0
DWIDTH 10 0
BBX 9 15 0 -5
BITMAP
FF80
FF80
0C00
0C00
0C00
0C00
0C00
0C00
0C00
0C00
0000
0C00
0C00
0800
1800
ENDCHAR
STARTCHAR Tcaron.c2sc
ENCODING -1
SWIDTH 539 0
DWIDTH 10 0
BBX 9 14 0 0
BITMAP
7300
1E00
0C00
0000
FF80
FF80
0C00
0C00
0C00
0C00
0C00
0C00
0C00
0C00
ENDCHAR
STARTCHAR uni0162.c2sc
ENCODING -1
SWIDTH 539 0
DWIDTH 10 0
BBX 9 14 0 -4
BITMAP
FF80
FF80
0C00
0C00
0C00
0C00
0C00
0C00
0C00
0C00
0C00
0E00
0600
0C00
ENDCHAR
STARTCHAR Utilde.c2sc
ENCODING -1
SWIDTH 569 0
DWIDTH 10 0
BBX 8 14 1 0
BITMAP
32
7E
4E
00
C3
C3
C3
C3
C3
C3
C3
E7
FF
3C
ENDCHAR
STARTCHAR Umacron.c2sc
ENCODING -1
SWIDTH 569 0
DWIDTH 10 0
BBX 8 13 1 0
BITMAP
7E
7E
00
C3
C3
C3
C3
C3
C3
C3
E7
FF
3C
ENDCHAR
STARTCHAR Ubreve.c2sc
ENCODING -1
SWIDTH 569 0
DWIDTH 10 0
BBX 8 14 1 0
BITMAP
66
7E
3C
00
C3
C3
C3
C3
C3
C3
C3
E7
FF
3C
ENDCHAR
STARTCHAR Uring.c2sc
ENCODING -1
SWIDTH 569 0
DWIDTH 10 0
BBX 8 15 1 0
BITMAP
18
24
24
18
00
C3
C3
C3
C3
C3
C3
C3
E7
FF
3C
ENDCHAR
STARTCHAR Uhungarumlaut.c2sc
ENCODING -1
SWIDTH 569 0
DWIDTH 10 0
BBX 9 14 1 0
BITMAP
1B80
3700
7E00
0000
C300
C300
C300
C300
C300
C300
C300
E700
FF00
3C00
ENDCHAR
STARTCHAR Uogonek.c2sc
ENCODING -1
SWIDTH 569 0
DWIDTH 10 0
BBX 8 13 1 -3
BITMAP
C3
C3
C3
C3
C3
C3
C3
E7
FF
3C
18
1E
0E
ENDCHAR
STARTCHAR Wcircumflex.c2sc
ENCODING -1
SWIDTH 748 0
DWIDTH 13 0
BBX 13 14 0 0
BITMAP
0700
0F80
1CC0
0000
E738
E738
6730
6730
6DB0
7DF0
3DE0
3DE0
38E0
38E0
ENDCHAR
STARTCHAR Ycircumflex.c2sc
ENCODING -1
SWIDTH 537 0
DWIDTH 10 0
BBX 10 14 0 0
BITMAP
1C00
3E00
7300
0000
E1C0
6380
7300
3700
3E00
1E00
0C00
0C00
0C00
0C00
ENDCHAR
STARTCHAR Ydieresis.c2sc
ENCODING -1
SWIDTH 537 0
DWIDTH 10 0
BBX 10 13 0 0
BITMAP
3300
7300
0000
E1C0
6380
7300
3700
3E00
1E00
0C00
0C00
0C00
0C00
ENDCHAR
STARTCHAR Zacute.c2sc
ENCODING -1
SWIDTH 523 0
DWIDTH 9 0
BBX 9 14 0 0
BITMAP
0700
0E00
0C00
0000
FF80
FF80
0700
0600
0E00
1C00
3800
7000
7F80
7F80
ENDCHAR
STARTCHAR Zdotaccent.c2sc
ENCODING -1
SWIDTH 523 0
DWIDTH 9 0
BBX 9 13 0 0
BITMAP
0C00
1C00
0000
FF80
FF80
0700
0600
0E00
1C00
3800
7000
7F80
7F80
ENDCHAR
STARTCHAR Zcaron.c2sc
ENCODING -1
SWIDTH 523 0
DWIDTH 9 0
BBX 9 14 0 0
BITMAP
7300
1E00
0C00
0000
FF80
FF80
0700
0600
0E00
1C00
3800
7000
7F80
7F80
ENDCHAR
STARTCHAR two.pnum
ENCODING -1
SWIDTH 573 0
DWIDTH 10 0
BBX 9 13 0 0
BITMAP
1E00
7F00
7380
6180
8380
0380
0700
0E00
1C00
3800
7000
7F80
7F80
ENDCHAR
STARTCHAR three.pnum
ENCODING -1
SWIDTH 573 0
DWIDTH 10 0
BBX 9 13 0 0
BITMAP
1E00
7F80
6380
0180
0380
1F00
1F00
0380
0180
E180
6380
7F00
3E00
ENDCHAR
STARTCHAR four.pnum
ENCODING -1
SWIDTH 573 0
DWIDTH 10 0
BBX 10 13 0 0
BITMAP
0700
0700
0F00
0F00
1B00
3B00
3300
6300
FFC0
7FC0
0300
0300
0300
ENDCHAR
STARTCHAR five.pnum
ENCODING -1
SWIDTH 573 0
DWIDTH 10 0
BBX 8 13 1 0
BITMAP
7F
7F
60
E0
FE
FF
47
03
03
C3
E7
7E
3C
ENDCHAR
STARTCHAR six.pnum
ENCODING -1
SWIDTH 583 0
DWIDTH 11 0
BBX 9 13 1 0
BITMAP
0E00
3E00
7000
6000
FE00
FF00
E700
C380
C380
E380
E700
7F00
3C00
ENDCHAR
STARTCHAR eight.pnum
ENCODING -1
SWIDTH 593 0
DWIDTH 11 0
BBX 9 13 1 0
BITMAP
3E00
7F00
E700
E300
E700
7E00
7E00
E700
C300
C380
E700
7F00
3E00
ENDCHAR
STARTCHAR nine.pnum
ENCODING -1
SWIDTH 583 0
DWIDTH 11 0
BBX 8 13 1 0
BITMAP
3C
7E
E7
C3
C3
E7
FF
7B
07
07
0E
7C
78
ENDCHAR
STARTCHAR zero.pnum
ENCODING -1
SWIDTH 593 0
DWIDTH 11 0
BBX 8 13 1 0
BITMAP
3C
7E
E7
E3
C3
C3
C3
C3
C3
E3
E7
7E
3C
ENDCHAR
STARTCHAR G_acutecomb.ccmp
ENCODING -1
SWIDTH 681 0
DWIDTH 12 0
BBX 10 17 1 0
BITMAP
0700
0600
0C00
0000
1F00
7F80
71C0
E1C0
E000
C000
C7C0
C7C0
E1C0
E1C0
71C0
7FC0
1F00
ENDCHAR
STARTCHAR g_acutecomb.ccmp
ENCODING -1
SWIDTH 570 0
DWIDTH 10 0
BBX 9 18 0 -4
BITMAP
0700
0E00
0C00
0000
3D80
7F80
7380
6180
E180
E180
6180
7380
7F80
3D80
0380
2380
7F00
3E00
ENDCHAR
STARTCHAR N_gravecomb.ccmp
ENCODING -1
SWIDTH 706 0
DWIDTH 13 0
BBX 11 17 1 0
BITMAP
3800
1C00
0C00
0200
E0E0
F0E0
F0E0
F8E0
FCE0
ECE0
EEE0
E6E0
E7E0
E3E0
E1E0
E1E0
E0E0
ENDCHAR
STARTCHAR n_gravecomb.ccmp
ENCODING -1
SWIDTH 560 0
DWIDTH 10 0
BBX 8 14 1 0
BITMAP
70
30
18
00
DE
FF
E7
C3
C3
C3
C3
C3
C3
C3
ENDCHAR
STARTCHAR A_uni030F.ccmp
ENCODING -1
SWIDTH 672 0
DWIDTH 12 0
BBX 12 16 0 0
BITMAP
7F00
1F80
0000
0600
0F00
0F00
0F80
1F80
1980
39C0
39C0
3FC0
7FE0
7060
6070
E070
ENDCHAR
STARTCHAR a_uni030F.ccmp
ENCODING -1
SWIDTH 536 0
DWIDTH 10 0
BBX 9 13 0 0
BITMAP
FC00
3600
0000
1E00
7F00
6380
0380
3F80
7F80
6380
6380
7F80
3F80
ENDCHAR
STARTCHAR E_uni030F.ccmp
ENCODING -1
SWIDTH 562 0
DWIDTH 10 0
BBX 9 16 1 0
BITMAP
FC00
7600
0000
FF80
FF80
E000
E000
E000
FF00
FF00
E000
E000
E000
E000
FF80
FF80
ENDCHAR
STARTCHAR e_uni030F.ccmp
ENCODING -1
SWIDTH 540 0
DWIDTH 10 0
BBX 9 13 0 0
BITMAP
FC00
3600
0000
1E00
3F00
7380
6180
7F80
7F80
6000
7100
3F80
1F00
ENDCHAR
STARTCHAR I_uni030F.ccmp
ENCODING -1
SWIDTH 291 0
DWIDTH 5 0
BBX 7 16 -2 0
BITMAP
FC
76
00
1C
1C
1C
1C
1C
1C
1C
1C
1C
1C
1C
1C
1C
ENDCHAR
STARTCHAR dotlessi_uni030F.ccmp
ENCODING -1
SWIDTH 273 0
DWIDTH 5 0
BBX 8 13 -3 0
BITMAP
FE
3F
00
0E
0E
0E
0E
0E
0E
0E
0E
0E
0E
ENDCHAR
STARTCHAR O_uni030F.ccmp
ENCODING -1
SWIDTH 690 0
DWIDTH 12 0
BBX 10 16 1 0
BITMAP
EE00
3F00
0000
1E00
7F80
E1C0
E1C0
C0C0
C0C0
C0C0
C0C0
C0C0
E1C0
E1C0
7F80
1E00
ENDCHAR
STARTCHAR o_uni030F.ccmp
ENCODING -1
SWIDTH 565 0
DWIDTH 10 0
BBX 10 13 0 0
BITMAP
FE00
3F00
0000
1E00
3F00
7380
6180
E180
E1C0
6180
7380
3F00
1E00
ENDCHAR
STARTCHAR R_uni030F.ccmp
ENCODING -1
SWIDTH 638 0
DWIDTH 11 0
BBX 11 16 0 0
BITMAP
EE00
3F00
0000
7F00
7FC0
71C0
70C0
70C0
71C0
7F80
7F00
7380
7380
71C0
71C0
70E0
ENDCHAR
STARTCHAR r_uni030F.ccmp
ENCODING -1
SWIDTH 364 0
DWIDTH 7 0
BBX 8 13 -1 0
BITMAP
FC
76
00
3F
3F
38
38
38
38
38
38
38
38
ENDCHAR
STARTCHAR U_uni030F.ccmp
ENCODING -1
SWIDTH 658 0
DWIDTH 12 0
BBX 10 16 1 0
BITMAP
FC00
3E00
0000
E1C0
E1C0
E1C0
E1C0
E1C0
E1C0
E1C0
E1C0
E1C0
E1C0
E1C0
7F80
3F00
ENDCHAR
STARTCHAR u_uni030F.ccmp
ENCODING -1
SWIDTH 559 0
DWIDTH 10 0
BBX 9 13 0 0
BITMAP
FC00
3F00
0000
6180
6180
6180
6180
6180
6180
6180
7380
7F80
3D80
ENDCHAR
STARTCHAR Upsilon1_acutecomb.ccmp
ENCODING -1
SWIDTH 639 0
DWIDTH 12 0
BBX 15 14 -3 0
BITMAP
E000
CE0E
8F1E
0718
0338
03B0
01B0
01F0
00E0
00E0
00E0
00E0
00E0
00E0
ENDCHAR
STARTCHAR B_dotbelowcomb.ccmp
ENCODING -1
SWIDTH 638 0
DWIDTH 11 0
BBX 9 16 1 -3
BITMAP
FE00
FF80
E380
E380
E380
FF00
FF00
E380
E180
E180
E380
FF80
FE00
0000
1C00
1C00
ENDCHAR
STARTCHAR b_dotbelowcomb.ccmp
ENCODING -1
SWIDTH 562 0
DWIDTH 10 0
BBX 8 17 1 -3
BITMAP
C0
C0
C0
C0
DE
FF
E7
C3
C3
C3
C3
E7
FF
DE
00
0C
1C
ENDCHAR
STARTCHAR D_dotbelowcomb.ccmp
ENCODING -1
SWIDTH 649 0
DWIDTH 12 0
BBX 10 16 1 -3
BITMAP
FE00
FF00
E380
E180
E1C0
E1C0
E1C0
E1C0
E1C0
E180
E380
FF00
FE00
0000
3800
3800
ENDCHAR
STARTCHAR d_dotbelowcomb.ccmp
ENCODING -1
SWIDTH 563 0
DWIDTH 10 0
BBX 9 17 0 -3
BITMAP
0180
0180
0180
0180
3D80
7F80
7380
6180
6180
E180
6180
7380
7F80
3D80
0000
0C00
0E00
ENDCHAR
STARTCHAR D_uniF6C3.ccmp
ENCODING -1
SWIDTH 649 0
DWIDTH 12 0
BBX 10 18 1 -5
BITMAP
FE00
FF00
E380
E180
E1C0
E1C0
E1C0
E1C0
E1C0
E180
E380
FF00
FE00
0000
1800
1800
3000
3000
ENDCHAR
STARTCHAR d_uniF6C3.ccmp
ENCODING -1
SWIDTH 563 0
DWIDTH 10 0
BBX 9 19 0 -5
BITMAP
0180
0180
0180
0180
3D80
7F80
7380
6180
6180
E180
6180
7380
7F80
3D80
0000
0C00
0C00
0C00
0800
ENDCHAR
STARTCHAR H_dotbelowcomb.ccmp
ENCODING -1
SWIDTH 706 0
DWIDTH 13 0
BBX 11 16 1 -3
BITMAP
E0E0
E0E0
E0E0
E0E0
E0E0
FFE0
FFE0
E0E0
E0E0
E0E0
E0E0
E0E0
E0E0
0000
0E00
0E00
ENDCHAR
STARTCHAR h_dotbelowcomb.ccmp
ENCODING -1
SWIDTH 559 0
DWIDTH 10 0
BBX 8 17 1 -3
BITMAP
C0
C0
C0
C0
DE
FF
E7
C3
C3
C3
C3
C3
C3
C3
00
18
1C
ENDCHAR
STARTCHAR K_acutecomb.ccmp
ENCODING -1
SWIDTH 634 0
DWIDTH 11 0
BBX 10 17 1 0
BITMAP
0F00
0C00
1800
0000
E1C0
E380
E700
EE00
EE00
FC00
FC00
FE00
EE00
E700
E380
E380
E1C0
ENDCHAR
STARTCHAR k_acutecomb.ccmp
ENCODING -1
SWIDTH 534 0
DWIDTH 10 0
BBX 9 18 1 0
BITMAP
0700
0E00
1C00
0000
E000
E000
E000
E000
E780
EE00
FC00
FC00
F800
FC00
EE00
EE00
E700
E380
ENDCHAR
STARTCHAR K_dotbelowcomb.ccmp
ENCODING -1
SWIDTH 634 0
DWIDTH 11 0
BBX 10 15 1 -2
BITMAP
E1C0
E380
E700
EE00
EE00
FC00
FC00
FE00
EE00
E700
E380
E380
E1C0
1C00
1C00
ENDCHAR
STARTCHAR k_dotbelowcomb.ccmp
ENCODING -1
SWIDTH 534 0
DWIDTH 10 0
BBX 9 17 1 -3
BITMAP
E000
E000
E000
E000
E780
EE00
FC00
FC00
F800
FC00
EE00
EE00
E700
E300
0080
1800
1800
ENDCHAR
STARTCHAR L_dotbelowcomb.ccmp
ENCODING -1
SWIDTH 541 0
DWIDTH 10 0
BBX 8 16 1 -3
BITMAP
E0
E0
E0
E0
E0
E0
E0
E0
E0
E0
E0
FF
FF
00
1C
1C
ENDCHAR
STARTCHAR l_dotbelowcomb.ccmp
ENCODING -1
SWIDTH 265 0
DWIDTH 5 0
BBX 3 17 1 -3
BITMAP
E0
E0
E0
E0
E0
E0
E0
E0
E0
E0
E0
E0
E0
E0
00
E0
E0
ENDCHAR
STARTCHAR M_dotbelowcomb.ccmp
ENCODING -1
SWIDTH 875 0
DWIDTH 16 0
BBX 14 16 1 -3
BITMAP
F03C
F03C
F07C
F87C
F87C
FCDC
ECDC
ECDC
EF9C
E79C
E79C
E71C
E31C
0000
0300
0700
ENDCHAR
STARTCHAR m_dotbelowcomb.ccmp
ENCODING -1
SWIDTH 865 0
DWIDTH 16 0
BBX 14 13 1 -3
BITMAP
EE78
FFF8
E79C
E31C
E31C
E31C
E31C
E31C
E31C
E31C
0000
0300
0700
ENDCHAR
STARTCHAR N_dotbelowcomb.ccmp
ENCODING -1
SWIDTH 706 0
DWIDTH 13 0
BBX 11 16 1 -3
BITMAP
E0E0
F0E0
F0E0
F8E0
FCE0
ECE0
EEE0
E6E0
E7E0
E3E0
E1E0
E1E0
E0E0
0000
0E00
0E00
ENDCHAR
STARTCHAR n_dotbelowcomb.ccmp
ENCODING -1
SWIDTH 560 0
DWIDTH 10 0
BBX 8 13 1 -3
BITMAP
DE
FF
E7
C3
C3
C3
C3
C3
C3
C3
00
18
18
ENDCHAR
STARTCHAR O_tildecomb_acutecomb.ccmp
ENCODING -1
SWIDTH 690 0
DWIDTH 12 0
BBX 10 19 1 0
BITMAP
0600
0C00
0000
1900
1600
0000
1E00
7F80
E1C0
E1C0
C0C0
C0C0
C0C0
C0C0
C0C0
E1C0
E1C0
7F80
1E00
ENDCHAR
STARTCHAR P_acutecomb.ccmp
ENCODING -1
SWIDTH 645 0
DWIDTH 12 0
BBX 10 17 1 0
BITMAP
0F00
0C00
1C00
0000
FF00
FF80
E1C0
E1C0
E1C0
E1C0
FF80
FF00
E000
E000
E000
E000
E000
ENDCHAR
STARTCHAR p_acutecomb.ccmp
ENCODING -1
SWIDTH 562 0
DWIDTH 10 0
BBX 8 18 1 -4
BITMAP
07
0E
0C
00
DE
FF
E7
C3
C3
C3
C3
E7
FF
DE
C0
C0
C0
C0
ENDCHAR
STARTCHAR R_dotbelowcomb.ccmp
ENCODING -1
SWIDTH 638 0
DWIDTH 11 0
BBX 10 16 1 -3
BITMAP
FE00
FF80
E380
E180
E180
E380
FF00
FE00
E700
E700
E380
E380
E1C0
0000
1C00
1C00
ENDCHAR
STARTCHAR r_dotbelowcomb.ccmp
ENCODING -1
SWIDTH 364 0
DWIDTH 7 0
BBX 6 13 1 -3
BITMAP
FC
FC
E0
E0
E0
E0
E0
E0
E0
E0
00
E0
E0
ENDCHAR
STARTCHAR S_dotbelowcomb.ccmp
ENCODING -1
SWIDTH 614 0
DWIDTH 11 0
BBX 9 16 1 -3
BITMAP
3E00
7F80
E380
E180
E000
7800
3F00
0F80
0380
C180
E380
7F80
3E00
0000
1C00
1C00
ENDCHAR
STARTCHAR s_dotbelowcomb.ccmp
ENCODING -1
SWIDTH 514 0
DWIDTH 9 0
BBX 8 13 0 -3
BITMAP
3E
7F
63
60
7E
1F
03
E3
7F
3E
00
1C
1C
ENDCHAR
STARTCHAR T_dotbelowcomb.ccmp
ENCODING -1
SWIDTH 618 0
DWIDTH 11 0
BBX 11 16 0 -3
BITMAP
FFE0
FFE0
0E00
0E00
0E00
0E00
0E00
0E00
0E00
0E00
0E00
0E00
0E00
0000
0E00
0E00
ENDCHAR
STARTCHAR t_dotbelowcomb.ccmp
ENCODING -1
SWIDTH 337 0
DWIDTH 6 0
BBX 6 15 0 -3
BITMAP
70
70
FC
FC
70
70
70
70
70
70
3C
3C
00
18
38
ENDCHAR
STARTCHAR U_tildecomb_acutecomb.ccmp
ENCODING -1
SWIDTH 658 0
DWIDTH 12 0
BBX 10 19 1 0
BITMAP
0600
0C00
0000
1A00
2600
0000
E1C0
E1C0
E1C0
E1C0
E1C0
E1C0
E1C0
E1C0
E1C0
E1C0
E1C0
7F80
3F00
ENDCHAR
STARTCHAR V_tildecomb.ccmp
ENCODING -1
SWIDTH 653 0
DWIDTH 12 0
BBX 12 17 0 0
BITMAP
1C80
1F80
1300
0000
E070
70E0
70E0
70E0
30C0
39C0
39C0
1980
1F80
1F80
0F00
0F00
0F00
ENDCHAR
STARTCHAR v_tildecomb.ccmp
ENCODING -1
SWIDTH 505 0
DWIDTH 9 0
BBX 9 14 0 0
BITMAP
3300
3F00
6600
0000
E380
6300
6300
7700
3600
3600
3600
3E00
1C00
1C00
ENDCHAR
STARTCHAR V_dotbelowcomb.ccmp
ENCODING -1
SWIDTH 653 0
DWIDTH 12 0
BBX 12 16 0 -3
BITMAP
E070
70E0
70E0
70E0
30C0
39C0
39C0
1980
1F80
1F80
0F00
0F00
0F00
0000
0600
0E00
ENDCHAR
STARTCHAR v_dotbelowcomb.ccmp
ENCODING -1
SWIDTH 505 0
DWIDTH 9 0
BBX 9 13 0 -3
BITMAP
E380
6300
6300
7700
3600
3600
3600
3E00
1C00
1C00
0000
1C00
1C00
ENDCHAR
STARTCHAR W_dotbelowcomb.ccmp
ENCODING -1
SWIDTH 874 0
DWIDTH 16 0
BBX 16 16 0 -3
BITMAP
E187
6186
73CE
73CE
73CE
33CC
366C
366C
3E7C
1E7C
1E78
1C38
1C38
0000
0180
0380
ENDCHAR
STARTCHAR w_dotbelowcomb.ccmp
ENCODING -1
SWIDTH 734 0
DWIDTH 13 0
BBX 13 13 0 -3
BITMAP
E738
6730
6730
6730
6DB0
7DF0
3DE0
38E0
38E0
38E0
0000
0700
0700
ENDCHAR
STARTCHAR Z_dotbelowcomb.ccmp
ENCODING -1
SWIDTH 605 0
DWIDTH 11 0
BBX 9 16 1 -3
BITMAP
FF80
FF80
0380
0700
0E00
0E00
1C00
3800
3800
7000
E000
FF80
FF80
0000
1C00
1C00
ENDCHAR
STARTCHAR z_dotbelowcomb.ccmp
ENCODING -1
SWIDTH 508 0
DWIDTH 9 0
BBX 8 13 1 -3
BITMAP
FE
FE
0E
1C
38
38
70
E0
FF
FF
00
38
38
ENDCHAR
STARTCHAR Alphatonos.c2sc
ENCODING -1
SWIDTH 583 0
DWIDTH 11 0
BBX 11 11 0 0
BITMAP
E000
CE00
9E00
1E00
1F00
3B00
3380
7F80
7F80
61C0
E0E0
ENDCHAR
STARTCHAR Epsilontonos.c2sc
ENCODING -1
SWIDTH 511 0
DWIDTH 9 0
BBX 11 11 -2 0
BITMAP
E000
DFE0
9FE0
1C00
1C00
1FC0
1FC0
1C00
1C00
1FE0
1FE0
ENDCHAR
STARTCHAR Etatonos.c2sc
ENCODING -1
SWIDTH 634 0
DWIDTH 11 0
BBX 13 11 -2 0
BITMAP
E000
DC38
9C38
1C38
1C38
1FF8
1FF8
1C38
1C38
1C38
1C38
ENDCHAR
STARTCHAR Iotatonos.c2sc
ENCODING -1
SWIDTH 286 0
DWIDTH 5 0
BBX 6 11 -2 0
BITMAP
E0
CC
8C
0C
0C
0C
0C
0C
0C
0C
0C
ENDCHAR
STARTCHAR Omicrontonos.c2sc
ENCODING -1
SWIDTH 598 0
DWIDTH 11 0
BBX 12 11 -2 0
BITMAP
6000
67C0
CFE0
1C70
1C30
1830
1830
1C30
1C70
0FE0
07C0
ENDCHAR
STARTCHAR Upsilontonos.c2sc
ENCODING -1
SWIDTH 566 0
DWIDTH 10 0
BBX 13 11 -3 0
BITMAP
6000
CE38
CE30
0670
0760
03E0
01C0
01C0
01C0
01C0
01C0
ENDCHAR
STARTCHAR Omegatonos.c2sc
ENCODING -1
SWIDTH 606 0
DWIDTH 11 0
BBX 11 11 -1 0
BITMAP
E000
CF80
9FC0
38E0
3060
3060
3060
3860
18C0
3DE0
3DE0
ENDCHAR
STARTCHAR Alpha.c2sc
ENCODING -1
SWIDTH 583 0
DWIDTH 11 0
BBX 11 10 0 0
BITMAP
0E00
1E00
1E00
1F00
3B00
3380
7F80
7F80
61C0
E0E0
ENDCHAR
STARTCHAR Beta.c2sc
ENCODING -1
SWIDTH 553 0
DWIDTH 10 0
BBX 8 10 1 0
BITMAP
FE
FF
C7
C7
FE
FF
C3
C3
FF
FE
ENDCHAR
STARTCHAR Epsilon.c2sc
ENCODING -1
SWIDTH 481 0
DWIDTH 9 0
BBX 7 10 1 0
BITMAP
FE
FE
C0
C0
FE
FE
C0
C0
FE
FE
ENDCHAR
STARTCHAR Zeta.c2sc
ENCODING -1
SWIDTH 523 0
DWIDTH 9 0
BBX 9 10 0 0
BITMAP
FF80
FF80
0700
0600
0E00
1C00
3800
7000
7F80
7F80
ENDCHAR
STARTCHAR Eta.c2sc
ENCODING -1
SWIDTH 604 0
DWIDTH 11 0
BBX 9 10 1 0
BITMAP
C380
C380
C380
C380
FF80
FF80
C380
C380
C380
C380
ENDCHAR
STARTCHAR Iota.c2sc
ENCODING -1
SWIDTH 257 0
DWIDTH 5 0
BBX 3 10 1 0
BITMAP
E0
E0
E0
E0
E0
E0
E0
E0
E0
E0
ENDCHAR
STARTCHAR Kappa.c2sc
ENCODING -1
SWIDTH 548 0
DWIDTH 10 0
BBX 9 10 1 0
BITMAP
C780
C700
CE00
DC00
F800
FC00
EE00
CE00
C700
C380
ENDCHAR
STARTCHAR Mu.c2sc
ENCODING -1
SWIDTH 753 0
DWIDTH 14 0
BBX 12 10 1 0
BITMAP
F0F0
F0F0
F0F0
D9B0
D9B0
FFF0
EF70
EF70
E670
E670
ENDCHAR
STARTCHAR Nu.c2sc
ENCODING -1
SWIDTH 604 0
DWIDTH 11 0
BBX 9 10 1 0
BITMAP
E380
E380
F380
FB80
DB80
CF80
CF80
C780
C780
C380
ENDCHAR
STARTCHAR Omicron.c2sc
ENCODING -1
SWIDTH 593 0
DWIDTH 11 0
BBX 9 10 1 0
BITMAP
3E00
7F00
E380
C180
C180
C180
C180
E380
7F00
3E00
ENDCHAR
STARTCHAR Rho.c2sc
ENCODING -1
SWIDTH 558 0
DWIDTH 10 0
BBX 8 10 1 0
BITMAP
FE
FF
C3
C3
C3
FF
FE
C0
C0
C0
ENDCHAR
STARTCHAR Tau.c2sc
ENCODING -1
SWIDTH 539 0
DWIDTH 10 0
BBX 9 10 0 0
BITMAP
FF80
FF80
0C00
0C00
0C00
0C00
0C00
0C00
0C00
0C00
ENDCHAR
STARTCHAR Upsilon.c2sc
ENCODING -1
SWIDTH 537 0
DWIDTH 10 0
BBX 10 10 0 0
BITMAP
E1C0
6380
7300
3700
3E00
1E00
0C00
0C00
0C00
0C00
ENDCHAR
STARTCHAR Chi.c2sc
ENCODING -1
SWIDTH 548 0
DWIDTH 10 0
BBX 10 10 0 0
BITMAP
E3C0
7380
3700
3E00
1E00
1E00
3E00
3700
7380
E1C0
ENDCHAR
STARTCHAR Iotadieresis.c2sc
ENCODING -1
SWIDTH 257 0
DWIDTH 5 0
BBX 7 13 -1 0
BITMAP
CE
CE
00
38
38
38
38
38
38
38
38
38
38
ENDCHAR
STARTCHAR Upsilondieresis.c2sc
ENCODING -1
SWIDTH 537 0
DWIDTH 10 0
BBX 10 13 0 0
BITMAP
3300
7300
0000
E1C0
6380
7300
3700
3E00
1E00
0C00
0C00
0C00
0C00
ENDCHAR
STARTCHAR uni0401.c2sc
ENCODING -1
SWIDTH 481 0
DWIDTH 9 0
BBX 7 13 1 0
BITMAP
66
E6
00
FE
FE
C0
C0
FE
FE
C0
C0
FE
FE
ENDCHAR
STARTCHAR uni0403.c2sc
ENCODING -1
SWIDTH 471 0
DWIDTH 8 0
BBX 7 14 1 0
BITMAP
0E
1C
38
00
FE
FE
C0
C0
C0
C0
C0
C0
C0
C0
ENDCHAR
STARTCHAR uni0405.c2sc
ENCODING -1
SWIDTH 535 0
DWIDTH 10 0
BBX 8 10 1 0
BITMAP
3E
FF
E7
E0
7C
3F
07
C3
FF
3E
ENDCHAR
STARTCHAR uni0406.c2sc
ENCODING -1
SWIDTH 257 0
DWIDTH 5 0
BBX 3 10 1 0
BITMAP
E0
E0
E0
E0
E0
E0
E0
E0
E0
E0
ENDCHAR
STARTCHAR uni0407.c2sc
ENCODING -1
SWIDTH 257 0
DWIDTH 5 0
BBX 7 13 -1 0
BITMAP
CE
CE
00
38
38
38
38
38
38
38
38
38
38
ENDCHAR
STARTCHAR uni0408.c2sc
ENCODING -1
SWIDTH 482 0
DWIDTH 9 0
BBX 8 10 0 0
BITMAP
07
07
07
07
07
07
07
E7
7E
3C
ENDCHAR
STARTCHAR uni040C.c2sc
ENCODING -1
SWIDTH 548 0
DWIDTH 10 0
BBX 9 14 1 0
BITMAP
0E00
1C00
3800
0000
C780
C700
CE00
DC00
F800
FC00
EE00
CE00
C700
C380
ENDCHAR
STARTCHAR uni040E.c2sc
ENCODING -1
SWIDTH 553 0
DWIDTH 10 0
BBX 10 14 0 0
BITMAP
3300
1F00
1E00
0000
E1C0
7180
3380
3B00
1F00
1E00
0E00
0C00
3C00
3800
ENDCHAR
STARTCHAR uni0410.c2sc
ENCODING -1
SWIDTH 583 0
DWIDTH 11 0
BBX 11 10 0 0
BITMAP
0E00
1E00
1E00
1F00
3B00
3380
7F80
7F80
61C0
E0E0
ENDCHAR
STARTCHAR uni0412.c2sc
ENCODING -1
SWIDTH 553 0
DWIDTH 10 0
BBX 8 10 1 0
BITMAP
FE
FF
C7
C7
FE
FF
C3
C3
FF
FE
ENDCHAR
STARTCHAR uni0413.c2sc
ENCODING -1
SWIDTH 471 0
DWIDTH 8 0
BBX 7 10 1 0
BITMAP
FE
FE
C0
C0
C0
C0
C0
C0
C0
C0
ENDCHAR
STARTCHAR uni0415.c2sc
ENCODING -1
SWIDTH 481 0
DWIDTH 9 0
BBX 7 10 1 0
BITMAP
FE
FE
C0
C0
FE
FE
C0
C0
FE
FE
ENDCHAR
STARTCHAR uni0419.c2sc
ENCODING -1
SWIDTH 606 0
DWIDTH 11 0
BBX 9 14 1 0
BITMAP
6300
3E00
1C00
0000
C380
C380
C780
CF80
CD80
D980
F980
F180
E180
E180
ENDCHAR
STARTCHAR uni041C.c2sc
ENCODING -1
SWIDTH 753 0
DWIDTH 14 0
BBX 12 10 1 0
BITMAP
F0F0
F0F0
F0F0
D9B0
D9B0
FFF0
EF70
EF70
E670
E670
ENDCHAR
STARTCHAR uni041D.c2sc
ENCODING -1
SWIDTH 604 0
DWIDTH 11 0
BBX 9 10 1 0
BITMAP
C380
C380
C380
C380
FF80
FF80
C380
C380
C380
C380
ENDCHAR
STARTCHAR uni041E.c2sc
ENCODING -1
SWIDTH 593 0
DWIDTH 11 0
BBX 9 10 1 0
BITMAP
3E00
7F00
E380
C180
C180
C180
C180
E380
7F00
3E00
ENDCHAR
STARTCHAR uni041F.c2sc
ENCODING -1
SWIDTH 609 0
DWIDTH 11 0
BBX 9 10 1 0
BITMAP
FF80
FF80
C180
C180
C180
C180
C180
C180
C180
C180
ENDCHAR
STARTCHAR uni0420.c2sc
ENCODING -1
SWIDTH 558 0
DWIDTH 10 0
BBX 8 10 1 0
BITMAP
FE
FF
C3
C3
C3
FF
FE
C0
C0
C0
ENDCHAR
STARTCHAR uni0421.c2sc
ENCODING -1
SWIDTH 563 0
DWIDTH 10 0
BBX 10 10 0 0
BITMAP
1F00
3F80
7180
61C0
E000
E000
6000
71C0
3F80
1F00
ENDCHAR
STARTCHAR uni0422.c2sc
ENCODING -1
SWIDTH 539 0
DWIDTH 10 0
BBX 9 10 0 0
BITMAP
FF80
FF80
0C00
0C00
0C00
0C00
0C00
0C00
0C00
0C00
ENDCHAR
STARTCHAR uni0425.c2sc
ENCODING -1
SWIDTH 548 0
DWIDTH 10 0
BBX 10 10 0 0
BITMAP
E3C0
7380
3700
3E00
1E00
1E00
3E00
3700
7380
E1C0
ENDCHAR
STARTCHAR uni0498.c2sc
ENCODING -1
SWIDTH 536 0
DWIDTH 10 0
BBX 8 14 1 -4
BITMAP
7C
FE
C7
07
3E
3E
07
C7
FF
7E
38
38
38
38
ENDCHAR
STARTCHAR uni04A2.c2sc
ENCODING -1
SWIDTH 604 0
DWIDTH 11 0
BBX 11 13 1 -3
BITMAP
C380
C380
C380
C380
FF80
FF80
C380
C380
C3E0
C3E0
00E0
00E0
00E0
ENDCHAR
STARTCHAR uni04AA.c2sc
ENCODING -1
SWIDTH 563 0
DWIDTH 10 0
BBX 10 14 0 -4
BITMAP
1F00
3F80
7180
61C0
E000
E000
6000
71C0
7F80
1F00
0C00
0C00
0C00
0C00
ENDCHAR
STARTCHAR uni04AE.c2sc
ENCODING -1
SWIDTH 537 0
DWIDTH 10 0
BBX 10 10 0 0
BITMAP
E1C0
6380
7300
3700
3E00
1E00
0C00
0C00
0C00
0C00
ENDCHAR
STARTCHAR uni04BE.c2sc
ENCODING -1
SWIDTH 773 0
DWIDTH 14 0
BBX 13 14 0 -4
BITMAP
03E0
07F0
CE38
EC18
7FF8
3FF8
0C00
0E00
07F0
03F0
00C0
00C0
00C0
00C0
ENDCHAR
STARTCHAR uni04E2.c2sc
ENCODING -1
SWIDTH 606 0
DWIDTH 11 0
BBX 9 13 1 0
BITMAP
7E00
7E00
0000
C380
C380
C780
CF80
CD80
D980
F980
F180
E180
E180
ENDCHAR
STARTCHAR uni04EE.c2sc
ENCODING -1
SWIDTH 553 0
DWIDTH 10 0
BBX 10 13 0 0
BITMAP
3F00
3F00
0000
E1C0
7180
3380
3B00
1F00
1E00
0E00
0C00
3C00
3800
ENDCHAR
STARTCHAR uni0424.c2sc
ENCODING -1
SWIDTH 729 0
DWIDTH 13 0
BBX 12 10 1 0
BITMAP
0E00
3F80
FFE0
EEE0
CE60
CE70
EEE0
FFE0
3F80
0E00
ENDCHAR
STARTCHAR IJ.c2sc
ENCODING -1
SWIDTH 739 0
DWIDTH 13 0
BBX 12 10 1 0
BITMAP
E070
E070
E070
E070
E070
E070
E070
EE60
E7E0
E3C0
ENDCHAR
STARTCHAR AEacute.c2sc
ENCODING -1
SWIDTH 789 0
DWIDTH 14 0
BBX 14 14 0 0
BITMAP
00E0
01C0
0380
0000
0FF8
0FF8
1F80
1B80
3BF8
33F8
7F80
7F80
E3FC
E3FC
ENDCHAR
STARTCHAR Oslashacute.c2sc
ENCODING -1
SWIDTH 593 0
DWIDTH 11 0
BBX 9 14 1 0
BITMAP
0F00
0C00
1C00
0000
3F80
7F00
E380
C580
CD80
D980
D180
E380
7F00
FE00
ENDCHAR
STARTCHAR uni0218.c2sc
ENCODING -1
SWIDTH 535 0
DWIDTH 10 0
BBX 8 15 1 -5
BITMAP
3E
FF
E7
E0
7C
3F
07
C3
FF
3E
00
18
18
18
30
ENDCHAR
STARTCHAR Wgrave.c2sc
ENCODING -1
SWIDTH 748 0
DWIDTH 13 0
BBX 13 14 0 0
BITMAP
1C00
0600
0700
0000
E738
E738
6730
6730
6DB0
7DF0
3DE0
3DE0
38E0
38E0
ENDCHAR
STARTCHAR Wacute.c2sc
ENCODING -1
SWIDTH 748 0
DWIDTH 13 0
BBX 13 14 0 0
BITMAP
01C0
0380
0700
0000
E738
E738
6730
6730
6DB0
7DF0
3DE0
3DE0
38E0
38E0
ENDCHAR
STARTCHAR Wdieresis.c2sc
ENCODING -1
SWIDTH 748 0
DWIDTH 13 0
BBX 13 13 0 0
BITMAP
1CC0
1CC0
0000
E738
E738
6730
6730
6DB0
7DF0
3DE0
3DE0
38E0
38E0
ENDCHAR
STARTCHAR Ygrave.c2sc
ENCODING -1
SWIDTH 537 0
DWIDTH 10 0
BBX 10 14 0 0
BITMAP
7800
1800
0C00
0000
E1C0
6380
7300
3700
3E00
1E00
0C00
0C00
0C00
0C00
ENDCHAR
STARTCHAR Aogonek.locl
ENCODING -1
SWIDTH 672 0
DWIDTH 12 0
BBX 12 17 0 -4
BITMAP
0600
0F00
0F00
0F80
1F80
1980
39C0
39C0
3FC0
7FE0
7060
6070
E470
0E00
0C00
0E00
0E00
ENDCHAR
STARTCHAR aogonek.locl
ENCODING -1
SWIDTH 536 0
DWIDTH 10 0
BBX 8 14 1 -4
BITMAP
3C
FE
C7
07
7F
FF
C7
C7
FF
7F
60
60
70
70
ENDCHAR
STARTCHAR Eogonek.locl
ENCODING -1
SWIDTH 562 0
DWIDTH 10 0
BBX 9 17 1 -4
BITMAP
FF80
FF80
E000
E000
E000
FF00
FF00
E000
E000
E000
E000
FF80
FF80
1800
3000
3800
1C00
ENDCHAR
STARTCHAR eogonek.locl
ENCODING -1
SWIDTH 540 0
DWIDTH 10 0
BBX 8 14 1 -4
BITMAP
3C
7E
E7
C3
FF
FF
C0
E2
7F
3E
30
20
38
38
ENDCHAR
STARTCHAR Aogonek.c2sc.locl
ENCODING -1
SWIDTH 583 0
DWIDTH 11 0
BBX 11 14 0 -4
BITMAP
0E00
1E00
1E00
1F00
3B00
3380
7F80
7F80
61C0
E8C0
1C20
1800
1C00
0C00
ENDCHAR
STARTCHAR Eogonek.c2sc.locl
ENCODING -1
SWIDTH 481 0
DWIDTH 9 0
BBX 7 14 1 -4
BITMAP
FE
FE
C0
C0
FE
FE
C0
C0
FE
FE
30
60
38
38
ENDCHAR
STARTCHAR glyph1293
ENCODING -1
SWIDTH 273 0
DWIDTH 5 0
BBX 3 13 1 -3
BITMAP
E0
E0
E0
E0
E0
E0
E0
E0
E0
E0
00
E0
E0
ENDCHAR
ENDFONT
